/* XPM */
static char *result[] = {
/* columns rows colors chars-per-pixel */
"64 64 127 2 ",
"   c #DF923C",
".  c #E88E37",
"X  c #E6893B",
"o  c #E88B3B",
"O  c #EA943D",
"+  c #EB9A3F",
"@  c #E88E42",
"#  c #E49744",
"$  c #E99245",
"%  c #E79947",
"&  c #EC9D42",
"*  c #E5944B",
"=  c #EA954B",
"-  c #E29949",
";  c #EC9B4B",
":  c #F19F4C",
">  c #EA9750",
",  c #EB9A53",
"<  c #EC9E5C",
"1  c #EEA444",
"2  c #EFAB43",
"3  c #EEA34D",
"4  c #EFA84C",
"5  c #F0AC45",
"6  c #F2A24C",
"7  c #F1AC4B",
"8  c #EFB143",
"9  c #F3B544",
"0  c #F4BC45",
"q  c #F3B44D",
"w  c #F4BC4B",
"e  c #EEA353",
"r  c #EFAC52",
"t  c #EDA15B",
"y  c #F2A254",
"u  c #F4AC56",
"i  c #F1A45C",
"p  c #F4AB5B",
"a  c #F3B453",
"s  c #F4BB54",
"d  c #F2B35B",
"f  c #F9B45C",
"g  c #F5BD5A",
"h  c #FBBF5D",
"j  c #EFA667",
"k  c #F3AA64",
"l  c #F9AD64",
"z  c #F4AB6A",
"x  c #F3B463",
"c  c #F9B764",
"v  c #F3BA64",
"b  c #F9BB65",
"n  c #F4B26D",
"m  c #F8B369",
"M  c #F5BC6B",
"N  c #FCBB6B",
"B  c #F6B071",
"V  c #F5BE76",
"C  c #F9BF71",
"Z  c #FEBA79",
"A  c #F5C346",
"S  c #F5C947",
"D  c #F6C44A",
"F  c #F7CB49",
"G  c #F8CF49",
"H  c #F6D34A",
"J  c #F8D34A",
"K  c #F7DC4B",
"L  c #F9DB4D",
"P  c #F6C454",
"I  c #F7CD54",
"U  c #F5C15D",
"Y  c #F7CA5E",
"T  c #F8D453",
"R  c #F9D952",
"E  c #FAE14F",
"W  c #FAE651",
"Q  c #FAEA53",
"!  c #F6C563",
"~  c #F7C966",
"^  c #F5C56B",
"/  c #FDC36D",
"(  c #F7CB6A",
")  c #F9CE6D",
"_  c #F8D364",
"`  c #F9D963",
"'  c #F7D16F",
"]  c #F8D26D",
"[  c #F9DB6D",
"{  c #F5C574",
"}  c #FBC574",
"|  c #F6CC71",
" . c #FBCC74",
".. c #F7CA7A",
"X. c #FFCF7F",
"o. c #F7D275",
"O. c #F9D474",
"+. c #F9DA76",
"@. c #FCD57B",
"#. c #F9DC7C",
"$. c #FAE17F",
"%. c #F6CA83",
"&. c #FAC980",
"*. c #FACA88",
"=. c #FDD683",
"-. c #FADC83",
";. c #FFDE88",
":. c #FAE384",
">. c #FAE987",
",. c #F7E58F",
"<. c #FBE38B",
"1. c #FAEB8C",
"2. c #FBE694",
"3. c #FBEB95",
"4. c #FEE699",
"5. c #FBED9A",
"6. c #FBF395",
"7. c #FCF59D",
"8. c #FFEDA2",
"9. c #FAF5A4",
"0. c #FFFCA6",
"q. c #FDF7AD",
"w. c #FFFBAD",
"e. c #FEF5B1",
"r. c #FFFCB4",
"t. c #FFFABC",
"y. c None",
/* pixels */
"y.y.y.y.y.y.y.y.y.y.y.y.y.y.y.y.y.y.y.y.y.y.y.y.y.y.y.y.y.y.y.y.y.y.y.y.y.y.y.y.y.y.y.y.y.y.y.y.y.y.y.y.y.y.y.y.y.y.y.y.y.y.y.y.",
"y.y.y.y.y.y.y.y.y.y.y.y.y.y.y.y.y.y.y.y.y.y.y.y.y.y.y.y.y.y.y.y.y.y.y.y.y.y.y.y.y.y.y.y.y.y.y.y.y.y.y.y.y.y.y.y.y.y.y.y.y.y.y.y.",
"y.y.y.y.y.y.y.y.y.y.y.y.y.y.y.y.y.y.y.y.y.y.y.y.y.y.y.y.y.y.y.y.y.y.y.y.y.y.y.y.y.y.y.y.y.y.y.y.y.y.y.y.y.y.y.y.y.y.y.y.y.y.y.y.",
"y.y.y.y.y.y.y.y.y.y.y.y.y.y.y.y.y.y.y.y.y.y.y.y.y.y.y.y.y.y.y.y.y.y.y.y.y.y.y.y.y.y.y.y.B y.y.y.y.y.y.y.y.y.y.y.y.y.y.y.y.y.y.y.",
"y.y.y.y.y.y.y.y.y.y.y.y.y.y.y.y.y.y.y.y.y.y.y.y.y.y.y.y.z y.y.y.y.y.y.y.y.y.y.y.y.y.y.y.Z j y.y.y.y.y.y.y.y.y.y.y.y.y.y.y.y.y.y.",
"y.y.y.y.y.y.y.y.y.y.y.y.y.y.y.y.y.y.y.y.y.y.y.y.y.y.y.l < y.y.y.y.y.y.y.y.y.y.y.y.y.y.y.y.= n y.y.y.y.y.y.y.y.y.y.y.y.y.y.y.y.y.",
"y.y.y.y.y.y.y.y.y.y.y.y.y.y.y.y.y.y.y.y.y.y.y.y.y.y.y., > y.y.y.y.y.y.y.y.y.y.y.y.y.y.y.y., o y.y.y.y.y.y.y.y.y.y.y.y.y.y.y.y.y.",
"y.y.y.y.y.y.y.y.y.y.y.y.y.y.y.y.y.y.y.y.y.y.y.y.y.y.y o @ y.y.y.y.y.y.y.y.y.y.y.y.y.y.y.y., o > y.y.y.y.y.y.y.y.y.y.y.y.y.y.y.y.",
"y.y.y.y.y.y.y.y.y.y.y.y.y.y.y.y.y.y.y.y.y.y.y.y.y.y.= o o z y.y.y.y.y.y.y.y.y.y.y.y.y.y.y.> o o k y.y.y.y.y.y.y.y.y.y.y.y.y.y.y.",
"y.y.y.y.y.y.y.y.y.y.y.y.y.y.y.y.y.y.y.y.y.y.y.y.y.u o o o , y.y.y.y.y.y.y.y.y.y.y.y.y.y.y.$ o o @ y.y.y.y.y.y.y.y.y.y.y.y.y.y.y.",
"y.y.y.y.y.y.y.y.y.y.y.y.y.y.y.y.y.y.y.y.y.y.y.y.y.; O O O & y.y.y.y.y.y.y.y.y.y.y.y.y.y.m o o X o > y.y.y.y.y.y.y.y.y.y.y.y.y.y.",
"y.y.y.y.y.y.y.y.y.y.y.y.y.y.y.y.y.y.y.y.y.y.y.y.y.& + 1 & O C y.y.y.y.y.y.y.y.y.y.y.y.y.e X O 2 o o y.y.y.y.y.y.y.y.y.y.y.y.y.y.",
"y.y.y.y.y.y.y.y.y.y.y.y.y.y.y.y.y.y.y.y.y.y.y.y.m & & 9 1 & N y.y.y.y.y.n y.y.y.y.y.y.y.$ O 8 S $ o ; y.y.y.y.y.y.y.y.y.y.y.y.y.",
"y.y.y.y.y.y.y.y.y.y.y.y.y.y.y.y.y.y.y.y.y.y.y.y.v 1 1 4 1 6 y.y.y.y.y.x V y.y.y.y.y.y.x O & S K 5 o $ y.y.y.y.y.y.y.y.y.y.y.y.y.",
"y.y.y.y.y.y.y.y.y.y.y.y.y.y.y.y.y.y.y.y.y.y.y.y.y.7 7 7 7 v y.y.y.y.b 1 } y.y.y.y.y.y.e + 2 K K 0 O O y.y.y.y.y.y.y.y.y.y.y.y.y.",
"y.y.y.y.y.y.y.y.y.y.y.y.y.y.y.y.y.y.y.y.y.y.y.y.y.a 7 7 7 } y.y.y.y.a r y.y.y.y.y.y.y.1 1 0 K K S O O 7 y.y.y.y.y.y.y.y.y.y.y.y.",
"y.y.y.y.y.y.y.y.y.y.y.y.y.y.y.y.y.y.y.y.*.y.y.y.y.v a a v y.y.y.y.v a d y.y.y.y.y.y./ 1 4 S K K S & O 2 y.y.y.y.y.y.y.y.y.y.y.y.",
"y.y.y.y.y.y.y.y.y.y.y.y.y.y.y.y.y.y.y.y.%.y.y.y.y.} g g  .y.y.y. .g s g y.y.y.y.y.y./ 7 4 H K K S 1 & y.y.y.y.y.y.y.y.y.y.y.y.y.",
"y.y.y.y.y.y.y.y.y.y.y.y.y.y.y.y.y.y.y.y.{ y.y.y.y.@.g ! y.y.y.y./ U U g y.y.y.y.y.y. .q q H K K w 1 3 y.y.y.y.y.y.y.y.y.y.y.y.y.",
"y.y.y.y.y.y.y.y.} C y.y.y.y.y.y.y.y.y.y.{ y.y.y.y.y.~  .y.y.y.@.~ ~ ~ ~ =.y.y.y.y.y. .a a F J H q 1 a y.y.y.y.y.y.y.y.y.y.y.y.y.",
"y.y.y.y.y.y.y.y.=.u y.y.y.y.y.y.y.y.y.y.^ y.y.y.y.y.o.<.y.y.y.o.) ) ~ ) =.y.y.y.y.y.@.s g F J D 7 4 q y.y.y.y.y.y.y.y.y.y.y.y.y.",
"y.y.y.y.y.y.y.y.=.2 v y.y.y.y.y.y.y.y.y.~ y.y.y.y.y.=.y.y.y.y.O.O.Y ~ ' o.y.y.y.y.y.y.g g D F s q d y.y.y.y.y.y.y.y.y.y.y.y.y.y.",
"y.y.y.y.y.y.y.y.X.4 7 } y.y.y.y.y.y.y.<.] <.y.y.y.y.y.y.y.y.<.+.+.s P +.O.3.y.y.y.y.y.^ ! P P s a U y.y.y.y.y.y.y.y.y.y.y.y.y.y.",
"y.y.y.y.y.y.y.y.} q a g { y.y.y.y.y.y.y.] -.y.y.y.y.y.y.y.7.$.:.~ q w ' #.-.y.y.y.y.y. .! U g s v y.y.y.y.y.y.y.y.y.y.y.y.y.y.y.",
"y.y.y.y.y.y.y.y.v a s g g =.y.y.y.y.y.y.+.#.y.y.y.y.y.y.y.3.>.$.s q a ! #.$.2.y.y.y.y.=.~ ~ ! h ) y.y.y.y.y.y.y.y.y.y.y.y.y.y.y.",
"y.y.y.y.y.y.y.y.a a s P U ! =.y.y.y.y.y.#.$.3.y.y.y.y.y.w.3.1.' g s a a O.$.$.r.y.y.y.2.( ~ ! ( y.y.y.y.y.y.y.y.y.y.y.y.y.y.y.y.",
"y.y.y.y.y.y.y.{ a g D D P / ( =.y.y.y.y.:.:.:.0.y.y.y.y.7.6.1.~ U g g g U $.:.2.y.y.y.y.o.( ~ #.y.y.y.y.y.y.y.y.y.y.y.y.y.y.y.y.",
"y.y.y.y.y.y.y.a a s D D D P ( ) -.y.y.y.3.>.1.6.y.y.y.r.7.7.#.~ ~ w s U U ' >.:.8.y.y.y.-.(  .y.y.y.y.y.y.y.y.y.y.y.y.y.y.y.y.y.",
"y.y.y.y.y.y.M a s D D w w w P ) O.#.3.y.r.1.3.6.9.y.y.q.9.5.O.| ! 9 9 U ! ! #.>.:.r.y.y.3.( #.y.y.y.y.y.y.y.y.y.y.y.y.y.y.y.y.y.",
"y.y.y.y.y.y.a a s D D 0 0 w q s ~ +.$.3.e.3.6.6.7.q.t.9.9.,.O.O.P 9 9 w ~ ~ ( :.:.2.y.y.y.@.y.y.y.y.y.y.y.y.y.y.y.y.y.y.y.y.y.y.",
"y.y.y.y.y.v u a D D w 0 9 0 q q a ! +.:.1.3.6.6.7.9.9.9.9.:.-.O.w 9 9 9 P ^ ^ +.>.:.q.y.y.@.y.y.y.y.y.y.y.y.y.y.y.y.y.y.y.y.y.y.",
"y.y.y.y./ q q w F D 0 9 0 0 0 w a s ! +.:.1.1.:.:.3.5.5.,.:.:.~ 0 0 9 9 w ) ^ ) $.$.2.y.y.y.y.y.y.y.y.y.y.y.y.y.y.y.y.y.y.y.y.y.",
"y.y.y.y.c 7 a D A 0 0 0 0 A A A D g g ! ) o.o.O.#.-.-.<.>.:.[ D A 0 0 9 9 P ) ^ o.:.#.q.y.y.y.y.y.y.y.y.y.y.y.y.y.y.y.y.y.y.y.y.",
"y.y.y./ 7 7 w G F 0 0 0 A A A F F G I Y ~ ~ [ [ R [ [ [ ` I F D S D P P P s ) ~ ) -.#.3.y.y.y.y.y.y.y.y.y.y.y.y.y.y.y.y.y.y.y.y.",
"y.y.y.x 1 7 D D A 0 0 A A A F G G L J L L L L L R L L J J G G T O.#.-.#.O.o.) ( ~ +.+.-.y.y.y.y.y.y.y.y.y.y.y.y.y.y.y.y.y.y.y.y.",
"y.y.y.y 5 q G D 0 0 0 A A F G G J J L L E L W E R W L L J L T #.>.:.:.:.-.O.| ~ ~ o.+.@.y.y.y.y.y.y.y.y.y.y.y.y.y.y.y.y.y.y.y.y.",
"y.y.y.1 1 w G F 0 0 0 A A F G G J L L L E W W W W E E L J R +.:.-.>.1.1.:.$.O.~ ! ] O.o.y.y.y.y.y.y.y.y.y.y.v } y.y.y.y.y.y.y.y.",
"y.y.c 1 1 D G D 0 0 A A A F G G J L L R W W Q Q W W E L K ` #.#.:.>.:.,.:.$.) ! v ~ ] ) y.y.y.y.y.y.y.y.y.b 1 x y.y.y.y.y.y.y.y.",
"y.y.c + 1 A F F 0 0 0 A F F G G J L L E E W W W W W E K R O.o.#.#.:.2.e.-.+.) g g ~ ( | y.y.y.y.y.y.y.y.b 7 1 e y.y.y.y.y.y.y.y.",
"y.y.f + & A G F 0 0 0 A A A F G J J K L L E E E E L L L _ ) | O.#.#.y.y.+.O.) g s ~ ~ | y.y.y.y.y.y.} d 7 5 1 & f y.y.y.y.y.y.y.",
"y.y.y.& & 0 H S 0 0 0 0 A A F G J J J J L L L L L L J T ~ ~ ( o.O.<.y.y.@.] ~ s a ! ! ..y.y.y./ v a 7 7 q 0 1 + p y.y.y.y.y.y.y.",
"y.y.y.& $ 9 H J A 9 0 0 A A A F F G G J J L L J L J J P ! g ~ O.O.y.y.y.@.~ / a s ! U %.=.M a a 7 q w S H H 2 + ; y.y.y.y.y.y.y.",
"y.y.y.y O & S G F 0 9 0 0 A A A S F F F J J J G J G F s a h ~ ~ =.y.y.y.y.~ ! s q g g a a q q w D F S H H H 0 O O p y.y.y.y.y.y.",
"y.y.y.y.$ O 5 H H S 0 9 0 0 0 A A S F A w w w w D D w a a g ~ ! y.y.y.y.y.{ g g w w s s s D D D F D A 0 H H S O O k y.y.y.y.y.y.",
"y.y.y.y.6 O O 9 H H S 0 9 0 0 0 0 A D w w w q w q w q q a g g ..y.y.y.y.y. .a a w w w D D D D F D 0 0 9 F K H + o t y.y.y.y.y.y.",
"y.y.y.y.y.6 O $ 9 H J S 0 9 9 9 0 D D w 0 q q a w w w w w s a X.y.y.y.y.y.y.v q q D D D D F G J G S D 0 G K H + o , y.y.y.y.y.y.",
"y.y.y.y.y.y.6 o O 2 S J G S 0 9 A F D w 7 7 u q 7 w D w q a d y.y.y.y.y.y.y.} 7 4 D S F D G J L L L J S H K H O o t y.y.y.y.y.y.",
"y.y.y.y.  y.y.& $ O + 0 H J G A 0 F F 9 6 7 %.N 5 7 q w 7 7 M y.y.y.y.y.y.y.y.1 1 q S G G J L W W L J G K K A o X l y.y.y.y.y.y.",
"y.y.y.y.y.= # y.y.t o O 1 S J J H H F D 1 & x y.d 1 1 q 4 1 b y.y.y.y.y.y.y.y.3 + 5 H H S S J K L J J K K H + o = y.y.y.y.y.y.y.",
"y.y.y.y.y.y.* @ i m j * o O 9 J H H H G 2 & 3 y.y.u & & 1 1 y.y.y.y.y.y.y.y.y.6 + 5 H H S 0 A S F J K K H 1 . o u y.y.y.y.y.y.y.",
"y.y.y.y.y.y.y.@ o @ > * X o o S K H H H A + O % y.y.e + + & y.y.y.y.y.y.y.y.y.% O 5 J K S 0 A H K K K A + o @ p y.y.y.y.y.y.y.y.",
"y.y.y.y.y.y.y.p o o o X X X 1 H K K K K H 1 O % y.y.y.3 O ; y.y.y.y.y.y.y.y.y.o O 9 K K J J E K H A 1 X o = y.y.y.y.y.y.y.y.y.y.",
"y.y.y.y.y.y.y.y.p @ X O 8 A H K K K K H K A o o $ y.y.y.; = y.y.y.y.y.y.y.y.y o O S K E K H S 8 + . o $ 7 y.y.y.y.y.y.y.y.y.y.y.",
"y.y.y.y.y.y.y.y.y.e o o 2 K K K J 8 & O 1 9 + o $ y.y.y.y., y.y.y.y.y.y.y.y.= X 1 K H A 2 + o X $ ; y.y.y.y.y.y.y.y.y.y.y.y.y.y.",
"y.y.y.y.y.y.y.y.y.y.e X . 1 H E 8 o X $ o X o o o ; y.y.y.y.y.y.y.y.y.y.y.; o . 2 2 . . o $ ; y.y.y.y.y.y.y.y.y.y.y.y.y.y.y.y.y.",
"y.y.y.y.y.y.y.y.y.y.y.3 X X + S 9 o o < y.; , , > , y.y.y.y.y.y.y.y.y.y.y.@ o X X X * 3 y.y.y.y.y.y.y.y.y.y.y.y.y.y.y.y.y.y.y.y.",
"y.y.y.y.y.y.y.y.y.y.y.y.y.= o O 1 + X o ; y.y.y.y.y.y.y.y.y.y.y.y.y.y.y.= . o $ : y.y.y.y.y.y.y.y.y.y.y.y.y.y.y.y.y.y.y.y.y.y.y.",
"y.y.y.y.y.y.y.y.y.y.y.y.y.y.3 = o o o o o . y.y.y.y.y.y.y.y.y.y.y.y.y.e o , y.y.y.y.y.y.y.y.y.y.y.y.y.y.y.y.y.y.y.y.y.y.y.y.y.y.",
"y.y.y.y.y.y.y.y.y.y.y.y.y.y.y.y.6 = o o o o $ y.y.y.y.y.y.y.y.y.y.y.- t y.y.y.y.y.y.y.y.y.y.y.y.y.y.y.y.y.y.y.y.y.y.y.y.y.y.y.y.",
"y.y.y.y.y.y.y.y.y.y.y.y.y.y.y.y.y.y.y.: y > @ = 6 y.y.y.y.y.y.y.y.y.y.y.y.y.y.y.y.y.y.y.y.y.y.y.y.y.y.y.y.y.y.y.y.y.y.y.y.y.y.y.",
"y.y.y.y.y.y.y.y.y.y.y.y.y.y.y.y.y.y.y.y.y.y.y.N l 3 y.y.y.y.y.y.y.y.y.y.y.y.y.y.y.y.y.y.y.y.y.y.y.y.y.y.y.y.y.y.y.y.y.y.y.y.y.y.",
"y.y.y.y.y.y.y.y.y.y.y.y.y.y.y.y.y.y.y.y.y.y.y.y.y.y.y.y.y.y.y.y.y.y.y.y.y.y.y.y.y.y.y.y.y.y.y.y.y.y.y.y.y.y.y.y.y.y.y.y.y.y.y.y.",
"y.y.y.y.y.y.y.y.y.y.y.y.y.y.y.y.y.y.y.y.y.y.y.y.y.y.y.y.y.y.y.y.y.y.y.y.y.y.y.y.y.y.y.y.y.y.y.y.y.y.y.y.y.y.y.y.y.y.y.y.y.y.y.y.",
"y.y.y.y.y.y.y.y.y.y.y.y.y.y.y.y.y.y.y.y.y.y.y.y.y.y.y.y.y.y.y.y.y.y.y.y.y.y.y.y.y.y.y.y.y.y.y.y.y.y.y.y.y.y.y.y.y.y.y.y.y.y.y.y."
};
