/* XPM */
static char *result[] = {
/* columns rows colors chars-per-pixel */
"64 64 184 2 ",
"   c #EC860C",
".  c #F19500",
"X  c #F19A00",
"o  c #ED8E1F",
"O  c #F18C1E",
"+  c #EF9311",
"@  c #F39714",
"#  c #F19A10",
"$  c #F6A907",
"%  c #F6BE00",
"&  c #F5BB12",
"*  c #EB8624",
"=  c #EA862D",
"-  c #EB8B2B",
";  c #F28E2D",
":  c #EE932F",
">  c #E49A2A",
",  c #F29E21",
"<  c #F3922D",
"1  c #E88732",
"2  c #E78837",
"3  c #E98934",
"4  c #E78B3C",
"5  c #E88B3B",
"6  c #E69133",
"7  c #EE9232",
"8  c #EB933D",
"9  c #EB9A3F",
"0  c #F59330",
"q  c #F89730",
"w  c #F29931",
"e  c #F99C37",
"r  c #F29A3E",
"t  c #F6A321",
"y  c #F4A129",
"u  c #F8A236",
"i  c #F4A934",
"p  c #F5A53D",
"a  c #FAB034",
"s  c #F9B03B",
"d  c #F9C82E",
"f  c #E99244",
"g  c #EC9D41",
"h  c #E99248",
"j  c #E69A48",
"k  c #EC9B4C",
"l  c #ED9F55",
"z  c #EA9D5C",
"x  c #EEA443",
"c  c #EEAC42",
"v  c #ECA24C",
"b  c #EFAA4B",
"n  c #F8A540",
"m  c #F1AD45",
"M  c #F1AC4A",
"N  c #FBAE48",
"B  c #EFB042",
"V  c #F3B544",
"C  c #F4BC45",
"Z  c #F3B44D",
"A  c #F4BC4B",
"S  c #EFAB55",
"D  c #EDA45C",
"F  c #ECAB5F",
"G  c #F3A651",
"H  c #F0AE57",
"J  c #F8AA52",
"K  c #F3B552",
"L  c #FDB750",
"P  c #F4BB54",
"I  c #F3B45C",
"U  c #F8B459",
"Y  c #F4BD5B",
"T  c #F2AD65",
"R  c #EFB36C",
"E  c #F3B463",
"W  c #FAB562",
"Q  c #F4BC62",
"!  c #FBBF63",
"~  c #F7B568",
"^  c #F3BB6A",
"/  c #FCBB68",
"(  c #EFB978",
")  c #F1BD75",
"_  c #F9BF7C",
"`  c #F6C346",
"'  c #F7CA47",
"]  c #F6C44A",
"[  c #FDC44A",
"{  c #F7CB4A",
"}  c #F9CE4A",
"|  c #F7D34A",
" . c #F8D44B",
".. c #F7DA4A",
"X. c #F9DB4C",
"o. c #F6C352",
"O. c #FBC157",
"+. c #F6CA52",
"@. c #F9CA54",
"#. c #F6C35C",
"$. c #F7CB5B",
"%. c #FACB5B",
"&. c #F7D557",
"*. c #F9D355",
"=. c #F7D950",
"-. c #FBDC53",
";. c #F7D158",
":. c #F9D45C",
">. c #FCD95C",
",. c #FAE14E",
"<. c #FAE551",
"1. c #FAEA52",
"2. c #F6C463",
"3. c #FCC362",
"4. c #F7CA65",
"5. c #FBCD62",
"6. c #F4C26C",
"7. c #F9C66B",
"8. c #F7CB6B",
"9. c #F9CE6E",
"0. c #F8D563",
"q. c #FEDC62",
"w. c #F9D36D",
"e. c #FBD96C",
"r. c #F6CD72",
"t. c #FCCD71",
"y. c #F4C07A",
"u. c #FCC479",
"i. c #F7C879",
"p. c #F7D171",
"a. c #F9D473",
"s. c #F9D975",
"d. c #F7D37F",
"f. c #FBD67A",
"g. c #F7D97C",
"h. c #F9DC7B",
"j. c #FFED67",
"k. c #FFEB69",
"l. c #FFF46B",
"z. c #FDE574",
"x. c #FDEC76",
"c. c #FBE17C",
"v. c #FFEB7E",
"b. c #F4CE8A",
"n. c #FCD582",
"m. c #F7D980",
"M. c #FADD82",
"N. c #FDD28C",
"B. c #F6DF8D",
"V. c #F8DD89",
"C. c #FFD592",
"Z. c #F6DE92",
"A. c #FDDF9B",
"S. c #FAE383",
"D. c #FAE48A",
"F. c #FAEC8C",
"G. c #FEF18A",
"H. c #FCE390",
"J. c #FAEC93",
"K. c #FBED9A",
"L. c #FCF394",
"P. c #FFFA95",
"I. c #FCF39B",
"U. c #FFFB99",
"Y. c #FFECA4",
"T. c #FFEDAB",
"R. c #F7F2A5",
"E. c #FCF4A4",
"W. c #FAF5AD",
"Q. c #FFFBAB",
"!. c #F8F4B6",
"~. c #FFFFB3",
"^. c #F5F2BC",
"/. c #FAF6BC",
"(. c #FFFBBB",
"). c #FAF7C4",
"_. c #FAF6CB",
"`. c #FFFFCB",
"'. c #FBFBD3",
"]. c #FAF8DA",
"[. c #FCFDE3",
"{. c #FCFCE8",
"}. c #FEFEF7",
"|. c None",
/* pixels */
"|.|.|.|.|.|.|.|.|.|.|.|.|.|.|.|.|.|.|.|.|.|.|.|.|.|.|.|.|.|.|.|.|.|.|.|.|.|.|.|.|.|.|.|.|.|.|.|.|.|.|.|.|.|.|.|.|.|.|.|.|.|.|.|.",
"|.|.|.|.|.|.|.|.|.|.|.|.|.|.|.|.|.|.|.|.|.|.|.|.|.|.|.|.|.|.|.|.|.|.|.|.|.|.|.|.|.|.|.|.|.|.|.|.|.|.|.|.|.|.|.|.|.|.|.|.|.|.|.|.",
"|.|.|.|.|.|.|.|.|.|.|.|.|.|.|.|.|.|.|.|.|.|.|.|.|.|.|.|.|.|.|.|.|.|.|.|.|.|.|.|.|.|.|.|.|.|.|.|.|.|.|.|.|.|.|.|.|.|.|.|.|.|.|.|.",
"|.|.|.|.|.|.|.|.|.|.|.|.|.|.|.|.|.|.|.|.|.|.|.|.|.|.|.|.|.|.|.|.|.|.|.|.|.|.|.|.|.|.|.|.|.|.|.|.|.|.|.|.|.|.|.|.|.|.|.|.|.|.|.|.",
"|.|.|.|.|.|.|.|.|.|.|.|.|.|.|.|.|.|.|.|.|.|.|.|.|.|.|.|.|.|.|.|.|.|.|.|.|.|.|.|.|.|.|.|.|.|.|.|.|.|.|.|.|.|.|.|.|.|.|.|.|.|.|.|.",
"|.|.|.|.|.|.|.|.|.|.|.|.|.|.|.|.|.|.|.|.|.|.|.|.|.|.|.|.|.|.|.|.|.|.|.|.|.|.|.|.|.|.|.|.|.|.|.|.|.|.|.|.|.|.|.|.|.|.|.|.|.|.|.|.",
"|.|.|.|.|.|.|.|.|.|.|.|.|.|.|.|.|.|.|.|.|.|.|.|.|.|.|.|.|.|.|.|.|.|.|.|.|.|.|.|.|.|.|.|.|.|.|.|.|.|.|.|.|.|.|.|.|.|.|.|.|.|.|.|.",
"|.|.|.|.|.|.|.|.|.|.|.|.|.|.|.|.|.|.|.|.|.|.|.|.|.|.|.|.|.|.|.|.|.|.|.|.|.|.|.|.|.|.|.|.|.|.|.|.|.|.|.|.|.|.|.|.|.|.|.|.|.|.|.|.",
"|.|.|.|.|.|.|.|.|.|.|.|.|.|.|.|.|.|.|.|.|.|.|.|.|.|.|.|.|.|.|.|.|.|.|.|.|.|.|.|.|.|.|.|.|.|.|.|.|.|.|.|.|.|.|.|.|.|.|.|.|.|.|.|.",
"|.|.|.|.|.|.|.|.|.|.|.|.|.|.|.|.|.|.|.|.|.|.> |.|.|.|.|.|.|.|.|.|.|.|.|.|.|.|.|.|.|.|.|.|.|.|.|.|.|.|.|.|.|.|.|.|.|.|.|.|.|.|.|.",
"|.|.|.|.|.|.|.|.|.|.|.|.|.|.|.|.|.|.|.|.|.|.7 |.|.|.|.|.|.|.|.|.|.|.|.|.|.|.|.|.|.|.|.|.|.|.|.|.|.|.|.|.|.|.|.|.|.|.|.|.|.|.|.|.",
"|.|.|.|.|.|.|.|.|.|.|.|.|.|.|.|.|.|.|.|.|.|.4 E |.|.|.|.|.|.|.|.|.|.|.|.|.|.|.|.|.|.|.|.|.|.|.|.|.|.|.|.|.|.|.|.|.|.|.|.|.|.|.|.",
"|.|.|.|.|.|.|.|.|.|.|.|.|.|.|.|.|.|.|.|.|.a.5 h Y.|.|.|.|.|.|.|.|.|.|.|.|.|.|.|.|.|.|.|.|.|.|.|.|.|.|.|.|.|.|.|.|.|.|.|.|.|.|.|.",
"|.|.|.|.|.|.|.|.|.|.|.|.|.|.|.|.|.|.|.|.|.f.5 5 T |.|.|.|.|.K.t.|.|.|.|.|.|.|.|.|.|.|.|.|.|.|.|.|.|.|.|.|.|.|.|.|.|.|.|.|.|.|.|.",
"|.|.|.|.|.|.|.|.|.|.|.|.|.|.|.|.|.|.|.|.|.M.5 5 h T.|.|.|.|.t.G |.|.|.|.|.|.|.|.|.|.|.|.|.|.|.|.|.|.|.|.|.|.|.|.|.|.|.|.|.|.|.|.",
"|.|.|.|.|.|.|.|.|.|.|.|.|.|.|.|.|.|.|.|.|.|.h 5 5 ~ |.|.|.|.W g |.|.|.|.|.|.|.|.|.|.|.|.|.|.|.|.|.|.|.|.|.|.|.|.|.|.|.|.|.|.|.|.",
"|.|.|.|.|.|.|.|.|.|.|.|.|.|.|.|.|.|.|.|.|.|.l 8 8 D |.|.|.|.H g |.|.|.|.|.|.|.|.|.|.|.|.|.|.|.|.|.|.|.|.|.|.|.|.|.|.|.|.|.|.|.|.",
"|.|.|.|.|.|.|.|.|.|.|.|.|.|.|.|.|.|.|.|.|.|./ 8 g k E.|.|.|.H x [ |.|.|.|.|.|.|.|.|.|.|.|.|.|.|.|.|.|.|.|.|.|.|.|.|.|.|.|.|.|.|.",
"|.|.|.|.|.|.|.|.|.|.|.|.|.|.|.|.|.|.|.|.|.|.E.v g x V.|.|.|.M M V |.|.|.|.|.|.|.|.|.|.|.|.|.|.|.|.|.|.|.|.|.|.|.|.|.|.|.|.|.|.|.",
"|.|.|.|.|.|.|.|.|.|.|.|.|.|.|.|.|.|.|.|.|.|.|.! n b f.|.|.5.M M m |.|.|.|.|.|.|.|.|.|.|.|.|.|.|.|.|.|.|.|.|.|.|.|.|.|.|.|.|.|.|.",
"|.|.|.|.|.|.|.|.|.|.|.|.|.|.|.|.|.|.|.|.|.|.|.|.K M f.|.|.Y K K Z q.|.|.|.|.|.|.|.|.|.|.|.|.|.|.|.|.|.|.|.|.|.|.|.|.|.|.|.|.|.|.",
"|.|.|.|.|.|.|.|.|.|.|.|.|.|.|.|.|.|.|.|.|.|.|.|.9.Z S.|.P.I P Y Y @.|.|.|.|.|.|.|.|.|.|.|.|.|.|.|.|.|.|.|.|.F.|.|.|.|.|.|.|.|.|.",
"|.|.|.|.|.|.|.|.|.|.|.|.|.|.|.|.|.|.|.|.|.|.|.|.U.Q P.|.a.Y #.#.#.#.|.|.|.|.|.|.|.|.|.|.|.|.|.|.I.|.|.|.|.7.^ |.|.|.|.|.|.|.|.|.",
"|.|.|.|.|.|.|.|.|.|.|.|.|.|.|.|.|.|.|.|.|.|.|.|.|.r.|.Q.2.2.4.;.4.4.G.|.|.|.|.|.|.|.|.|.|.|.|.h.|.|.|.|.|.g ^ |.|.|.|.|.|.|.|.|.",
"|.|.|.|.|.|.|.|.|.|.|.|.|.|.|.|.|.|.z.|.|.|.|.|.|.D.|.c.4.4.:.=.8.w.s.|.|.|.|.|.|.|.|.|.|.j.#.|.|.|.|.|.x x |.|.|.|.|.|.|.|.|.|.",
"|.|.|.|.|.|.|.|.|.|.|.|.|.|.|.|.|.|.4.|.|.|.|.|.|.E.Q.p.w.w. ...0.a.g.~.|.|.|.|.|.|.|.|.l.] v.|.|.|.a.b x x |.|.|.|.|.|.|.|.|.|.",
"|.|.|.|.|.|.|.|.|.|.|.|.|.|.|.|.|.|.e.w.|.|.|.|.|.(.D.p.p.:.| | 0.h.h.E.|.|.|.|.|.|.|.|.@.4.|.|.|.c.Z b p #.|.|.|.|.|.|.|.|.|.|.",
"|.|.|.|.|.|.|.|.|.|.|.|.|.|.|.|.|.|.|.Y P.|.|.|.|.(.h.s.e.| } } ;.c.S.K.[.|.|.|.|.|.|.:.$.v.|.|.|.P Z Z c |.|.|.|.|.|.|.|.|.|.|.",
"|.|.|.|.|.|.|.|.|.|.|.|.|.|.|.|.|.|.|.#.w.|.|.|.|.K.s.h.0.{ ] ] { c.F.J.'.|.|.|.|.|.x.w.p.|.|.|.e.P P c |.|.|.|.|.|.|.|.|.|.|.|.",
"|.|.|.|.|.|.|.|.|.|.|.|.|.|.|.|.|.|.|.@.2.U.|.|.`.M.h.h.+.] ] ] A e.L.L._.|.[.|.|.Q.M.h.g.|.|.|.$.P V } |.|.|.|.|.|.|.|.|.|.|.|.",
"|.|.|.|.|.|.|.|.|.|.|.|.|.|.|.|.|.|.|.%.%.c.|.|.Q.h.S.0.] ] A A A $.I.I./.{.'.|.|.J.S.h.V.|.|.|.+.2.C |.|.|.|.|.|.|.|.|.|.|.|.|.",
"|.|.|.|.|.|.|.|.|.|.|.|.|.|.|.|.|.|.|.>.4.r.~.|.F.M.S.$.] A V A Z Y J.E.W.]./.}.).F.S.c.H.|.|.|.+.C |.|.|.|.|.|.|.|.|.|.|.|.|.|.",
"|.|.|.|.|.|.|.|.|.|.|.|.|.|.|.|.|.|.|.:.4.8.G.|.S.S.h.o.A Z C Z Z P D.R.R.^.Q.{.R.F.F.S.H.|.|.|.&.' |.|.|.|.|.|.|.|.|.|.|.|.|.|.",
"|.|.|.|.|.|.|.|.|.|.|.|.|.|.|.|.|.|.|.%.8.w.h.E.M.S.e.A Z A ` A P Y m.R.W.R.R.!.I.G.F.S.D.|.|.|.k.-.|.|.|.|.|.|.|.|.|.|.|.|.|.|.",
"|.|.|.|.|.|.|.|.|.|.|.|.|.|.|.|.|.|.j.4.8.p.g.Z.h.S.5.Z Z A ' ] #.2.r.K.W.R.E.I.L.F.S.S.M.|.|.|.|.|.|.|.|.|.|.|.|.|.|.|.|.|.|.|.",
"|.|.|.|.|.|.|.|.|.|.|.|.|.|.|.|.|.|.#.2.8.w.a.h.h.S.Y Z Z } | } $.8.8.g.S.J.I.I.J.h.s.S.h.P.|.|.|.|.|.|.|.|.|.|.|.|.|.|.|.|.|.|.",
"|.|.|.|.|.|.|.|.|.|.|.|.|.|.|.|.|.q.#.2.$.4.a.s.s.4.K Z P |  . . .:.a.f.g.h.M.M.f.8.p.S.h.D.|.|.|.|.|.|.|.|.|.|.|.|.|.|.|.|.|.|.",
"|.|.|.|.|.|.|.|.|.|.|.|.|.|.|.|.|.Q #.#.{ { +.o.o.Z Z P | X.X.X.X...-.0.s.S.S.g.h.a.r.h.h.V.|.|.|.|.|.|.|.|.|.|.|.|.|.|.|.|.|.|.",
"|.|.|.|.|.|.|.|.|.|.|.|.|.|.|.|.0.K Y +.{ ] ] ] A A A | X.X.X.-.-.X... . .&.;.$.w.a.p.a.s.f.|.|.|.|.|.|.|.|.|.|.|.|.|.|.|.|.|.|.",
"|.|.|.|.|.|.|.|.|.|.|.|.|.|.|.|.I P P } { ] ] ] ] {  .X.,.<.<.1.<.,.X... .{ ' ` $.f.p.p.a.w.D.|.|.|.|.|.|.|.|.|.|.|.|.|.|.|.|.|.",
"|.|.|.|.|.|.|.|.|.|.|.|.|.|.|.q.M K ] | { ] ` ` } |  .X.,.<.1.1.<.,.,... .| ' ` [ a.p.8.w.8.d.|.|.|.|.|.|.|.|.|.|.|.|.|.|.|.|.|.",
"|.|.|.|.|.|.|.|.|.|.|.|.|.|.|.Y M K { } { ] ` } { |  . .-.X.<.<.,.,.X...} | ' ` ` 4.9.4.8.8.8.|.|.|.|.|.|.|.|.|.|.|.|.|.|.|.|.|.",
"|.|.|.|.|.|.|.|.|.|.|.|.|.|.|.I M Z | | } C C ' { ] A A P o.#.;.-.X... .} } ' ` C #.4.2.2.2.3.J.|.|.|.|.|.|.|.|.|.|.|.|.|.|.|.|.",
"|.|.|.|.|.|.|.|.|.|.|.|.|.|.|.v x A  .| ' C C ` ] A Z Z P P Y 2.4.*. .| } ' ` C C A #.Y Y Y Y f.|.|.|.|.|.|.|.|.|.|.|.|.|.|.|.|.",
"|.|.|.|.|.|.|.|.|.|.|.|.|.|.|.x x C ..| C C C ] ] A P #.2.2.3.Y Y #.} } ] ' [ ` C A P K P Y K i.|.|.Y.|.|.|.|.|.|.|.|.|.|.|.|.|.",
"|.|.|.|.|.|.|.|.|.|.|.|.|.|.>.g x ` ..| ` V ] } ] A #.Y #.2.2.Y K Y o.] ` ` C C V V Z L K K Z ) |.|.N.|.|.|.|.|.|.|.|.|.|.|.|.|.",
"|.|.|.|.|.|.|.|.|.|.|.|.|.|.>.9 g C ....' ' } } ] I U 6.b.Y #.Y K K A ` C C C V V V Z Z Z Z M ^ |.C.y.|.|.|.|.|.|.|.|.|.|.|.|.|.",
"|.|.|.|.|.|.|.|.|.|.|.|.|.|.|.8 f C ,..... .| ] Z b Q Y.H.I K P Z Z C C C V V V V A Z A A M M E |.R ) |.|.|.|.|.|.|.|.|.|.|.|.|.",
"|.|.|.|.|.|.|.|.|.|.|.|.|.|.|.h 8 x C V ] ..| C b b n.|.H.K K Z A A A V V V A A A A A ] ] b x E C.v ( |.|.|.|.|.|.|.|.|.|.|.|.|.",
"|.|.|.|.|.|.|.|.|.|.|.|.|.|.|.7 5 8 8 8 9 B | c x b |.|.|.K M M A ] ] A V ] A A Z m Z V A x g F R 8 y.|.|.|.|.|.|.|.|.|.|.|.|.|.",
"|.|.|.|.|.|.|.|.|.|.|.|.|.|.|.t 5 5 f k 4 9 C x 9 m |.|.|.e.b x m A ] ] ] ] ] B x x x x c x 9 j h 8 u.|.|.|.|.|.|.|.|.|.|.|.|.|.",
"|.|.|.|.|.|.|.|.|.|.|.|.|.|.|.|.* 5 G 9.9 8 9 9 9 i |.|.|.|.4.x x c ] { { { { x g v v 9 9 9 8 8 8 f |.|.|.|.|.|.|.|.|.|.|.|.|.|.",
"|.|.|.|.|.|.|.|.|.|.|.|.|.|.|.|.@ 3 p |.|.w 5 8 8 , |.|.|.|.|.U g g m } { | C g 9 W W - f c c 8 5 h |.|.|.|.|.|.|.|.|.|.|.|.|.|.",
"|.|.|.|.|.|.|.|.|.|.|.|.|.|.|.|.|.  t |.|.|.[ y o @ |.|.|.|.|.|.M 8 9 C ..{ x 4 8 |.|.- 2 x ' 8 5 8 |.|.|.|.|.|.|.|.|.|.|.|.|.|.",
"|.|.|.|.|.|.|.|.|.|.|.|.|.|.|.|.|.$ . |.|.|.|.|.|.# d |.|.|.|.|.|.: 5 9 ` p 5 5 W |.|.< 2 g V 5 3 n |.|.|.|.|.|.|.|.|.|.|.|.|.|.",
"|.|.|.|.|.|.|.|.|.|.|.|.|.|.|.|.|.|.X |.|.|.|.|.|.|.& |.|.|.|.|.|.s * 5 8 5 1 G |.|.|.< 2 8 9 5 3 |.|.|.|.|.|.|.|.|.|.|.|.|.|.|.",
"|.|.|.|.|.|.|.|.|.|.|.|.|.|.|.|.|.|.|.% |.|.|.|.|.|.|.|.|.|.|.|.|.|.O 3 2 3 J |.|.|.|.; 5 5 5 5 < |.|.|.|.|.|.|.|.|.|.|.|.|.|.|.",
"|.|.|.|.|.|.|.|.|.|.|.|.|.|.|.|.|.|.|.|.|.|.|.|.|.|.|.|.|.|.|.|.|.|.< - r O.|.|.|.|.|.= 5 5 5 3 |.|.|.|.|.|.|.|.|.|.|.|.|.|.|.|.",
"|.|.|.|.|.|.|.|.|.|.|.|.|.|.|.|.|.|.|.|.|.|.|.|.|.|.|.|.|.|.|.|.|.|.a |.|.|.|.|.|.|.0 5 5 5 5 u |.|.|.|.|.|.|.|.|.|.|.|.|.|.|.|.",
"|.|.|.|.|.|.|.|.|.|.|.|.|.|.|.|.|.|.|.|.|.|.|.|.|.|.|.|.|.|.|.|.|.|.|.|.|.|.|.|.|.e 3 5 5 5 n |.|.|.|.|.|.|.|.|.|.|.|.|.|.|.|.|.",
"|.|.|.|.|.|.|.|.|.|.|.|.|.|.|.|.|.|.|.|.|.|.|.|.|.|.|.|.|.|.|.|.|.|.|.|.|.|.|.|.q = 5 5 8 N |.|.|.|.|.|.|.|.|.|.|.|.|.|.|.|.|.|.",
"|.|.|.|.|.|.|.|.|.|.|.|.|.|.|.|.|.|.|.|.|.|.|.|.|.|.|.|.|.|.|.|.|.|.|.|.|.|.L 8 5 5 k U |.|.|.|.|.|.|.|.|.|.|.|.|.|.|.|.|.|.|.|.",
"|.|.|.|.|.|.|.|.|.|.|.|.|.|.|.|.|.|.|.|.|.|.|.|.|.|.|.|.|.|.|.|.|.|.|.|.%.D z T ! |.|.|.|.|.|.|.|.|.|.|.|.|.|.|.|.|.|.|.|.|.|.|.",
"|.|.|.|.|.|.|.|.|.|.|.|.|.|.|.|.|.|.|.|.|.|.|.|.|.|.|.|.|.|.|.|.|.|.|.|.c.I.|.|.|.|.|.|.|.|.|.|.|.|.|.|.|.|.|.|.|.|.|.|.|.|.|.|."
};
