/* XPM */
static char *result[] = {
/* columns rows colors chars-per-pixel */
"64 64 142 2 ",
"   c #E78837",
".  c #E78A3B",
"X  c #E88B3B",
"o  c #EA933D",
"O  c #EC9B3F",
"+  c #E88E42",
"@  c #E99244",
"#  c #EC9D42",
"$  c #EA944C",
"%  c #EC9B4B",
"&  c #F39E4B",
"*  c #EC9C53",
"=  c #EC9D59",
"-  c #F39E52",
";  c #EEA344",
":  c #EEAB42",
">  c #EDA349",
",  c #EFA94A",
"<  c #F0AB45",
"1  c #F1AD4B",
"2  c #EFB143",
"3  c #F3B544",
"4  c #F5BC45",
"5  c #F3B44D",
"6  c #F4BC4B",
"7  c #EDA554",
"8  c #EFAB53",
"9  c #EDA45B",
"0  c #EEAB59",
"q  c #F2A353",
"w  c #F2AB55",
"e  c #F2A65B",
"r  c #F1AD59",
"t  c #FAAD5C",
"y  c #EDB15C",
"u  c #F3B552",
"i  c #FAB057",
"p  c #F4BB54",
"a  c #F1B35D",
"s  c #FBB55C",
"d  c #F5BD5A",
"f  c #EDA562",
"g  c #EDA965",
"h  c #EFAD68",
"j  c #F2A761",
"k  c #F4AC64",
"l  c #F8AF64",
"z  c #F1AB69",
"x  c #EEB46B",
"c  c #F3B563",
"v  c #FBB464",
"b  c #F4BB64",
"n  c #FCBC64",
"m  c #F3B46C",
"M  c #FCB66B",
"N  c #F4BC6B",
"B  c #FBBD6B",
"V  c #EEAF77",
"C  c #F3B472",
"Z  c #F2BE74",
"A  c #FDBA75",
"S  c #F1BC7A",
"D  c #F6C346",
"F  c #F5C947",
"G  c #F6C44A",
"H  c #F7CB49",
"J  c #F8CF49",
"K  c #F7D34A",
"L  c #F9D44B",
"P  c #F7DB4A",
"I  c #F9DB4C",
"U  c #F6C355",
"Y  c #F7CC52",
"T  c #F5C15C",
"R  c #F8D354",
"E  c #F9DB52",
"W  c #F8D25A",
"Q  c #F9DB5F",
"!  c #FAE14F",
"~  c #FAE550",
"^  c #FAE952",
"/  c #FAE15E",
"(  c #F6C563",
")  c #FFC265",
"_  c #F7C966",
"`  c #F5C56C",
"'  c #FAC56C",
"]  c #F7CB6A",
"[  c #F8CE6C",
"{  c #F9D564",
"}  c #F9DD60",
"|  c #F8D16F",
" . c #F5C572",
".. c #FAC373",
"X. c #FACC73",
"o. c #F5C479",
"O. c #F8C77D",
"+. c #F6CC7C",
"@. c #FFCB7A",
"#. c #F7D274",
"$. c #F9D473",
"%. c #F9D975",
"&. c #F7D37B",
"*. c #FBD37B",
"=. c #F9DC7C",
"-. c #FAE26A",
";. c #F2C784",
":. c #FBCD83",
">. c #F7CD8C",
",. c #FCD481",
"<. c #FADD83",
"1. c #FED589",
"2. c #FEDE89",
"3. c #F9CF96",
"4. c #FDD495",
"5. c #F5DB90",
"6. c #FFDA94",
"7. c #FBD59B",
"8. c #FEDC9A",
"9. c #FAE384",
"0. c #FAE885",
"q. c #FAE48B",
"w. c #FAEC8C",
"e. c #FBE592",
"r. c #FBEC94",
"t. c #FFE39F",
"y. c #FBED9C",
"u. c #FBF295",
"i. c #FBF49D",
"p. c #FEE1A3",
"a. c #FEEFA0",
"s. c #FAF4A5",
"d. c #FFFCA7",
"f. c #F9F4AE",
"g. c #FFF8A9",
"h. c #F9F5B2",
"j. c #FFFDB1",
"k. c #FAF6C0",
"l. c #FEFAC3",
"z. c #F9F6CC",
"x. c #FFFFEA",
"c. c None",
/* pixels */
"c.c.c.c.c.c.c.c.c.c.c.c.c.c.c.c.c.c.c.c.c.c.c.c.c.c.c.c.c.c.c.c.c.c.c.c.c.c.c.c.c.c.c.c.c.c.c.c.c.c.c.c.c.c.c.c.c.c.c.c.c.c.c.c.",
"c.c.c.c.c.c.c.c.c.c.c.c.c.c.c.c.c.c.c.c.c.c.c.c.c.c.c.c.c.c.c.c.c.c.c.c.c.c.c.c.c.c.c.c.c.c.c.c.c.c.c.c.c.c.c.c.c.c.c.c.c.c.c.c.",
"c.c.c.c.c.c.c.c.c.c.c.c.c.c.c.c.c.c.c.c.c.c.c.c.c.c.c.c.c.c.c.c.c.c.c.c.c.c.c.c.c.c.c.c.c.c.c.c.c.c.c.c.c.c.c.c.c.c.c.c.c.c.c.c.",
"c.c.c.c.c.c.c.c.c.c.c.c.c.c.c.c.c.c.c.c.c.c.c.c.c.c.c.c.c.c.c.c.c.c.c.c.c.c.c.c.c.c.c.c.c.c.c.c.c.c.c.c.c.c.c.c.c.c.c.c.c.c.c.c.",
"c.c.c.c.c.c.c.c.c.c.c.c.c.c.c.c.c.c.c.c.c.c.c.c.c.c.c.c.c.c.c.9 c.c.c.c.c.c.c.c.c.c.c.c.c.c.c.c.c.c.c.c.c.c.c.c.c.c.c.c.c.c.c.c.",
"c.c.c.c.c.c.c.c.c.c.c.c.c.c.c.c.c.c.c.c.c.c.c.c.c.c.c.c.c.c.c.z c.c.c.c.c.c.c.c.c.c.c.c.c.c.c.c.c.c.c.c.c.c.c.c.c.c.c.c.c.c.c.c.",
"c.c.c.c.c.c.c.c.c.c.c.c.c.c.c.c.c.c.c.c.c.c.c.c.c.c.c.c.c.c.c.k 9 c.c.c.c.c.c.c.c.c.c.c.c.c.c.c.c.c.c.c.c.c.c.c.c.c.c.c.c.c.c.c.",
"c.c.c.c.c.c.c.c.c.c.c.c.c.c.c.c.c.c.c.c.c.c.c.c.c.c.c.c.c.c.c.e . t c.c.c.c.e c.c.c.c.c.c.c.c.c.c.c.c.c.c.c.c.c.c.c.c.c.c.c.c.c.",
"c.c.c.c.c.c.c.c.c.c.c.c.c.c.c.c.c.c.c.c.c.c.c.c.c.c.c.c.c.c.c.c.. @ c.c.c.c.9 c.c.c.c.c.c.c.c.c.c.c.c.c.c.c.c.c.c.c.c.c.c.c.c.c.",
"c.c.c.c.c.c.c.c.c.c.c.c.c.c.c.c.c.c.c.c.c.c.c.c.c.c.c.c.c.c.c.c.@ . * c.c.c.= l c.c.c.c.c.c.c.c.c.c.c.c.c.c.c.c.c.c.c.c.c.c.c.c.",
"c.c.c.c.c.c.c.c.c.c.c.c.c.c.c.c.c.c.c.c.c.c.c.g c.c.c.c.c.c.c.c.q X @ c.c.c.% % c.c.c.c.c.c.c.c.c.c.c.c.c.c.c.c.c.c.c.c.c.c.c.c.",
"c.c.c.c.c.c.c.c.c.c.c.c.c.c.c.c.c.c.c.c.c.c.c.m m c.c.c.c.c.c.c.c.% o v c.c.% X t c.c.c.c.c.c.c.c.c.c.c.c.c.c.c.c.c.c.c.c.c.c.c.",
"c.c.c.c.c.c.c.c.c.c.c.c.c.c.c.c.c.c.c.c.c.c.c.m 9 c.c.c.c.c.c.c.c.c.# e c.c.% o % c.c.c.c.c.c.c.c.c.c.c.c.c.c.c.c.c.c.c.c.c.c.c.",
"c.c.c.c.c.c.c.c.c.c.c.c.c.c.c.c.c.c.c.c.c.c.c.N ; c.c.c.c.c.c.c.c.c.a 0 c.c.; O # s c.c.c.c.c.c.c.c.c.c.c.c.c.c.g c.c.c.c.c.c.c.",
"c.c.c.c.c.c.c.c.c.c.c.c.c.c.c.c.c.c.c.c.c.c.c.w ; B c.c.c.c.c.c.c.c.c.y c.n ; # # w c.c.c.c.c.c.c.c.c.C c.c.c.* z c.c.c.c.c.c.c.",
"c.c.c.c.c.c.c.c.c.c.c.c.c.c.c.c.c.c.c.c.c.c.B < < ..c.c.c.c.c.c.c.c.c.y c.N , ; ; , s c.c.c.c.c.c.c.j c.c.c.$ . t c.c.c.c.c.c.c.",
"c.c.c.c.c.c.c.c.c.c.c.c.c.c.c.c.c.c.c.c.c.c.a 5 1 ..c.c.c.c.c.c.c.c.c.c.c.a 1 5 1 , a c.c.c.c.c.c.k z c.c.q . @ c.c.c.c.c.c.c.c.",
"c.c.c.c.c.c.c.c.c.c.c.c.c.c.c.c.c.c.c.c.c.B 5 u u X.c.c.c.c.c.1.c.c.c.c.$.u w G 6 1 1 c.c.c.c.c.c.# N c.c.% X & c.c.c.c.c.c.c.c.",
"c.c.c.c.c.c.c.c.c.c.c.c.c.c.c.c.c.c.c.c.*.p d p d c.c.c.c.c.c.+.c.c.c.c.' p p G G u u b c.c.c.c.s O ..c.c.o @ c.c.c.c.c.c.c.c.c.",
"c.c.c.c.c.c.g c.c.c.c.c.c.c.c.c.c.c.c.c.` T b d  .c.c.c.c.c.c.1.@.c.c.c.' d d G G G u u c.c.c.c.w ; ..c.c.# r c.c.c.c.c.c.c.c.c.",
"c.c.c.c.c.m 7 c.c.c.c.c.c.c.c.c.c.c.c.1.b ( ( ( &.c.c.c.c.c.c.c.] 2.c.c.] ( T D G U p p o.*.c.n < , N c.c.0 v c.c.c.c.c.c.c.c.c.",
"c.c.c.c.c.0 ; n c.c.c.c.c.c.c.c.c.c.c.X._ _ _ *.c.c.c.c.c.c.c.c.&.&.c.c._ _ T D G 6 p d b  .,.` 1 < c c.c.w c.c.c.c.c.c.c.c.c.c.",
"c.c.c.c.n ; ; w c.c.c.c.c.c.c.c.c.c.c.] ] [ $.c.c.c.2.c.c.c.c.c.<.$.e.a.| | U 6 6 6 U d d d n d u 1 w c.c.c.c.c.c.c.c.c.c.c.c.c.",
"c.c.c.c.r ; , , a c.c.c.c.c.c.c.c.c.q.] $.$.c.c.c.r.<.c.c.c.c.c.<.%.<.5.$.$.d 5 6 6 6 U T d p s u 5 5 ..c.c.c.c.c.c.c.c.c.c.c.c.",
"c.c.c.c.8 , 1 5 5 d c.c.c.c.c.c.c.c.<.| %.=.c.c.c.q.9.c.c.c.c.d.<.<.=.=.=.%.p 5 3 3 6 6 6 6 p G G 5 5 c c.c.c.c.c.c.c.c.c.c.c.c.",
"c.c.c.c.w < 5 G 5 u ' c.c.c.c.c.c.c.=.%.9.c.c.c.u.0.0.j.c.c.c.i.0.9.=.=.%._ p u 3 3 3 3 6 6 6 6 G p u u @.c.c.c.c.c.c.c.c.c.c.c.",
"c.c.c.c.a < 1 G p p ` c.c.c.c.c.c.c.=.<.c.c.c.c.r.w.w.g.c.c.c.i.w.9._ ( T d d 5 3 3 3 3 3 3 3 6 6 6 u 5 N c.c.c.c.c.c.c.c.c.c.c.",
"c.c.c.c.c.c 1 u p d ` c.c.c.&.c.c.c.<.c.c.c.c.i.w.u.u.i.c.c.l.u.u.=._ ( T U 6 2 3 3 3 3 3 3 3 3 6 6 p u u c.c.c.c.c.c.c.c.c.c.c.",
"c.c.c.c.c.c.B u p d ] c.c.c.&.c.c.c.2.c.c.c.c.u.u.u.u.s.l.c.l.i.i.=.] ] G 4 4 4 4 4 3 3 3 3 4 3 6 6 6 p 5 ..c.c.c.c.c.c.c.c.c.c.",
"c.c.c.c.c.c.c.X.d d c.c.c.2.$.c.c.c.c.c.c.c.i.u.u.=.y.s.h.x.l.s.i.<.#.[ G 4 4 4 4 4 4 3 3 3 3 3 5 6 6 p u a c.c.c.c.c.c.c.c.c.c.",
"c.c.c.c.c.c.c.c.*.d c.c.c.&.$.e.c.c.c.c.c.j.u.i.q.X.q.s.s.z.k.s.s.<.=.| G D D D D 4 4 4 4 3 3 3 5 5 6 6 u u @.c.c.c.c.c.c.c.c.c.",
"c.c.c.c.c.c.c.c.c...c.c.c.#.$.<.c.c.c.c.c.i.u.u.#.#.=.y.s.f.f.s.s.9.<.%.H F D D D D 4 4 4 4 3 3 3 5 6 6 u 5 O.c.x c.c.c.c.c.c.c.",
"c.c.c.c.c.c.c.c.c.c.c.c.c.| $.%.r.c.c.c.g.w.u.9.X.%.=.q.s.s.s.s.y.q.9.%.J F H H D D D D D 4 4 4 3 6 6 6 u 5 S 6.Z c.c.c.c.c.c.c.",
"c.c.c.c.c.c.c.c.c.c.c.c.2.| $.$.2.c.c.c.r.u.0.#.#.=.=.9.q.y.s.i.y.r.q.Q L K H H H H H D D 4 6 5 6 5 6 5 u 5 b S c c.c.c.c.c.c.c.",
"c.c.c.c.N c.c.c.c.c.c.c.2.] $.$.%.q.c.y.0.w.=.X.$.W { =.q.q.u.u.r.0.Q P L L L H H H H G G p p u i 6 5 6 5 u w , y c.c.c.c.c.c.c.",
"c.c.c.c.N c.c.c.c.c.c.c.&.] [ _ #.=.e.q.0.=.] [ { L L E Q -.-.-./ E P P I I L L L H H U d d p d d d p u 5 5 , , r c.c.c.c.c.c.c.",
"c.c.c.c.r c.c.c.c.c.c.c.+.] ] u ( #.=.=.=.[ _ [ W L I I I ! ! ! ! ! I I I I L L L H Y ( d T ( ( ( X.b u 5 6 1 , r c.c.c.c.c.c.c.",
"c.c.c..., B c.c.c.c.c.c.O.( _ 6 5 p T ( ( ( _ W L I I I ! ! ! ! ~ ~ ~ ~ ~ I I I L R T T T ( ( ` c.c.c.u 1 5 < ; r c.c.c.c.c.c.c.",
"c.c.c.n ; c c.c. .c.c.c.,.( _ p 5 u u p T U Y L L I I I ! ! ~ ^ ^ ^ ~ ~ ~ I I I I Y T d T ( ( t.c.c.c.B 1 1 > ; c c.c.c.c.c.c.c.",
"c.c.c.0 ; , c.c.:.b c.c.*.d ( p 5 5 6 H F H K L L I I I ! ! ^ ^ ^ ^ ~ ~ ~ I I P L Y d p d ( T 8.c.c.c.c.< , ; ; c.c.c.c.c.c.c.c.",
"c.c.c.> & ; i 1.;.1 N c.6.d T p 5 5 D F H H L L L I I I ! ! ~ ~ ^ ~ ~ ~ ! I I L I L p u u p d b c.c.c.c.1 ; ; 0 c.c.c.c.c.c.c.c.",
"c.c.p O O ; ; r y 1 1 O.p.b d U 6 6 6 D D H H L L L L I I ! ! ! ! ! ~ I I I I I L J J 5 5 u u u >.c.c.c.q ; # v c.c.c.c.c.c.c.c.",
"c.c.w o ; 4 2 , < 1 1 5 b d a p 6 5 6 D D H H H L L I L I I I I I I I I I L L L L J J 5 5 6 i 5 a c.c.c.; O w c.c.c.c.c.c.c.c.c.",
"c.c.w o O J K D G F 6 1 5 1 u 5 G 6 6 D D H H H J L L L I L I I I I I I I L L L J G J D 6 6 5 1 1 6.c.B # ; c.c.c.c.c.c.c.c.c.c.",
"c.c.w o O F P K L H K G 6 6 6 G G 6 4 D D D D H H J J L L L L K L I L L L L J J J H D G 6 G 6 ; ; 3.c.C O B c.c.c.c.c.c.c.c.c.c.",
"c.c.c.X o 2 P P F L K H J H J G 4 4 4 4 D D D D H H H J H L L L J L L J J J H H G D D D 6 G 4 ; ; 3.c.0 C c.c.c.c.c.c.c.c.c.c.c.",
"c.c.c.$ o # K P K K L H J J J G G 4 4 4 4 D D D D G D H H H H H J J J J G J D H D D 4 D G G 6 & # 7.8.m c.c.c.c.c.c.c.c.c.c.c.c.",
"c.c.c.i . X : K I K L L J G 6 G J J D 4 4 4 D D D D D D H D D H G H D D D D D D D D 4 G G J < O % 6.c.c.c.c.c.c.c.c.c.c.c.c.c.c.",
"c.c.c.c.q . X 3 K P P F : # O ; 2 H K G G G H G G G G G G D D D D D D D D D D 4 4 4 4 G H H ; o 7 c.c.c.c.c.c.c.c.c.c.c.c.c.c.c.",
"c.c.c.c.c.* X X ; J P 2 o # 7 O # 4 K H J F 5 3 3 6 G D G 4 4 4 D 4 4 D 4 4 4 4 3 4 D H H 3 o o A c.c.c.c.c.c.c.c.c.c.c.c.c.c.c.",
"c.c.c.c.c.c.l @   o : @ X f c.% o ; H L G : # O # ; 5 H H G D G D D 4 4 3 4 3 3 3 D H L D O X = c.c.c.c.c.c.c.c.c.c.c.c.c.c.c.c.",
"c.c.c.c.c.c.c.c.* o X . X g c.e o o 3 H ; O % S # O < H J J H J H J H F 3 3 3 3 D L K F # X $ c.c.c.c.c.c.c.c.c.c.c.c.c.c.c.c.c.",
"c.c.c.c.c.c.c.c.c.l X X . e c.c.* X o # o @ w c.% o : L K J 4 : 2 D L L F 3 4 F L K F O . @ A c.c.c.c.c.c.c.c.c.c.c.c.c.c.c.c.c.",
"c.c.c.c.c.c.c.c.c.c.* . . % c.c.c.* . X X = c.c.@ X < K D O o X X o 3 K K F H P P 4 o . $ A c.c.c.c.c.c.c.c.c.c.c.c.c.c.c.c.c.c.",
"c.c.c.c.c.c.c.c.c.c.c.* . + c.c.c.c.e X   q c.c.X X : : X X = V X . : P P P P K 2 o . * c.c.c.c.c.c.c.c.c.c.c.c.c.c.c.c.c.c.c.c.",
"c.c.c.c.c.c.c.c.c.c.c.c.* . % c.c.c.c.c.f c.c.c.+ . . . @ 9 c.v X . 4 P P P F ; X X 9 c.c.c.c.c.c.c.c.c.c.c.c.c.c.c.c.c.c.c.c.c.",
"c.c.c.c.c.c.c.c.c.c.c.c.c.e X w c.c.c.c.c.c.c.c.- $ = l c.c.c.@ . o J P K : o   $ M c.c.c.c.c.c.c.c.c.c.c.c.c.c.c.c.c.c.c.c.c.c.",
"c.c.c.c.c.c.c.c.c.c.c.c.c.c.c.- c.c.c.c.c.c.c.c.c.c.c.c.c.c.c.+ . : F < o   @ 9 c.c.c.c.c.c.c.c.c.c.c.c.c.c.c.c.c.c.c.c.c.c.c.c.",
"c.c.c.c.c.c.c.c.c.c.c.c.c.c.c.c.c.c.c.c.c.c.c.c.c.c.c.c.c.c.@ . . O o . + e c.c.c.c.c.c.c.c.c.c.c.c.c.c.c.c.c.c.c.c.c.c.c.c.c.c.",
"c.c.c.c.c.c.c.c.c.c.c.c.c.c.c.c.c.c.c.c.c.c.c.c.c.c.c.c.c.q . X . . $ j c.c.c.c.c.c.c.c.c.c.c.c.c.c.c.c.c.c.c.c.c.c.c.c.c.c.c.c.",
"c.c.c.c.c.c.c.c.c.c.c.c.c.c.c.c.c.c.c.c.c.c.c.c.c.c.c.c.s . . + * M c.c.c.c.c.c.c.c.c.c.c.c.c.c.c.c.c.c.c.c.c.c.c.c.c.c.c.c.c.c.",
"c.c.c.c.c.c.c.c.c.c.c.c.c.c.c.c.c.c.c.c.c.c.c.c.c.c.c.c.= f M c.c.c.c.c.c.c.c.c.c.c.c.c.c.c.c.c.c.c.c.c.c.c.c.c.c.c.c.c.c.c.c.c.",
"c.c.c.c.c.c.c.c.c.c.c.c.c.c.c.c.c.c.c.c.c.c.c.c.c.c.c.c.c.c.c.c.c.c.c.c.c.c.c.c.c.c.c.c.c.c.c.c.c.c.c.c.c.c.c.c.c.c.c.c.c.c.c.c.",
"c.c.c.c.c.c.c.c.c.c.c.c.c.c.c.c.c.c.c.c.c.c.c.c.c.c.c.c.c.c.c.c.c.c.c.c.c.c.c.c.c.c.c.c.c.c.c.c.c.c.c.c.c.c.c.c.c.c.c.c.c.c.c.c."
};
