/* XPM */
static char *result[] = {
/* columns rows colors chars-per-pixel */
"64 64 155 2 ",
"   c #E78A3B",
".  c #E88B3B",
"X  c #EA933D",
"o  c #EB9B3F",
"O  c #EDA13F",
"+  c #E88E42",
"@  c #E99244",
"#  c #EC9C42",
"$  c #E9944C",
"%  c #EC9D4C",
"&  c #E99752",
"*  c #EA9954",
"=  c #EA9D5B",
"-  c #EEA343",
";  c #EEA942",
":  c #EFAB4E",
">  c #F0AB45",
",  c #F1AC4A",
"<  c #F3B544",
"1  c #F4BB45",
"2  c #F3B44D",
"3  c #F5BC4B",
"4  c #ECA250",
"5  c #ECA258",
"6  c #EFAE58",
"7  c #F3B552",
"8  c #F4BB54",
"9  c #F2B55E",
"0  c #F5BD5A",
"q  c #EBA263",
"w  c #EDAB62",
"e  c #ECA569",
"r  c #ECA96E",
"t  c #EFB164",
"y  c #F1B563",
"u  c #F3BC62",
"i  c #F1B76F",
"p  c #F2BB69",
"a  c #EDAB74",
"s  c #EEAE79",
"d  c #EEB274",
"f  c #EEB17B",
"g  c #EFB979",
"h  c #F0B576",
"j  c #F1BD7C",
"k  c #F5C346",
"l  c #F6CA47",
"z  c #F6C34A",
"x  c #F7CB49",
"c  c #F8CE49",
"v  c #F7D34A",
"b  c #F8D34B",
"n  c #F7DC4B",
"m  c #F9DB4C",
"M  c #F6C353",
"N  c #F7CB52",
"B  c #F8CE52",
"V  c #F5C25D",
"C  c #F7CB59",
"Z  c #F7D453",
"A  c #F8D352",
"S  c #F7DD52",
"D  c #F9DA55",
"F  c #F7D15F",
"G  c #F8D759",
"H  c #F8DE5B",
"J  c #FAE24F",
"K  c #FAE551",
"L  c #FAE952",
"P  c #F6C463",
"I  c #F7C965",
"U  c #F8CF63",
"Y  c #F7CC6B",
"T  c #F8CE6D",
"R  c #F8D264",
"E  c #F8DE67",
"W  c #F8D16D",
"Q  c #F8DC6A",
"!  c #F3C476",
"~  c #F7CD73",
"^  c #F3C37D",
"/  c #F6CF7A",
"(  c #F7D374",
")  c #F8D472",
"_  c #F9DA75",
"`  c #F7D37D",
"'  c #F9D67A",
"]  c #F9DC7C",
"[  c #F9E373",
"{  c #FAE37E",
"}  c #EEB482",
"|  c #EDBA81",
" . c #EFB788",
".. c #EFB98C",
"X. c #F0B685",
"o. c #F0BC8C",
"O. c #F0BE94",
"+. c #F2C284",
"@. c #F5CF84",
"#. c #F2C38C",
"$. c #F5CE8D",
"%. c #F7D685",
"&. c #F7DC87",
"*. c #F8DC83",
"=. c #F6D28A",
"-. c #F8DD8C",
";. c #F4CE95",
":. c #F2C59B",
">. c #F4CD9A",
",. c #F7D192",
"<. c #F7D995",
"1. c #F8DD95",
"2. c #F5D29E",
"3. c #F7DC9D",
"4. c #F8DF9D",
"5. c #FAE483",
"6. c #FAE985",
"7. c #F9E48A",
"8. c #FAEC8B",
"9. c #FBF08D",
"0. c #F9E190",
"q. c #FAED93",
"w. c #F9E69B",
"e. c #F9EE9A",
"r. c #FBF293",
"t. c #FCF69C",
"y. c #F2C6A1",
"u. c #F3C9A1",
"i. c #F3CDAC",
"p. c #F6D6A6",
"a. c #F5D6AA",
"s. c #F7DCAE",
"d. c #F5D6B4",
"f. c #F6DFB8",
"g. c #F8E3A3",
"h. c #F9EEA2",
"j. c #F8E1AB",
"k. c #FAF5A4",
"l. c #FAF5AC",
"z. c #F6E0B4",
"x. c #F9E3B4",
"c. c #F9EDB4",
"v. c #F7E2BB",
"b. c #F9E7BC",
"n. c #F9ECBD",
"m. c #FAF5B4",
"M. c #FAF2BB",
"N. c #F9E5C5",
"B. c #FAECC4",
"V. c #FAF5C9",
"C. c #FDF7D6",
"Z. c #FBF8D6",
"A. c #FAF8D8",
"S. c #FDFDF3",
"D. c None",
/* pixels */
"D.D.D.D.D.D.D.D.D.D.D.D.D.D.D.D.D.D.D.D.D.D.D.D.D.D.D.D.D.D.D.D.D.D.D.D.D.D.D.D.D.D.D.D.D.D.D.D.D.D.D.D.D.D.D.D.D.D.D.D.D.D.D.D.",
"D.D.D.D.D.D.D.D.D.D.D.D.D.D.D.D.D.D.D.D.D.D.D.D.D.D.D.D.D.D.D.D.D.D.D.D.D.D.D.D.D.D.D.D.D.D.D.D.D.D.D.D.D.D.D.D.D.D.D.D.D.D.D.D.",
"D.D.D.D.D.D.D.D.D.D.D.D.D.D.D.D.D.D.D.D.D.D.D.D.D.O.D.D.D.D.D.D.D.D.D.D.D.D.D.D.D.D.D.D.D.D.D.D.D.D.D.D.D.D.D.D.D.D.D.D.D.D.D.D.",
"D.D.D.D.D.D.D.D.D.D.D.D.D.D.D.D.D.D.D.D.D.D.D.D.D.= D.D.D.D.D.D.D.D.D.D.D.D.D.D.D.D.D.D.D.D.D.D.D.D.D.D.D.D.D.D.D.D.D.D.D.D.D.D.",
"D.D.D.D.D.D.D.D.D.D.D.D.D.D.D.D.D.D.D.D.D.D.D.D.D.+ O.D.D.D.D.D.D.D.D.D.D.D.D.D.D.D.D.D.D.D.D.D.D.D.D.D.D.D.D.D.D.D.D.D.D.D.D.D.",
"D.D.D.D.D.D.D.D.D.D.D.D.D.D.D.D.D.D.D.D.D.D.D.D.:.. * D.D.D.D.D.D.D.D.D.D.D.D.D.D.D.D.D.D.D.D.D.D.D.D.D.D.D.D.D.D.D.D.D.D.D.D.D.",
"D.D.D.D.D.D.D.D.D.D.D.D.D.D.D.D.D.D.D.D.D.D.D.D.= . . i.D.D.D.D.D.D.D.D.D.D.D.D.D.D.D.D.D.D.D.D.D.D.D.D.D.D.D.D.D.D.D.D.D.D.D.D.",
"D.D.D.D.D.D.D.D.D.D.D.D.D.D.D.D.D.D.D.D.D.D.D.D.. . . } D.D.D.D.D.D.D.D.D.D.D.D.D.D.D.D.D.D.D.D.D.D.D.D.D.D.D.D.D.D.D.D.D.D.D.D.",
"D.D.D.D.D.D.D.D.D.D.D.D.D.D.D.D.D.D.D.D.D.D.D.r . . . e D.D.D.D.D.D.D.D.D.D.D.D.D.D.D.D.D.D.D.D.D.D.D.D.D.D.D.D.D.D.D.D.D.D.D.D.",
"D.D.D.D.D.D.D.D.D.D.D.D.D.D.D.D.D.D.D.D.D.D.D.@ . . . q D.D.D.D.D.D.D.D.D.D.D.D.D.D.D.D.D.D.D.D.D.D.D.D.D.D.D.D.D.D.D.D.D.D.D.D.",
"D.D.D.D.D.D.D.D.D.D.D.D.D.D.D.D.D.D.D.D.D.D.u.. . X X d D.D.D.D.D.D.D.D.D.D.D.D.D.D.D.D.D.D.D.D.D.D.D.D.D.D.D.D.D.D.D.D.D.D.D.D.",
"D.D.D.D.D.D.D.D.D.D.D.D.D.D.D.D.D.D.D.D.D.D.o.X X X X u.D.D.:.d.D.D.D.D.D.D.D.D.D.D.D.D.D.D.D.D.D.D.D.D.D.D.D.D.D.D.D.D.D.D.D.D.",
"D.D.D.D.D.D.D.D.D.D.D.D.D.D.D.D.D.D.D.D.D.D.| X # o 4 D.D.D.t D.D.D.D.D.D.D.D.D.D.D.D.D.D.D.D.D.D.D.D.D.D.D.D.D.D.D.D.D.D.D.D.D.",
"D.D.D.D.D.D.D.D.D.D.D.D.D.D.D.D.D.D.D.D.D.D.| # # # #.D.D.| y D.D.D.D.D.D.D.D.D.D.D.D.D.D.D.D.D.D.D.D.D.D.D.D.D.D.D.D.D.D.D.D.D.",
"D.D.D.D.D.D.D.D.D.D.D.D.D.D.D.D.D.D.D.D.D.D.#.- - 9 D.D.D., +.D.D.D.D.D.D.D.D.D.D.D.D.D.D.D.D.D.D.D.D.D.D.D.D.D.D.D.D.D.D.D.D.D.",
"D.D.D.D.D.D.D.D.D.D.D.D.D.D.D.D.D.D.D.D.D.D.>.> , 2.D.D.^ , 2.D.D.D.D.D.D.D.D.D.D.D.D.D.D.D.D.D.D.D.D.D.D.D.D.D.D.D.D.D.D.D.D.D.",
"D.D.D.D.D.D.D.D.D.D.D.D.D.D.D.D.D.D.D.D.D.D.s., p D.D.N.7 7 a.D.D.D.D.D.D.D.D.D.D.D.D.D.D.D.D.D.D.D.D.D.D.D.D.D.D.D.D.D.D.D.D.D.",
"D.D.D.D.D.D.D.D.D.D.D.D.D.D.D.D.D.D.D.D.D.D.D.7 a.D.D.$.7 0 f.D.D.D.D.D.D.D.D.$.D.D.D.D.D.D.D.D.D.D.D.D.D.D.D.D.D.D.D.D.D.D.D.D.",
"D.D.D.D.D.D.D.D.D.D.D.D.D.D.D.D.D.D.D.D.D.D.D.! D.D.D.P 0 0 v.D.D.D.D.D.D.D.N.u D.D.D.D.D.D.D.D.D.D.D.D.D.D.D.D.D.D.D.D.D.D.D.D.",
"D.D.D.D.D.D.D.D.D.D.D.D.D.D.D.D.D.D.D.D.D.D.D.D.D.D.3.P I I f.D.D.D.D.D.D.D.=.P D.D.D.D.D.D.D.D.D.D.D.D.D.D.D.D.D.D.D.D.D.D.D.D.",
"D.D.D.D.D.D.D.D.D.D.D.D.D.D.D.D.D.D.D.D.D.D.D.D.D.D./ I T T j.D.D.D.D.D.D.D.T Y D.D.D.D.D.D.D.D.D.D.D.D.D.D.D.D.D.D.D.D.D.D.D.D.",
"D.D.D.D.D.D.D.D.D.D.D.D.D.D.D.D.D.D.D.D.D.D.D.D.D.b.T ) W W 3.D.D.D.D.D.D.g.T T x.D.D.D.D.D.D.D.D.D.D.D.D.D.D.D.D.D.D.D.D.D.D.D.",
"D.D.D.D.D.D.D.D.D.D.D.D.D.D.D.D.D.D.D.D.D.D.D.D.D.1.) ) ) _ -.D.D.D.D.D.D.-.) ) w.D.D.D.D.D.D.D.D.D.D.D.D.D.D.D.D.D.D.D.D.D.D.D.",
"D.D.D.D.D.D.D.D.D.D.D.D.D.D.D.D.D.D.D.D.D.D.D.D.D.*._ Q E { 5.D.D.D.D.D.D.*._ ' -.D.D.D.D.D.D.D.D.D.D.D.D.D.D.D.D.D.D.D.D.D.D.D.",
"D.D.D.D.D.D.D.D.D.D.D.D.D.D.D.D.D.D.D.D.D.D.D.D.n.] ] H K 7.7.B.D.D.D.D.D.5.] { ] b.D.D.D.D.D.D.D.D.D.D.D.D.D.D.D.D.D.D.D.D.D.D.",
"D.D.D.D.D.D.D.D.D.D.D.D.D.D.D.D.D.D.D.D.D.D.D.D.w.5.5.S J { 8.h.D.D.D.D.M.8.7.{ { 5.n.D.D.D.D.D.D.D.D.D.D.D.D.D.D.D.D.D.D.D.D.D.",
"D.D.D.D.D.D.D.D.D.D.D.D.D.D.D.D.D.D.D.D.D.D.D.D.8.7.[ m v [ r.t.C.D.D.D.m.9.6.H [ 7.5.D.D.D.D.D.D.D.D.D.D.D.D.D.D.D.D.D.D.D.D.D.",
"D.D.D.D.D.D.D.D.D.D.D.D.D.D.D.D.D.D.D.D.D.D.D.V.7.8.E v v D r.t.m.D.D.D.l.r.6.D D { 5.w.D.D.D.D.D.D.D.D.D.D.D.D.D.D.D.D.D.D.D.D.",
"D.D.D.D.D.D.D.D.D.D.D.D.D.D.D.D.3.j.D.D.D.D.D.c.8.8.G x x x { k.k.Z.D.D.m.t.9.A c E 7.{ B.D.D.D.D.D.j.D.D.D.D.D.D.D.D.D.D.D.D.D.",
"D.D.D.D.D.D.D.D.D.D.D.D.D.D.D.D.%.` D.D.D.D.D.h.8.8.A z x z C r.k.m.S.D.m.k.8.A x B { 7.w.D.D.D.D.3.` D.D.D.D.D.D.D.D.D.D.D.D.D.",
"D.D.D.D.D.D.D.D.D.D.D.D.D.D.D.D.( ) x.D.D.D.D.q.r.5.z z z 3 3 ) k.k.V.S.m.k.r.N z x [ 7.5.D.D.D.D.%.Y D.D.D.D.D.D.D.D.D.D.D.D.D.",
"D.D.D.D.D.D.D.D.D.D.D.D.D.D.D.b.) ) ] D.D.D.D.q.r.[ z 3 3 3 3 3 7.l.l.C.M.k.q.N k z F 5.{ n.D.D.D.` Y s.D.D.D.D.D.D.D.D.D.D.D.D.",
"D.D.D.D.D.D.D.D.D.D.D.D.D.D.D.<.T ) ' 7.D.D.C.8.9.) 2 3 1 < 2 3 V e.l.l.l.k.r.M 3 3 M { { g.D.D.D.) I =.D.D.D.D.D.D.D.D.D.D.D.D.",
"D.D.D.D.D.D.D.D.D.D.D.D.D.D.D.~ T W W _ &.c.c.6.8.I 2 3 1 1 3 7 7 Y e.k.k.t.] 8 2 3 M _ *.7.D.D.D.~ Y ~ D.D.D.D.D.D.D.D.D.D.D.D.",
"D.D.D.D.D.D.D.D.D.D.D.D.D.D.x.I Y C M W _ ] 5.7.5.V 7 7 z k k M 0 V Y ' ' T 0 2 2 2 3 W ] &.D.D.D.T I P D.D.D.D.D.D.D.D.D.D.D.D.",
"D.D.D.D.D.D.D.D.D.D.D.D.D.D.@.P I z z 3 M V I P 0 7 8 M z l l z M V V V V 0 8 8 3 7 2 T ] ] D.D.3.I P u x.D.D.D.D.D.D.D.D.D.D.D.",
"D.D.D.D.D.D.D.D.D.D.D.D.D.D.P P V z 3 3 2 2 2 7 8 V z c c c c c c x x N N z z k 3 8 7 Y ' ' D.N.T I P 0 p.D.D.D.D.D.D.D.D.D.D.D.",
"D.D.D.D.D.D.D.D.D.D.D.D.D.$.0 V z 3 3 3 k 3 z x x c c b b b b b b c b b x l l l M 0 8 Y ' ) 3.~ I u 0 8 ,.D.D.D.D.D.D.D.D.D.D.D.",
"D.D.D.D.D.D.D.D.D.D.D.D.D.u 8 V z 3 1 k l l x x c c b m m m m m m m b b b c c z M 0 0 P T T I I V M 0 8 ,.D.D.D.D.D.D.D.D.D.D.D.",
"D.D.D.D.D.D.D.D.D.D.D.D.;.7 7 3 3 3 1 l z l x b b m b m m m m J m m m b b b c c x V 0 8 8 0 0 8 3 3 8 8 ,.D.D.D.D.D.D.D.D.D.D.D.",
"D.D.D.D.D.D.D.D.D.D.D.D.9 , 7 z z 3 k l x x c b m m m m J J K J S m m m b b b b x x M 8 8 2 2 3 3 3 7 2 2.D.D.D.D.D.D.D.D.D.D.D.",
"D.D.D.D.D.D.D.D.D.D.D.2., , 3 z z 1 1 l l x b b b m m J K J L K K J J m b D R R I M M 3 3 < 3 3 3 3 6 2 D.D.D.D.D.D.D.D.D.D.D.D.",
"D.D.D.D.D.D.D.D.D.D.D.9 > , z z 3 1 k l x c b b m m m J K L L L K K J S Q ' ) T Y P 0 8 3 < 2 3 3 7 , p D.D.D.j d.D.D.D.D.D.D.D.",
"D.D.D.D.D.D.D.D.D.D.D.- # 3 z z k k k l x c c b m m m J J K K L K K K _ ' ~ Y u 0 0 0 8 2 2 3 3 2 , , p.D.D.>.# D.D.D.D.D.D.D.D.",
"D.D.D.D.D.D.D.D.D.D.h o - 3 x l 1 k k k l x x b b m m m m K J J S D ) ) T u 0 0 7 7 7 7 2 2 3 2 , - j D.D.D.- o D.D.D.D.D.D.D.D.",
"D.D.D.D.D.D.D.D.D.D.% X > x x k 1 1 1 k l x x x b b m m m m m m D W T Y 0 7 7 $.p 7 2 2 2 2 2 , - i D.D.D.# # @ D.D.D.D.D.D.D.D.",
"D.D.D.D.D.D.D.D.D.u.. X 1 c c k 1 1 k k k 3 3 3 8 M x m m m m A I I P 7 2 7 p.D.y , , 2 3 , > # j D.D.h X X X @ D.D.D.D.D.D.D.D.",
"D.D.D.D.D.D.D.D.D.f . X l c c 1 k O 1 k 3 2 2 2 , 7 7 8 x b b M 0 0 7 , : u.D.D.y - , 2 > # # j d.o.4 X o X X @ D.D.D.D.D.D.D.D.",
"D.D.D.D.D.D.D.D.D.a . X l v l < < < k z 3 < - - - , 2 2 3 z z 7 7 2 : - #.D.D.D.| - - 2 - # # % # X X > k O   $ D.D.D.D.D.D.D.D.",
"D.D.D.D.D.D.D.D.D.r . X c n l < < < l l 2 # # # # # , 2 3 z 3 7 , - # y D.D.D.D.D.# # ; 1 ; - - > < l b x X . q D.D.D.D.D.D.D.D.",
"D.D.D.D.D.D.D.D.D.s . X l n v < < k x l ; X # d # o ; 3 3 3 3 3 , # # d.D.D.D.D.D.w X # z l l l c v b n 1 . . O.D.D.D.D.D.D.D.D.",
"D.D.D.D.D.D.D.D.D.O.. . k n m k < l v l o . & D.r . X < z 3 z 1 # . 5 D.D.D.D.D.D.u.X   < x v x v b n c o . & D.D.D.D.D.D.D.D.D.",
"D.D.D.D.D.D.D.D.D.D.@ . O n n l 1 v v l X . r D.D.= . X > z z 3 X . h D.D.D.D.D.D.D.@ . ; v v v n n v O . X D.D.D.D.D.D.D.D.D.D.",
"D.D.D.D.D.D.D.D.D.D.} . . k J n l v n k . . X.D.D.D.e . . - 1 1 . . X.D.D.D.D.D.D.D.$ . o v n n v k o . + D.D.D.D.D.D.D.D.D.D.D.",
"D.D.D.D.D.D.D.D.D.D.D.&   X v n n n J k X . ..D.D.D.D.O.@ . . o . . r D.D.D.D.D.D.D.@   ; n x < O . . = D.D.D.D.D.D.D.D.D.D.D.D.",
"D.D.D.D.D.D.D.D.D.D.D.D.+   O v J n n l .   f D.D.D.D.D.D.X.@ . . . & D.D.D.D.D.D.D.. . O O X .   q D.D.D.D.D.D.D.D.D.D.D.D.D.D.",
"D.D.D.D.D.D.D.D.D.D.D.D.D.+ . - l n J v o   * D.D.D.D.D.D.D.D.s @ . + D.D.D.D.D.D.= . . . . =  .D.D.D.D.D.D.D.D.D.D.D.D.D.D.D.D.",
"D.D.D.D.D.D.D.D.D.D.D.D.D.D.+ . o k n n <     y.D.D.D.D.D.D.D.D.D.a . } D.D.D.D. .. @ q ..D.D.D.D.D.D.D.D.D.D.D.D.D.D.D.D.D.D.D.",
"D.D.D.D.D.D.D.D.D.D.D.D.D.D.D.= . . - l v o   * D.D.D.D.D.D.D.D.D.D.D.a D.D.D.D. .D.D.D.D.D.D.D.D.D.D.D.D.D.D.D.D.D.D.D.D.D.D.D.",
"D.D.D.D.D.D.D.D.D.D.D.D.D.D.D.D.O.& . . o o     e D.D.D.D.D.D.D.D.D.D.D.D.D.D.D.D.D.D.D.D.D.D.D.D.D.D.D.D.D.D.D.D.D.D.D.D.D.D.D.",
"D.D.D.D.D.D.D.D.D.D.D.D.D.D.D.D.D.D.:.q + . . . . a D.D.D.D.D.D.D.D.D.D.D.D.D.D.D.D.D.D.D.D.D.D.D.D.D.D.D.D.D.D.D.D.D.D.D.D.D.D.",
"D.D.D.D.D.D.D.D.D.D.D.D.D.D.D.D.D.D.D.D.D.:.s = $ @ a D.D.D.D.D.D.D.D.D.D.D.D.D.D.D.D.D.D.D.D.D.D.D.D.D.D.D.D.D.D.D.D.D.D.D.D.D.",
"D.D.D.D.D.D.D.D.D.D.D.D.D.D.D.D.D.D.D.D.D.D.D.D.D.D.D.D.D.D.D.D.D.D.D.D.D.D.D.D.D.D.D.D.D.D.D.D.D.D.D.D.D.D.D.D.D.D.D.D.D.D.D.D.",
"D.D.D.D.D.D.D.D.D.D.D.D.D.D.D.D.D.D.D.D.D.D.D.D.D.D.D.D.D.D.D.D.D.D.D.D.D.D.D.D.D.D.D.D.D.D.D.D.D.D.D.D.D.D.D.D.D.D.D.D.D.D.D.D."
};
