/* XPM */
static char *_41476bd7a3c4cedcb0a2bfbccd0a5b4fAROxUJJyVc8LNim[] = {
/* columns rows colors chars-per-pixel */
"64 64 256 2 ",
"   c #070600",
".  c #150201",
"X  c #1B0200",
"o  c #180B05",
"O  c #14160D",
"+  c #240200",
"@  c #2C0100",
"#  c #260C06",
"$  c #370601",
"%  c #291106",
"&  c #351306",
"*  c #261713",
"=  c #361815",
"-  c #312317",
";  c #1C2419",
":  c #4E1107",
">  c #661402",
",  c #512917",
"<  c #6D2B11",
"1  c #562B25",
"2  c #6F362E",
"3  c #754936",
"4  c #524B39",
"5  c #785846",
"6  c #793C43",
"7  c #A81606",
"8  c #B5160A",
"9  c #95330C",
"0  c #B43216",
"q  c #8B362D",
"w  c #B9322C",
"e  c #990600",
"r  c #C61705",
"t  c #D31A06",
"y  c #CC3111",
"u  c #EA3A06",
"i  c #F5390A",
"p  c #C83928",
"a  c #C73935",
"s  c #D63C35",
"d  c #D23628",
"f  c #E13D26",
"g  c #994119",
"h  c #AA4818",
"j  c #B64C15",
"k  c #B85415",
"l  c #874839",
"z  c #924B32",
"x  c #B94B26",
"c  c #B95627",
"v  c #BC5836",
"b  c #AB512F",
"n  c #B66735",
"m  c #98613A",
"M  c #C74A1C",
"N  c #D84619",
"B  c #C55A1A",
"V  c #D85819",
"C  c #DA4708",
"Z  c #FD440A",
"A  c #E94617",
"S  c #F74916",
"D  c #E95819",
"F  c #EB5411",
"G  c #CC6B1C",
"H  c #C84828",
"J  c #D84929",
"K  c #CB5C2A",
"L  c #C65829",
"P  c #D75828",
"I  c #C94838",
"U  c #D84938",
"Y  c #C95936",
"T  c #D75938",
"R  c #E74629",
"E  c #F74B29",
"W  c #E7582A",
"Q  c #F95627",
"!  c #E74C36",
"~  c #E95739",
"^  c #F75837",
"/  c #F54C35",
"(  c #CD632B",
")  c #CA6427",
"_  c #D4642B",
"`  c #DA662B",
"'  c #D36A2A",
"]  c #D86927",
"[  c #CA6736",
"{  c #D36533",
"}  c #D76937",
"|  c #DA7539",
" . c #D07830",
".. c #E6682A",
"X. c #E76638",
"o. c #F86839",
"O. c #E87438",
"+. c #F2702F",
"@. c #F36B1D",
"#. c #A33B44",
"$. c #CC3E47",
"%. c #8B5847",
"&. c #985848",
"*. c #895C56",
"=. c #945148",
"-. c #A7594A",
";. c #B2584D",
":. c #996557",
">. c #926353",
",. c #B86648",
"<. c #A96858",
"1. c #B76858",
"2. c #A8725B",
"3. c #B46E53",
"4. c #A76B66",
"5. c #B76A63",
"6. c #A97666",
"7. c #B87768",
"8. c #BB7A73",
"9. c #9A7669",
"0. c #D94843",
"q. c #C85845",
"w. c #D75A46",
"e. c #CA5A55",
"r. c #D85B54",
"t. c #C74A49",
"y. c #E85946",
"u. c #F85B46",
"i. c #EB5753",
"p. c #C96947",
"a. c #D86749",
"s. c #CA7349",
"d. c #D87647",
"f. c #CA6956",
"g. c #D86956",
"h. c #CA7558",
"j. c #D77758",
"k. c #E76848",
"l. c #F96748",
"z. c #E67648",
"x. c #F67747",
"c. c #E56957",
"v. c #FA6957",
"b. c #E87658",
"n. c #F77658",
"m. c #E55C63",
"M. c #DB6B65",
"N. c #C87869",
"B. c #D67867",
"V. c #CD7871",
"C. c #E96B66",
"Z. c #FB6C65",
"A. c #E97765",
"S. c #FE7D64",
"D. c #FF7469",
"F. c #FE7A6D",
"G. c #F67866",
"H. c #FE7C74",
"J. c #F47975",
"K. c #EA7977",
"L. c #D48737",
"P. c #E98C3A",
"I. c #B88775",
"U. c #B28773",
"Y. c #DA8846",
"T. c #D6974B",
"R. c #D88659",
"E. c #D99757",
"W. c #CD8E48",
"Q. c #E7874B",
"!. c #F8864A",
"~. c #E99848",
"^. c #E98757",
"/. c #F8875A",
"(. c #E79857",
"). c #FA9757",
"_. c #F49549",
"`. c #E8A257",
"'. c #F9AB55",
"]. c #C88568",
"[. c #D98666",
"{. c #DA9565",
"}. c #C78877",
"|. c #D98979",
" X c #C9937B",
".X c #DB9579",
"XX c #E68868",
"oX c #FD8364",
"OX c #F3826B",
"+X c #FD836B",
"@X c #FE8B6C",
"#X c #F88966",
"$X c #E99668",
"%X c #FB9669",
"&X c #E98A78",
"*X c #FE8472",
"=X c #FE8C73",
"-X c #FD8B7B",
";X c #F98678",
":X c #E79676",
">X c #FD9274",
",X c #FE937C",
"<X c #FE9B7B",
"1X c #F89A76",
"2X c #E5A369",
"3X c #FAA666",
"4X c #FDB56B",
"5X c #EAA978",
"6X c #FBA679",
"7X c #FDB777",
"8X c #EBB172",
"9X c #DAA165",
"0X c #FFC379",
"qX c #CE7E85",
"wX c #F67F87",
"eX c #D78A86",
"rX c #DA988A",
"tX c #DD9993",
"yX c #CB8E85",
"uX c #E58A85",
"iX c #FB8A87",
"pX c #E89889",
"aX c #FE9483",
"sX c #FE9B84",
"dX c #FE9C8C",
"fX c #F9958B",
"gX c #E89A94",
"hX c #FC9A96",
"jX c #DAA58F",
"kX c #EAA988",
"lX c #FEA385",
"zX c #FFAA8B",
"xX c #FBA689",
"cX c #FCB588",
"vX c #E7A796",
"bX c #FEAB95",
"nX c #FEAC9B",
"mX c #FAA598",
"MX c #FCB699",
"NX c #E8B68A",
"BX c #FE99A5",
"VX c #FCA9A4",
"CX c #FEB3A4",
"ZX c #FFB3AC",
"AX c #FBBAA6",
"SX c #FFB9B6",
"DX c #F9ADAB",
"FX c #DAA5A1",
"GX c #FFC799",
"HX c #FFC487",
"JX c #FDC5A8",
"KX c #FFC5B6",
"LX c #FFD2AD",
"PX c #FFE0B8",
"IX c #FFCCC5",
"UX c #FFE0D4",
/* pixels */
"f f x.).xXHXL.Y.1Xs. .Q.lXu.E u.n.<X1XXXc.+X*X*Xw.D.i.Z.iXB.uXCXkX[.&X>X@XI k.<Xn.<XNXjX[.g.|.KXOX>X;XK.JX[.Q.Q.'.E.5X3.G.~ [ Y.",
"t f x.} R.{. .3X6Xj.| L.1Xk.E ^ v.sX6X1Xk.G.OXaXw.F.m.Z.fXeXfXZXrX:XsXG.=Xb.OX<XS.1XNXNX&XM.&XJXb.#XA.[.KX:X/.Q.4X9X8X:XD.y.{ Y.",
"y d O. .W.5XL.'.6X^.W.L.%Xl.E / k.sXzXlXr.v.OXnXM.K.Z.wXgX=.q 4.6.NXCX&XOXY p.OX=X>XNXNXXXg.&XMX#X=XC.&XKX:XQ.| 4XT.8XMXD.y.( | ",
"R J d. .2XGXT.'.6X$X~.~.3Xl.Q ^ l.,XzXzXc.C.,XKXfXiXwXM.=.$ @ : : 3 -.,.&Xq.f.bXsXOXNXNXg.g.aXAX@X,XA.uXJX:X| ' 0XL.8XLXD.l.[ Y.",
"! J [ n E.HXT.`.2X`.'.~.3XO.Q ^ k.,XlXzXA.J.hXIXgXgX;.: @ # # @ X + $ : }.[.|.AXdX<XGXGXb.w.=XMXc.@XA.fXAX:XQ._.HXT.5XLXF.v.} ).",
"p H Y.W.9XNXL.`.2XT.T.T.3Xo.Q o.n.sXxXmXJ.iXBXSXtX2 : @ # * o = - - @ + 2 -.N.xX;X,XMXcXG.~ j.>X} oXC.hXAX1Xz.3X0XW.{.zXF.v.z.`.",
"0 a ^.9XGXJXW.T.cXR.L.L.4Xk.Q Q S.nXnXbXK.hXFXDX*.+ + = - O   * O * = X $ , 2.CX;X-XkX5XoXy.a./.} @XC.mXAX:Xd.).4XW.{.R.Z.~ { (.",
"t.x R.].AXPX9X9XJXR.n Y.7Xx.W ~ *XAXAXVXK.hXBXFX= + = X   ; O O *   # = & X 3 rXaXfX{.$X+Xl.z.%XT F.M.mXAXlX| ).0XW.{.p.F.y.} Q.",
"m.t.h.kXAXJXcX{..X{.7XW.R.oXl.^ =XCXnXCXK.hXtX*.* o * * O O O . * O o # % + 1 vXmXA.[.{.S.u.>XGXx.>XiX&XAX:X).).0X9X5X6X;Xy.z.Q.",
"m.;.B.kXjXAX5XE.pXpXGX2X$XOX~ ~ G.bXnXAXwXBXtX5 * * * o O ; * . O * * = # # 5 AXiXg.{.:XS.~ %XGX/.+XJ.fXKXj.d.!.0XE.5X6XH.! z.Q.",
"$.a [.pXFXKX9X].:X:XLX7XlXOXy.n.OXbXmXCXwXBXeX6 X o o     ; 1 , * - 1 * . . 3 DXdXJ.xXlX+X~ %XGXoXS.C.hXKXs.( ).4X`.8XlXF.J z._.",
"a w XX:XVXPX{.s.fX|.GX7XzXG.y.n.&XCXnXZXwXBXqX1 * # * - 4 5 :.:.:.5 *.2 # . 5 JXhXiXnXlX+X~ >XGXb.n.C.mXKXj.{ ).4X`.cXlXF.! a.Q.",
"0.s G.R.mXLXR.[ nXXXcX7XzXA.~ k.>XAXnXCXwXBXqX1 = X & 3 U.U.8.uXtX8.I.2., X 2 JXiXC.fXlX*Xy.%XcXk.S.C.mXAXXX} ).4X(.5X1XD.0.z.Q.",
"i.i.z.s.:XzXd.d.xX[.7X(.6XOX~ k.&XAXmXnXwXBXwX1 + . = 5 U.I.V.&X|.I.7.I.%.$ , MXwXC.xXbXaXy.j.^.} @XA.hXCXXX} ).3XW.{.XXD.! z.O.",
"/ ~ K [ [.XX| Q.1Xh.(.Y.%X#Xl.k.XXCXDXBXwXBXwX1 + , 6 6. XkXiX-X&XpX.XrXI.3 2 JXiXJ.nXbXaXy.h.j.a.@XC.hXnXXX{ ).4XT.$X[.Z.! O.| ",
"y J M } (.j.Q.(.1Xj.8XW.$X#X~ X.A.CXZXDXwXBXqX, + 1 :.7.I.pXfX;XuXnX|.].yXl 3 LX;XJ.mXdX-Xy.XX1Xk.*XC.VXnX[.{ 3X7X`.:XXXv.! d.| ",
"d 0 z.[ s.5XR.^.MX].GXcX$Xb.o.~ ;XSXSXZXiXBXqX2 @ 1 -.8.yXtXmXpXpXrXrX].}.&.l nXfX-XC.A.c.w.=XAXc.aXM.VXIXkX[ `.4XW.zXlXD.U n.O.",
"i.a g.s.R.xX[.B.kX7.MXkX6X/.l.l.;XZXCXCXwXBXBX;.$ q 5.qX}.yXgXfXgX|.}.I.rX7.z mXnXaXg.C.C.g.,XbXv.-XV.KXUXmXs.2X8XE.lXsXZ.U z.| ",
"v.0.w.XX6XcX6X[.xX}.AXNXzX#X^ l.OXVXmXZXwXBXBXeX: 2 5.V.U.yXrXeXrX|.rX}. XU.m bXnXdXG.;XG.c.,XbXv.G.V.SXIX:Xs.3X7XE.zXaXD.U x.Q.",
"0.0.w.<XcXcXzX[.xX XNX5XMX#XR ~ C.dXvXZXwXiXhXVX1 l 4.5.I.FXAXvXCXtXvX]. X].<.nXfXdXfXxXJ.a.;XnXD.H.V.VXmX:XR.7X0XE.1X@XD.~ x.O.",
"p a a.lXcX6X6XXXkXh.rX XzX#X! u.c.mXfXZXwXwXiXDXl =.-.=.%.U.tXAXAX7.&.3 2. X<.[.&XdXmXmXOXw.A.,Xc.H.M.eXeXV.R.`.7XT.R.c.Z.y.X._ ",
"a a A.lXMXcXsX[.xXN.NX.X6X#X~ u.F.VXfXmXJ.m.wXSXl l l 2 , , <.mXyX%.2 < m ].-.|.dXxXaXdX+Xa.a.a.U J.V.gXuXN.s.Q.7X(.g.y.Z.^ ` V ",
"$.a A.:XcXGX:XB.bX].JXkX&Xg.~ y.Z.bXfXfXC.m.qXZX=.=.&.&.3 2 <.vXpX:.:.&.2.I.7.mXsXdX,XsX+Xw.a.a.w.iXuXSXIX&Xs.7X4X(.d.k.D.^ W ] ",
"$.0 a.s.1XLX$Xp.:X3.MXkXj.[ ~ ^ y.dXfXhXZ.m.M.BX=.l &.U.U.>.6.pXvX&.%.>.7.I.3.|.1XbXlXsXG.Y a.n.0.J.N.SXIXB.c 7X3XY.b.y.v.! V V ",
"a w w v XX(.v c h.h.MX].p.Y d ! 0.g.g.A.r.m.M.fXq :.5.2 , 3 2.rXtX:.3 , l ].].[.[.A.a.b.w.x k.=Xp t.e.DXZX,.j Q.Y. .} y.u.y W ` ",
"s a Y q.d.j.Y v d.h.cX.X:Xb.! / T A.OXOXi.Z.K.V.=.&.5.q 3 >.U..XrX2.%.l 2. X].B.sXA.w.v.k.U b.oXy.Z.B.DXVXf.Y !.(.| a.w.v.f X...",
"s a q.a.s.| K a.^.s.cX:XzXoX~ / U +X-X-Xv.J.M.e.;.-.5.1.9.U.7.|.rX8.7.7. XrX].h.aXOXk.v.l.T n.,X~ H.M.mXiXA.} /.'.| w.y.v.! x.` ",
"0.I b.b.d.| ( } >Xs.lX$X6Xn.R ^ J oX>X,XZ.H.g.;.7.<.V.eXjX X7.V.gXyXrXtXvXvXN.h.OXOXv.n.k.H /.zX~ *XM.bX&XOX} ).).| k.v.Z.~ x.} ",
"v.0.n./.| } ` X.%Xd.6XXX#Xk.R E y./.OXlXF.D.e.1.5.;.V.mXjX X5.|.gXeXvXvXnXkXN.j.A.=X+X+Xl.H l.@Xl.*XA.SXhXG.P !.).} n.F.Z.s n.} ",
"i.d w.z._ ` ..x.x.a.6X$X/.z.R / k.G.@XlXF.Z.r.f.;.&.V.gXjX X1.eXgX}.tXvXvXrXN.g.OX-X=X,XS.W ~ ~ u.n.c.KXCXb.P !._.| oXiXZ.s n.' ",
"d 8 0.z.{ ` O.x.O.d.cX)./.x.R / X.@X>XsXv.Z.f.f.;.b V.pXrXI.N.uXgXeXrXgXpXeXh.g.G.-X*X,XS.! o.^ R ~ w.bXCXn.X.).).z.*XaXZ.s /.' ",
"s r G.,Xx.O.+.O.O.x.cXXX^.x.R E ! >X6X>Xv.Z.r.,.1.-.B.uXjX XN.tXVXeXrXgXgX.Xh.j.a.oX*X+Xl.J v.@XR / c.dXbXn.k.).3XO.=XiXv.U n.{ ",
"Z.v q.xX).+...!.+.] MXgXf.P ^ A y.v.@XoXy.v.q.q.a.;.g.K.tXyX4.<.4.8.gXgXhXB.[.$X} z.>X+Xn.U aXbXl.f C.DXmX+XT %X'.P.n.;Xu.f v.! ",
"r.I f.,X+.+.O.+.+._ nXZXsX~ W E / y.n.-XZ.F.T a.j.;.e.V.tXtXV.qX8.qXBXhXfXj.$X3Xd.} l.v.v.U OX+X^ R K.SXmXG.w.lX'.O.T H.u.f l.W ",
"s I e.A.P +.+.] +.V kXZXnX~ u Q / y.S.=Xv.y.g.mX&X;.f.V.rXFXeXeXtXeXBXBXpX1.7.E.3Xb.l.u.v.y.,X<Xu.f m.SXdXA.w.6X'.G ' H.u./ l.X.",
"0 w q.A.N @.+...@.] |.gXlXT y Q ^ l.n.*Xy.c.g.VX1.=.;.V.rXyX}.uXtXqXtXgXpX-.m m 3.q.w.v.u.U S.>X/ s m.DXmXG.g.%X_.G z.;Xu.R l.l.",
"d w q.+XQ ......@...5XrX,XX.A Q ^ ^ k.@XH.;X-.=.< 1 =.V.}.I.1.V.V.5.eXgXpX%.< , : 9 x J.Z.! X.k./ ! r.SXVX;Xg.^.P.G +X*Xu.u.n.~ ",
"! H w.,Xo.@.V @.F ..bXpXOX~ A Z i R x.@XG.C.< $ @ $ l 5.U.:.z 1.1.=.5.eXyX2 & % @ : 9 Z.S.l.X.W A ! r.ZXbXOXg.d.~.L.@XH.u.H.n.P ",
"! d I =X+.F V V C V MXnXb.W Z i u A x.#Xt.q : # # @ 6 4.U.:.z ,.1.-.N.V.6.& o O X @ > w.l.^ W W A l.C.SXdXj.a.d.'.L.@X*Xv.S.n.H ",
"f 0 p v.F F V V F V AXZXb.V S Z S A W #Xt.q + . . . 6 4.U.7.1.&X|.N.eXyX6.%   ;   + > c.l.^ W @.A S.fXIXdXg.b.%X~.G >XH.y.u.w.{ ",
"r y I H u D ..0 F ] zXnXb.W u Z i S x.oXOXq @ # o X 6 :.*.2.1.p.,.1.N.8.*..       @ > w.v./.S Q A S.hXVXXXa.lX6X~.L.s.G.Z.v.} T ",
"r r U y.A A F V F ] :XgXk.W C Z i S +.x.c.q @ + . . 6 *.>.2.1.,.;.,.V.8.*.o       o 9 c.^ l.Q A A l.J.BX&Xg.lX6XP.L.b.H.v.S.b.{ ",
"r r U D.o.A V ..F P uXpXb.W Z Z Z Z ..k.w.b : . . X 6 :.>.2.3.h.h.5.N.8.*..     . + -.v./ S Q A A E C.VXsXp.=X6X'.L.'.*Xi.S.F.T ",
"r r U D.o.F P +.V P pXVXF.^ u Z i i +.k.w.q.2 X # + 6 <.>.9.N.&X:XN.N.4.%.o O     $ M.v.^ S Q S S R c.SXbXY b.).'.P.4XOXU D.=XY ",
"r r s y.Q F X.x.D T vXZXG.W u Z i u ..X.P a.z @ + @ =.4.>.&.1.V.V.7.5.5.*.+ o O . l -X~ l.^ S Q A R v.IXMXa.A.%X'.L.lXD.d v.oXY ",
"t r p a y N o.!...` gXmXj.y u S i u N W H I 1.< + + l 7.:.=.z ;.;.-.5.8.:.& o . % 3.=XU u.l.S S u R c.SXnXd.,X6X_.L.>XC.s v.S.Y ",
"t r a U y C k./...T tXgXg.J u S i Z N ..J H s.m & $ q 7.:.>.z =.&.=.5.V.:.& % # 3 ].OX^ E l.i E S / w.iX=Xc.lX6X~.L.A.r.y.F.S.w.",
"8 r ! v.^ N X./.X.K uXhXb.R u Z S ^ W x.~ x s.n > : q 1.2.2.-.-.5.<.5.5.&.$ & & W.R.n.l.S ^ S A ^ u.I C.g.T >X'._.G a.r.v.,X*Xa.",
"r r 0.*XJ N T x.oXk.r.A.v.W u A R v.n.X.M B L n [ : > 3.2.&.3.2.4.4.2.:.-.: $ 3.R.Q.x.x.o.^ / R s aX~ w.c.x d.d.'.Q.1XaXn.#X*XC.",
"8 r ! oXT P P a.oXc.k.S.n.W N J i.k.X.M 0 M ) ) [ b < z ].<.l m %.*.2.}.< : n s.z.z.x.x.n.x.o.J i.mXn.n.,Xw.b.| )./.<X>X} d.OXA.",
"8 r J n.J P Y I OXk.c.=XS.W y W y.y.M 0 j j B G n s.g g ].7.z <.>.>.2.3.< < $X .| O.O.o.x.o.^ J i.fXn.%XnXOX%X/.Q.%XlXOXL Y A.C.",
"8 0 f l.H P Y x OXc.G.sX=XP y W H H M j j B B k [ [ ,.-.n 3.3.N.2.4.U.2 g n n d.d.' ` P ..+.W J s ;Xk.>XAX,X%X3XL./.lXOX{ } G.r.",
"8 p U n.J Y Y x A.g.G.lX=XJ 0 N 0 H K K B B k k c n ,.v -.b m ,.-.2.&.< 3.W.b R.| | ] ] V ..W P r.iXn.%XbXK.^.3X_.^.>XOX} x.G.r.",
"e w y.=Xk.z.[ Y j.g.A.>X+XP y P H Y ` ` B k k k k [ h b [.s.9 n z ;.z n n g  . .) ' ] ] ] ....T r.aXn.d.OXj.d.).3X^.b.b.X.x.oXi.",
"8 8 U ,XoX#Xz.a.j.g.g.A.c.Y j M P Y ] ] G B k B h c g h d.d.b n z m b s.h g [ k B ) ] ] ] _ ` X.a.-Xb.[ M.j.d.^.6Xb.b.G.} ` k.y.",
"w 8 w +XoX>XXXXXB.h.f.f.T H j M B L ] G G G G G ) g j 9 9 h j.c 9 g s.b h k g k  .| O.] B V ` z.C.dXb.L j.K.^.Q.3Xz.A.G.~ J U I ",
"8 8 0 c.z.b.<X[.j.q.&XOXY x j L L L ' ' G G ] ' ) Y c h 9 9 h c h b h g h c )  .L.O.' ) G V ] O.g.j.a.6X=Xj.<Xd.%X} -X-XP k.v.y.",
"w 0 H n.b.d.#Xp.[.h.&XXXY Y K P L ) ) ' ] ] G ' ( [ L x M k c L x c c c h c [  .O.| ' ' B G ] | z.b.} %XlXB.^.)./.p.-XG.J x.v.0.",
"e 8 I n.n.b.XXp.&Xj.&XXXY Y { } K K ) ) ] ] ] ' K L x x K [ ) k [ [ [ c c c )  .| ' ' ) ' ' ] O.a.b.' Q.lXA.s.%X^.d.iXJ.T S.H.0.",
"e 0 ~ @X%X$X%XR.B.p.XXj.c [ { ' K L V ] ] ] ] ' { L x j L ( B j [ [ s.[ L c ( [ | ' ) ) _ ' | | } d.| | A.j.c a.Q.b.;XC.w.x.C.$.",
"7 e U z.T } d.s.j.,.j.a.c Y ( K K K P _ ] O.` K } } Y x L K L B [ [  .[ c c ) [ } [ ( ( ] | ..| k.{ O.) b p.[ c p.q.e.r.H H t.w ",
"e e p H j c p.d.j.,.R.s.c [ _ B L P _ _ ] ] ` { } Y L x c ( ' ) [ [ [ [ c k ( | } { ( _ ' } ' ` O.` ] ' 0 v ^.[ Y q.t.e.I 0 $.a ",
"8 7 ~ x.P z.^.$XXXs.j.p.x ( ( B P K ` ` ` ` ` } T Y H x c ( { '  .[ [ [ c j L d.[ } } { _ ` } } ] +.] P.a.v ^.b.p.j.e.e.t.I r.$.",
"7 7 x.#Xk.| [ [ 6Xj.XXs.h K ' B H P } ` ` ` ` ` { Y v x Y } ' (  . .[ ) c h L d.{ } } { _ _ ] ` M !.] _.1Xv [ ^.[ b.t.t.q.r.m.$."
};
