/* XPM */
static char *cc39f11a47334b598c99f37866038c0f0XMY41oHgFeXNTa2[] = {
/* columns rows colors chars-per-pixel */
"64 64 164 2 ",
"   c #0B0706",
".  c #0C0807",
"X  c #0F0A09",
"o  c #130D0B",
"O  c #17100E",
"+  c #19110F",
"@  c #1D1411",
"#  c #211714",
"$  c #251A16",
"%  c #281B17",
"&  c #271B18",
"*  c #2A1D18",
"=  c #2A1C19",
"-  c #2A1D19",
";  c #2B1D19",
":  c #2A1C18",
">  c #2A1E19",
",  c #2B1E19",
"<  c #281C1A",
"1  c #291C1A",
"2  c #281D1A",
"3  c #291D1A",
"4  c #2A1D1A",
"5  c #2B1D1A",
"6  c #2A1D1B",
"7  c #2A1E1A",
"8  c #2B1E1A",
"9  c #2A1E1B",
"0  c #2B1E1B",
"q  c #2B1F1B",
"w  c #291C19",
"e  c #2C1E19",
"r  c #2C1E1A",
"t  c #2D1E1A",
"y  c #2C1F1A",
"u  c #2D1F1A",
"i  c #2C1E1B",
"p  c #2C1F1B",
"a  c #2D1F1B",
"s  c #2E1F1B",
"d  c #2B1F1C",
"f  c #2C1F1C",
"g  c #2D1F1C",
"h  c #2D1F1D",
"j  c #2A1D19",
"k  c #2D201B",
"l  c #2E201B",
"z  c #2F201B",
"x  c #2D201C",
"c  c #2D201D",
"v  c #2E201C",
"b  c #2F201C",
"n  c #2F211C",
"m  c #2E201D",
"M  c #2E211D",
"N  c #2F211D",
"B  c #2F211E",
"V  c #2F221E",
"C  c #2E201C",
"Z  c #30201B",
"A  c #30211B",
"S  c #30201C",
"D  c #30211C",
"F  c #31211C",
"G  c #30211D",
"H  c #31211D",
"J  c #30221C",
"K  c #30221D",
"L  c #31221D",
"P  c #32221D",
"I  c #33231D",
"U  c #30211E",
"Y  c #30221E",
"T  c #31221E",
"R  c #31231E",
"E  c #31231F",
"W  c #32221E",
"Q  c #32231E",
"!  c #33231E",
"~  c #32231F",
"^  c #33231F",
"/  c #34231E",
"(  c #32241F",
")  c #33241F",
"_  c #34241F",
"`  c #31221E",
"'  c #312320",
"]  c #332420",
"[  c #342420",
"{  c #352420",
"}  c #342520",
"|  c #352520",
" . c #352521",
".. c #362520",
"X. c #372520",
"o. c #352621",
"O. c #362621",
"+. c #372621",
"@. c #372721",
"#. c #352622",
"$. c #362622",
"%. c #372622",
"&. c #362722",
"*. c #372722",
"=. c #372723",
"-. c #352621",
";. c #382722",
":. c #392722",
">. c #382723",
",. c #382722",
"<. c #372823",
"1. c #382822",
"2. c #392822",
"3. c #382823",
"4. c #392823",
"5. c #3A2823",
"6. c #3A2923",
"7. c #3B2923",
"8. c #382824",
"9. c #392824",
"0. c #392924",
"q. c #3A2924",
"w. c #3B2924",
"e. c #3A2925",
"r. c #3B2925",
"t. c #3B2A24",
"y. c #3A2A25",
"u. c #3B2A25",
"i. c #3C2A25",
"p. c #3D2A25",
"a. c #3C2B25",
"s. c #3D2B25",
"d. c #3C2B26",
"f. c #3D2B26",
"g. c #3E2B26",
"h. c #3C2C27",
"j. c #3D2C27",
"k. c #3E2C26",
"l. c #3F2C26",
"z. c #3E2C27",
"x. c #3F2C27",
"c. c #3F2D27",
"v. c #3B2A25",
"b. c #3F2D28",
"n. c #402D27",
"m. c #402E27",
"M. c #402D27",
"N. c #402D28",
"B. c #402E28",
"V. c #412E28",
"C. c #422E28",
"Z. c #422E29",
"A. c #422F29",
"S. c #432F29",
"D. c #412F2A",
"F. c #412E28",
"G. c #433029",
"H. c #45322B",
"J. c #46322C",
"K. c #47322C",
"L. c #46332C",
"P. c #47332C",
"I. c #44312B",
"U. c #49352D",
/* pixels */
"f.j.9.>.f.o.j.@ # j.} d.9.o.j.G.V.H.f.9.o.t.o.f.r o I.j.j.G.I.j.j.j.f.j.5.5.9.*.9.@ & j.o.d.d.#.j.G.b.L.f.5.>.t._ f., O H.j.j.V.",
"r r T ) m & & O o.T & # # m k ) ' m f T Z & $ f # @ V., k r r r : r r r T ) k % & O o.m & # @ k x ) ) m r T k & $ Z @ @ V., r r ",
"& , T T m & , O T , & & & , m k , , r , , , , r # O V.% k , r r & $ & : k T m % , O T , % # & x m m , , r r , : , r @ @ n.& k r ",
"& , : & , & , @ : m # , & , r T r r T Z r , & % @ + n.& r : , m & $ % e , & , % , @ , m # , % , k m d , m k r : & % @ @ n.& r , ",
", , & % % & , @ @ } @ $ , f f T r r o._ Z & & & @ o >.e Z r m k & % : , & % % & , @ @ ) # # r f m T r f o._ k , & # @ o >., Z r ",
", % & % # & & @ # ' & & & , m f f r >.T , & & & O o >.e Z Z m m % & , : & : & # , O & T & & & , m m f r >.T , & & , O o 5., T T ",
"r , & & & & & O # ' , , # , o.o./ f T f & , , f o # >.$ , m m m k : r : & & & # & O & m , , # d ) o.T Z T m , , & r o # _ & , m ",
"# # # r : : , & . @ % @ @ % r T o.o., @ O @ # o o @ @ # , m T & % % # # # , , , , # X @ & @ @ , k T _ o., O O # # O o @ @ # , m ",
"o O # @ o o @ o o . . . o o o o @ + o o o . o o o . . o @ @ @ X X o o O # O + o @ o o X . o . o o o # o o o o . o o . o . o @ @ ",
"O f.>.T _ 9.f.T # # & T o.o.f.&   & >.>.>.>.9.T & @ # >.' ' j.D.# X @ j.>.T T f.f.m # # & T *.o.n.#   & >.5.>.>.9.T & @ # 9.o.) ",
"& T # : , m T >.9.j.5.T r T f S o m T & , T , & o.o.>.d # & h h , o $ } # , , r Z 5.9.j.>.T f m T f o T m & d T , & ) o.<., # & ",
"m _ & & # , r m T k , , r S S f o , S & & , , d % & # $ , % # & , o k ) & # & & k Z T r , , r m T r o k k & % r , , % & # # & , ",
"@ j.& & & % r m Z T Z T T , & d o T T % S S f f % d & # % & $ & & @ # n.# , & , k T k T Z T m , % , o T T % T T f f % % & & & & ",
"O j.r & & , r , r r r S , & $ , o ' T r f f d f d # & & & # # $ & & O j.r & & , , , f r r T , & & , o o.f d f f % f d $ & $ & # ",
"& j., & & , r r T r f T % @ # d o '  .# % , & % T , $ # & & & d m & & f., & , d r f T r r T % @ # d o / T # d % & , T % & # & & ",
"O & & @ @ & r r r & f T T & & & o $ f $ % f % % f % d & % , d f f # O , # # @ # r r , & r T Z , % # o & d & % f % & f , d & % , ",
"@ @ o @ # o . o o . o + @ o o X o o . o o @ o o o o o O + + o o + + @ @ O O & o . o o o o @ + + o . o o . o + @ o o o o o o @ @ ",
"j.V.f.V.U.V.} # o o @ # @ + & / k , & O o   o # # o # # O @ % j.f.>.M.V.j.V.I.n.} @ . o @ # @ @ % o.f d & O . . o # # o & # O @ ",
"% r , & , r T @ . $ r.' >.>.>./ o.o.o.o.T , T f.@ & V.9.n.f.o.% % Z % f , & % r ' @   # >.{ >.>.>.{ o.>.o.o.k , { f.@ % V.>.j.9.",
"k r , f f r T & . >.f & % % & % , & r % , f , , @ % f., r r , % % % r f , f f f f & o >.r $ % % & % % % , % r r % , o f f.% f d ",
"& & , f m T T f o >.% & % % f r & , m % # $ # f @ , V.f , , m , & % , & , f f T T , o 9.& & & % r r & , m : & & & T @ f V.f % r ",
"& & & f r T T T o >., % , , r r , , f , & & # r @ & b., & & , & % & , # & r m T T T o 9., % % % r r , & , , & # # f + r f.5 % % ",
"r & , , k T T r o f.T % d f m r % & % & & & % T @ & f., d & & % , r , & , d T T T , o j.r % f T f r r & & & & & % T + , f., d % ",
"Z & r k T _ k , o , $ r / ' _ T d & % r r f , ' # , f.T T f & & r T f & , k T _ r , o r & r / T _ m r , % r r f , T # f 9.T T f ",
"& $ & & % % , @ X o X + # @ @ + @ # # , , , f , o # T , , & # # & @ # $ : % % % % @ o o . + # @ @ @ @ # # r , , r , o # m , & & ",
"X O o O # # @ @ # # # # @ @ @ O o . + o # # @ @ , & @ o O O @ o X X o O O O # @ # @ # # # # @ @ @ O o . O O @ # @ @ , & O O O o ",
"T _ _ j.9.5.5.*.} } <.d.f.f.*.9.@ f 9.f.V.9.j.9.o.T o.o.j.9.b.H.# X Z *.#.0.j.*.>.>.o.o.>.9.b.f.o.o.@ f 9.f.n.9.j.9.o.} *.9.j.9.",
"5.# & e & & & & & % & , , , & # o o., % , m m & # & , d m , , T # o 5.@ % k % % & & & % % , , % & # o o., , , k k & # , , r T , ",
"k T : T , & & & , & , m f m , &   m T & % r , % & & & : m m m m # X k m % V & & $ & , % , k f m , & . T k & , , & % # % & & T m ",
"O o.: r : & @ & & , , m T T , #   & o.@ & % # & & # & : T m , k , o O 5.% k k % # & % % r m T T % # . % o.# & & % & & # & % T m ",
"o 5.k r k , & & , , , , r m , # . m o.$ & % $ & & % & & k T , T k o O 5.k k k & & & % % , , r S f # . T ) # & % # & : % & & m V ",
"k 5.T m T T r , & % d , , , m f o o.T & & & % , r k k m k T m _ T o k 5.k k V ) f % , , f f r r f f o o.m % $ & & k k m k k m T ",
", , m ) , # , & % @ @ , , , , , O : T % % # @ & , , # & , , , m r o & , T T & & , % # @ # k , & , , O , T % & $ + : , & # & % % ",
"@ O @ @ @ & O O O o @ O o o o O O @ O O o o O o o . # # @ @ @ @ @ O @ @ @ @ @ # O O O O O O O o o O o @ O O o o o o o o # # @ @ ",
"d.9.o.) 9.*.9.@ # j.o.5.>.T f.n.j.I.5.o.o.o.} f., o U.j.9.b.S.9.o.f.f.>.o.o.>.>.9.@ # d.o.5.*.) f.V.V.G.>.o._ _ o.f.& o U.f.f.j.",
", k T ) m & & O *.k # & # f , ) T k k Z Z & # , @ @ V.% r , r , , , , , T o.r & & O *.m # & # k r ) m m r T T & & r @ # n.% r r ",
"% , m m m & , O T , & # & , m m , , m , , , : k @ @ V.& r r , r $ & & , Z T f % , O } , & & & d m m , d r , , , & m @ @ V.& e r ",
"& , , & , & , @ % ) # , & , k m r r m m k : & % @ @ f.& r , , f $ $ % r % % , % , @ & m # & & , k m r k m m r , % & @ @ n.& r % ",
", , & , & & k # @ } # # , m m m r r o._ m : & # @ X >.r Z k f T $ % % , & , & & , @ @ ) # # , f m T , r o._ T % # % @ o 5., Z k ",
", : & & & # & @ # } # d & , m m m r o.T , & & & @ o 5.: Z T f f % & , % & % & # & + % T & & & , m m m k o.T , & & & O o 5., Z T ",
", : & & & $ : O # Z , : # r ) o._ m T r : , % r o & o.& , m m ' T % r % & & $ $ % O # T , & # , o.o.) m T f & , & k o # *.# k m ",
"# @ # k % & : & X O & O @ : , m >.o.e + o # # o . @ @ # & m ' # & & # @ & k % & , # . O & @ @ & , T o.} , O O # @ o o @ @ # : m ",
"o O # @ o o + O o X X o o o O o + o O o o o o o o . . o @ @ @ o . o o @ # O o O @ o o . . o o o o o @ o o o o . O O X . X o @ @ ",
"O j.5.o.o.f.j.) # & & _ *.} j.& . & t.>.o.5.f.o.d @ & 9.o.T n.V.& . @ f.>.o.o.f.f.' & % % _ >.>.f.& . , 9.9.5.9.j.) , @ & 9.} ) ",
"& T # , , r k o.5.f.>.m , k T m o m T & , m , & ' { >.% # & d d r o & } # , % r k o.5.f.>.k r f r r o T f & , m % & ' o.o., # & ",
"m _ $ # & & r Z T r : , f T r f o , T # & , , , & & # & & < # & r o r _ # & & % r T T r , , f f T r o f S # % d , f % & # & & & ",
"@ j.& & & , r T r T f S T , & , O m T , m m m , % % $ & & & $ $ , # @ j.& & & % r m k T r T T f % r o { T , f T f r , & # & & & ",
"O j., & & , r , S r f T % & & , o ) T , f , , f f $ # # & $ $ # & # @ j., & & & k , r r r T , # & % o o.T r f , , f , # & & & # ",
"& t., & & , f f T r f T % # # f o T { & % , & & ' , & # & & & d f & & f., & , , r f T r S T % # # f o { { # , % & % T % & # % % ",
"O & # @ @ # , r % & , T S % & & o # , # & d % & r , % & , , < % , @ @ & @ @ @ # r r % $ r T S % % # o & % # , d & & f , % % % f ",
"# @ O @ & O X o o o . O + + o . o o . o o @ o . o o o o O O o O @ @ # @ @ @ & O . o . o o + + o o o o o X o o @ o o o o o o @ o ",
"j.V.f.G.I.n.) # . o # & # @ % o.T r & @ o   o $ # o & & @ @ d j.f.o.j.V.h.V.H.b.o.@ o o @ $ # @ % o.m d & O o . o & @ O & & @ @ ",
": r & & & , T @ . $ r.T o.>.o./ T o.o.o.m m o.9.@ & V.9.f.9.} & & r % , & & & r T @   & f.' >.>.o.T ' o.o.o.T f o.9.@ , V.>.j.f.",
"k k , m m m T & X >.f $ & % & % , & , & , m , , @ % f., r , , & & % f r , m f r T & o >.% $ $ % % % , % r & % f , % + r f.& f % ",
", & : , x T T , o >.% & % % r r & , f , # & & r @ , S.m , , m , & % % & , f T T T , o >.& & % % f f % , f % & & & r @ f V.f % , ",
"& & & , x T T T o >.f f % f % r , , r , & # # r @ % b.% & & , & % % % & % r r T T m o 5., , , , , r , % r , & # # r O d f.d & % ",
"r & % , m T f f o f.S % f S m r , & & & & & d m @ & f., , & & , , r r & : , T T m , o f.f % r T m r , & % & # & , T @ % f.r , , ",
"T & f r _ / S % o % & f / T T T k , % f r r , T # , 9.T ) , & , k T Z & , m ) ) m % o , & r / T / m r % , k m f , ' @ f 9.T T f ",
"# # & & & # , @ o . o o @ @ O O @ @ @ % , , d , o # m & & # @ # & + # $ # & & # , @ . o X o + @ @ o @ @ @ % % , r % o # r , & $ ",
"o @ O @ # & # @ & # & # # # # @ o X O O # # @ @ f , @ o O @ @ O . X o + O @ # & # @ & # & & # # @ @ o o O O & # @ @ f , @ o O O ",
"m o.o.5.9.o.>.>.{ / >.>.j.t.o.>.O m 5.f.n.9.j.9.o.T o.9.j.9.V.L.# . ) *.o.9.f.o.=.o.' { o.>.f.5.=.o.@ m 5.j.j.9.j.f.) T o.9.b.9.",
"5.# & , & & & & & & % , r , & # o o., % , m r & # , , r m , , m # o 5.@ & % & & $ & & % % , r , & # o o.: % , k r & # , % , m , ",
", ) : m d & # & % % , f r T 5 % X k m & , r : & # & & & T m m k & X , T , m , & & & , % r m f m , & . ' f & , k , % # & & & T m ",
"o *.: , , & # & , % r r T T % #   & o.@ & & & & & # & , T m r k & o O >.% , , & # & % % , T T m , #   % o.@ & & # & & # & , ) m "
};
