/* XPM */
static char *result[] = {
/* columns rows colors chars-per-pixel */
"64 64 205 2 ",
"   c #5E5B5A",
".  c #5D5755",
"X  c #744E47",
"o  c #67524E",
"O  c #6E524D",
"+  c #73524C",
"@  c #78554F",
"#  c #635755",
"$  c #6C5652",
"%  c #6C5956",
"&  c #635D5C",
"*  c #6C5D5B",
"=  c #725651",
"-  c #725A55",
";  c #7A5A55",
":  c #735E5A",
">  c #7B5E59",
",  c #7A5750",
"<  c #65605F",
"1  c #6E605F",
"2  c #75615E",
"3  c #7D625E",
"4  c #666362",
"5  c #6B6564",
"6  c #6A6867",
"7  c #6D6B6B",
"8  c #696768",
"9  c #746663",
"0  c #7D6561",
"q  c #7D6966",
"w  c #736D6C",
"e  c #7B6D6B",
"r  c #776967",
"t  c #75716F",
"y  c #78706E",
"u  c #747372",
"i  c #7D7472",
"p  c #7E7877",
"a  c #787778",
"s  c #7B7B7B",
"d  c #835D55",
"f  c #815F58",
"g  c #8E5D52",
"h  c #985E52",
"j  c #8A6057",
"k  c #83625D",
"l  c #8C655D",
"z  c #966154",
"x  c #9B6255",
"c  c #93645A",
"v  c #9B665B",
"b  c #9D695D",
"n  c #94695F",
"m  c #A26557",
"M  c #A46759",
"N  c #A26B5E",
"B  c #A96453",
"V  c #B26F5D",
"C  c #B5725F",
"Z  c #BE735E",
"A  c #836661",
"S  c #846A65",
"D  c #8B6A64",
"F  c #836D6A",
"G  c #8C6E69",
"H  c #936C64",
"J  c #9B6C61",
"K  c #956F68",
"L  c #83716E",
"P  c #8C726D",
"I  c #93726C",
"U  c #9B7268",
"Y  c #827574",
"T  c #827877",
"R  c #8E7975",
"E  c #857C7A",
"W  c #8A7D7B",
"Q  c #887470",
"!  c #967771",
"~  c #A26E62",
"^  c #A17166",
"/  c #A3746A",
"(  c #AA776A",
")  c #B47869",
"_  c #BC7D6C",
"`  c #B77765",
"'  c #AA7D71",
"]  c #D1785C",
"[  c #C47B65",
"{  c #C67B65",
"}  c #D27F65",
"|  c #84807F",
" . c #8D807E",
".. c #9C817B",
"X. c #93817E",
"o. c #AA8177",
"O. c #A3847C",
"+. c #B48073",
"@. c #BF8676",
"#. c #BB8779",
"$. c #CB806B",
"%. c #D3846C",
"&. c #D9866D",
"*. c #DF8A6F",
"=. c #C28A7B",
"-. c #C98875",
";. c #D78B75",
":. c #DD8A71",
">. c #DA8F79",
",. c #DF917A",
"<. c #E18A6E",
"1. c #EB8D6D",
"2. c #E28D72",
"3. c #EB8E70",
"4. c #EC9274",
"5. c #EB9879",
"6. c #F49573",
"7. c #F59977",
"8. c #FA9B74",
"9. c #F69C7C",
"0. c #F99B77",
"q. c #FCA47C",
"w. c #FEAB7C",
"e. c #FCA273",
"r. c #FEB37E",
"t. c #848383",
"y. c #8C8583",
"u. c #8B8B8B",
"i. c #938482",
"p. c #928987",
"a. c #948C8B",
"s. c #9C8D8A",
"d. c #959393",
"f. c #9D9593",
"g. c #9C9B9B",
"h. c #B1958E",
"j. c #A19796",
"k. c #A39B9A",
"l. c #AB9C99",
"z. c #A88C85",
"x. c #A3A09F",
"c. c #BCA099",
"v. c #A5A4A4",
"b. c #AAA5A4",
"n. c #ADACAC",
"m. c #B2ADAB",
"M. c #B5AAA8",
"N. c #B4B3B3",
"B. c #BBBBBB",
"V. c #C48E81",
"C. c #CD9384",
"Z. c #C49A8F",
"A. c #DB9D8C",
"S. c #C89E93",
"D. c #F19E80",
"F. c #DDAA9A",
"G. c #EAA28A",
"H. c #F4A282",
"J. c #FAA582",
"K. c #FDAA83",
"L. c #F6AC8A",
"P. c #FEB383",
"I. c #FEBC84",
"U. c #FDB38A",
"Y. c #FEBA8B",
"T. c #E5AA96",
"R. c #EAB19B",
"E. c #F7B394",
"W. c #F9B996",
"Q. c #CCA9A0",
"!. c #DFB2A5",
"~. c #DBB7AD",
"^. c #CFB9B4",
"/. c #C4BCBB",
"(. c #C6BCB9",
"). c #D4BEB9",
"_. c #E7B4A1",
"`. c #E5BDB1",
"'. c #FEC385",
"]. c #FFC488",
"[. c #FFCB8B",
"{. c #FFD28B",
"}. c #FEDE8E",
"|. c #FFD990",
" X c #FFE494",
".X c #FFEC9A",
"XX c #FFEA96",
"oX c #FEF39A",
"OX c #D3C1BC",
"+X c #EFC2AD",
"@X c #F8C4AA",
"#X c #C4C4C4",
"$X c #CEC6C4",
"%X c #CBCACA",
"&X c #D3CDCB",
"*X c #D0C5C3",
"=X c #DAD0CE",
"-X c #D6D4D4",
";X c #DAD5D4",
":X c #DAD9D9",
">X c #DBD9D7",
",X c #E0DFDF",
"<X c #E2D9D6",
"1X c #E5E5E5",
"2X c None",
/* pixels */
"2X2X2X2X2X2X2X2X2X2X2X2X2X2X2X2X2X2X2X2X2X2X2X2X2X2X2X2X2X2X2X2X2X2X2X2X2X2X2X2X2X2X2X2X2X2X2X2X2X2X2X2X2X2X2X2X2X2X2X2X2X2X2X2X",
"2X2X2X2X2X2X2X2X2X2X2X2X2X2X2X2X2X2X2X2X2X2X2X2X2X2X2X2X2X2X2X2X2X2X2X2X2X2X2X2X2X2X2X2X2X2X2X2X2X2X2X2X2X2X2X2X2X2X2X2X2X2X2X2X",
"2X2X2X2X2X2X2X2X2X2X2X2X2X2X2X2X2X2X2X2X2X2X2X2X2X2X2X2X2X2X2X2X2X2X2X2X2X2X2X2X2X2X2X2X2X2X2X2X2X2X2X2X2X2X2X2X2X2X2X2X2X2X2X2X",
"2X2X2X2X2X2X2X2X2X2X2X2X2X2X2X2X2X2X2X2X2X2X2X2X2X2X2X2X2X2X2X2X2X2X2X2X2X2X2X2X2X2X2X2X2X2X2X2X2X2X2X2X2X2X2X2X2X2X2X2X2X2X2X2X",
"2X2X2X2X2X2X2X2X2X2X2X2X2X2X2X2X2X2X2X2X2X2X2X2X2X2X2X2Xk.f.j.f.j.j.k.k.2X2X2X2X2X2X2X2X2X2X2X2X2X2X2X2X2X2X2X2X2X2X2X2X2X2X2X2X",
"2X2X2X2X2X2X2X2X2X2X2X2X2X2X2X2X2X2X2X2X2X2X2X2X2Xb.f.s.p.p.i.i.i. .W i.i.s.2X2X2X2X2X2X2X2X2X2X2X2X2X2X2X2X2X2X2X2X2X2X2X2X2X2X",
"2X2X2X2X2X2X2X2X2X2X2X2X2X2X2X2X2X2X2X2X2X2X2X2Xg.d.p.y.y. .W  .W W W Y Y Y i.2X2X2X2X2X2X2X2X2X2X2X2X2X2X2X2X2X2X2X2X2X2X2X2X2X",
"2X2X2X2X2X2X2X2X2X2X2X2X2X2X2X2X2X2X2X2X2X2X2Xg.u.t.E s Y p p Y T W t.W Y i E 2X2X2X2X2X2X2X2X2X2X2X2X2X2X2X2X2X2X2X2X2X2X2X2X2X",
"2X2X2X2X2X2X2X2X2X2X2X2X2X2X2X2X2X2X2X2X2XN.d.u.t.s a u t u w t i p a i T p T f.2X2X2X2X2X2X2X2X2X2X2X2X2X2X2X2X2X2X2X2X2X2X2X2X",
"2X2X2X2X2X2X2X2X2X2X2X2X2X2X2X2X2X2X2X2X2Xg.u.t.a a u u u u w w a e w w u i T  .f.2X2X2X2X2X2X2X2X2X2X2X2X2X2X2X2X2X2X2X2X2X2X2X",
"2X2X2X2X2X2X2X2X2X2X2X2X2X2X2X2X2X2X2X2Xv.u.t.a u u u u a a u 8 7 w w w i e Y S Y d.2X2X2X2X2X2X2X2X2X2X2X2X2X2X2X2X2X2X2X2X2X2X",
"2X2X2X2X2X2X2X2X2X2X2X2X2X2X2X2X2X2X2X2Xg.u.t.u u u 7 7 u w u 4 8 9 7 r w y F 3 e a.2X2X2X2X2X2X2X2X2X2X2X2X2X2X2X2X2X2X2X2X2X2X",
"2X2X2X2X2X2X2X2X2X2X2X2X2X2X2X2X2X2X2X2Xd.t.t.a u 7 7 7 w w 8 & & 8 5 9 9 w q q E f.2X2X2X2X2X2X2X2X2X2X2X2X2X2X2X2X2X2X2X2X2X2X",
"2X2X2X2X2X2X2X2X2X2X2X2X2X2X2X2X2X2X2X2Xd.t.s a u u 7 8 7 7 8 & 5 8 5 5 2 2 9 e | v.2X2X2X2X2X2X2X2X2X2X2X2X2X2X2X2X2X2X2X2X2X2X",
"2X2X2X2X2X2X2X2X2X2X2X2X2X2X2X2X2X2X2X2Xn.u.s a a u 8 4 < 8 8 < 8 5 9 : O $ 2 w y W k.2X2X2X2X2X2X2X2X2X2X2X2X2X2X2X2X2X2X2X2X2X",
"2X2X2X2X2X2X2X2X2X2X2X2X2X2X2X2X2X2X2X2XB.d.u.s a u 7 4 * 5 5 & * * - + + $ 1 9 r L  .2X2X2X2X2X2X2X2X2X2X2X2X2X2X2X2X2X2X2X2X2X",
"2X2X2X2X2X2X2X2X2X2X2X2X2X2X2X2X2X2X2X#XB.v.u.u 7 7 8 5 5 1 1 % o O X X + $ 1 1 * 2 e y.2X2X2X2X2X2X2X2X2X2X2X2X2X2X2X2X2X2X2X2X",
"2X2X2X2X2X2X2X2X2X2X2X2X2X2X2X2X2X2X2XB.n.g.t.w 5 & . # $ = $ $ + + , + = 1 1 5 5 w y y.2X2X2X2X2X2X2X2X2X2X2X2X2X2X2X2X2X2X2X2X",
"2X2X2X2X2X2X2X2X2X2X2X2X2X2X2X2X2X2X2XN.n.v.t.w 5 & o o + + = = ; ; 3 3 - * 1 6 6 5 7 s d.2X2X2X2X2X2X2X2X2X2X2X2X2X2X2X2X2X2X2X",
"2X2X2X2X2X2X2X2X2X2X2X2X2X2X2X2X2X2X2X2XB.N.y.u 5 % $ O $ - % ; j 3 3 3 - $ & < < < 8 7 a d.2X2X2X2X2X2X2X2X2X2X2X2X2X2X2X2X2X2X",
"2X2X2X2X2X2X2X2X2X2X2X2X2X2X2X2X2X2X2X2X:X#Xd.y 9 > ; $ $ : - > A F 0 0 2 % . . .   8 7 u s 2X2X2X2X2X2X2X2X2X2X2X2X2X2X2X2X2X2X",
"2X2X2X2X2X2X2X2X2X2X2X2X2X2X2X2X2X2X2X1X:Xn. .e A f f ; ; 9 : > k F S A y 9 < < < 4 8 7 u s u.2X2X2X2X2X2X2X2X2X2X2X2X2X2X2X2X2X",
"2X2X2X2X2X2X2X2X2X2X2X2X2X2X2X2X2X2X2X2XN.y.Y F f A A A > r 9 A k l D k r 1 <   < 8 8 8 7 s u.v.2X2X2X2X2X2X2X2X2X2X2X2X2X2X2X2X",
"2X2X2X2X2X2X2X2X2X2X2X2X2X2X2X2X2X2X2X2Xd.E L 0 0 F G G A F q A k l j 3 2 % < < < 8 8 8 7 s t.g.2X2X2X2X2X2X2X2X2X2X2X2X2X2X2X2X",
"2X2X2X2X2X2X2X2X2X2X2X2X2X2X2X2X2X2X2XN.d.t.y q 0 D P P A F F q l c h g k ; % < 4 6 8 4 8 s d.2X2X2X2X2X2X2X2X2X2X2X2X2X2X2X2X2X",
"2X2X2X2X2X2X2X2X2X2X2X2X2X2X2X2X2X2X2X2Xn.y.L e 3 A I P D D F A l z x x d = 1 5 6 6 8 8 7 s 2X2X2X2X2X2X2X2X2X2X2X2X2X2X2X2X2X2X",
"2X2X2X2X2X2X2X2X2X2X2X2X2X2X2X2X2X2X2X2XB.u.T q 3 j K G b v H c z h B x 3 2 1 < 4 & < 7 7 u.2X2X2X2X2X2X2X2X2X2X2X2X2X2X2X2X2X2X",
"2X2X2X2X2X2X2X2X2X2X2X2X2X2X2X2X2X2X2X2XN.d.E F D K G K v b v h m m B x j 2 1 # . < 5 7 s v.N.2X2X2X2X2X2X2X2X2X2X2X2X2X2X2X2X2X",
"2X2X2X2X2X2X2X2X2X2X2X2X2X2X2X2X2X2X2X%Xn.d.| Y D D G D c N ~ m M M x z d - $ # < 4 7 u u.n.n.N.2X2X2X2X2X2X2X2X2X2X2X2X2X2X2X2X",
"2X2X2X2X2X2X2X2X2X2X2X2X2X2X2X2X2X2X2X2XB.n.y.Y F c G D H ~ ~ ~ b b c g , - + - 9 w t.t.u.g.g.n.2X2X2X2X2X2X2X2X2X2X2X2X2X2X2X2X",
"2X2X2X2X2X2X2X2X2X2X2X2X2X2X2X2X2X2X2X2X2X2Xd.y.F G P G H ~ ^ J N N c j d 2 = 3 t.t.u.d.v.n.g.B.2X2X2X2X2X2X2X2X2X2X2X2X2X2X2X2X",
"2X2X2X2X2X2X2X2X2X2X2X2X2X2X2X2X2X2X2X2X2X2XN.s.G I R P H ^ U ~ V ` N n c 3 ; r a.g.g.g.n.N.N.2X2X2X2X2X2X2X2X2X2X2X2X2X2X2X2X2X",
"2X2X2X2X2X2X2X2X2X2X2X2X2X2X2X2X2X2X2X2X2X2Xk.W F G ! I U / ) ] [ $.` ( b k 3 r Y k.N.n.N.#X2X2X2X2X2X2X2X2X2X2X2X2X2X2X2X2X2X2X",
"2X2X2X2X2X2X2X2X2X2X2X2X2X2X2X2X2X2X2X2X2Xb.p.T L D H K I J Z ] $.$.$.` N l q r L b.B.#X2X2X2X2X2X2X2X2X2X2X2X2X2X2X2X2X2X2X2X2X",
"2X2X2X2X2X2X2X2X2X2X2X2X2X2X2X2X2X2X2X2X2Xk.i.E P P G K ^ ~ V { ] { *.&.C c l r T N.%X2X2X2X2X2X2X2X2X2X2X2X2X2X2X2X2X2X2X2X2X2X",
"2X2X2X2X2X2X2X2X2X2X2X2X2X2X2X2X2X2X2X2X2Xk.y.W R ! / U ( ` { _ C _ *.1.C n n F y.#X2X2X2X2X2X2X2X2X2X2X2X2X2X2X2X2X2X2X2X2X2X2X",
"2X2X2X2X2X2X2X2X2X2X2X2X2X2X2X2X2X2X2X2X2Xb.p.i.....' ( ' @.<.{ @.%.6.1.Z ~ H X.k.:X1X2X2X2X2X2X2X2X2X2X2X2X2X2X2X2X2X2X2X2X2X2X",
"2X2X2X2X2X2X2X2X2X2X2X2X2X2X2X2X2X2X2X2X;Xm.j.z.O.O.+.+.' -.1.<.%.*.6.*.+.o...c./.1X1X2X2X2X2X2X2X2X2X2X2X2X2X2X2X2X2X2X2X2X2X2X",
"2X2X2X2X2X2X2X2X2X2X2X2X2X2X2X2X2X2X2X2XB.b.M.l.o.' @.=.#.;.8.6.%.<.2.;.@.O.z.OX:X1X1X1X2X2X2X2X2X2X2X2X2X2X2X2X2X2X2X2X2X2X2X2X",
"2X2X2X2X2X2X2X2X2X2X2X2X2X2X2X2X2X2X2X2Xm.m.B.m.S.=.=.q.H.q.9.9.4.1.*.1.-.#...N.:X:X1X1X2X2X2X2X2X2X2X2X2X2X2X2X2X2X2X2X2X2X2X2X",
"2X2X2X2X2X2X2X2X2X2X2X2X2X2X2X2X2X2X2X2X2X%X&X$X).C.,.q.K.K.q.9.e.4.;.&.$.#.h.l.%X:X:X:X2X2X2X2X2X2X2X2X2X2X2X2X2X2X2X2X2X2X2X2X",
"2X2X2X2X2X2X2X2X2X2X2X2X2X2X2X2X2X2X2X2X2X2X,X2XC.>.7.P.K.K.q.w.r.q.4.&.&.S.OXB.-X1X1X2X2X2X2X2X2X2X2X2X2X2X2X2X2X2X2X2X2X2X2X2X",
"2X2X2X2X2X2X2X2X2X2X2X2X2X2X2X2X2X2X2X2X2X2X2X2X=.&.8.'.].r.P.].'.w.8.4.6.F.;X>X2X2X2X2X2X2X2X2X2X2X2X2X2X2X2X2X2X2X2X2X2X2X2X2X",
"2X2X2X2X2X2X2X2X2X2X2X2X2X2X2X2X2X2X2X2X2X2X2X(.Z.*.e.{.}.].{.|.'.w.e.8.J.R.<X2X2X2X2X2X2X2X2X2X2X2X2X2X2X2X2X2X2X2X2X2X2X2X2X2X",
"2X2X2X2X2X2X2X2X2X2X2X2X2X2X2X2X2X2X2X2X2X2X2X$X^.A.J.{.XXXXoX.X'.w.w.9.H.`.2X2X2X2X2X2X2X2X2X2X2X2X2X2X2X2X2X2X2X2X2X2X2X2X2X2X",
"2X2X2X2X2X2X2X2X2X2X2X2X2X2X2X2X2X2X2X2X2X2X2X&X*X).E.Y.[..X}.{.'.r.r.J.T.~.2X2X2X2X2X2X2X2X2X2X2X2X2X2X2X2X2X2X2X2X2X2X2X2X2X2X",
"2X2X2X2X2X2X2X2X2X2X2X2X2X2X2X2X2X2X2X2X2X2X2X2X>X=X+XW.U.].r.r.'.r.'.I.T.).2X2X2X2X2X2X2X2X2X2X2X2X2X2X2X2X2X2X2X2X2X2X2X2X2X2X",
"2X2X2X2X2X2X2X2X2X2X2X2X2X2X2X2X2X2X2X2X2X2X2X2X2X2X@X].U.K.q.r.'.r.].Y.~.OX2X2X2X2X2X2X2X2X2X2X2X2X2X2X2X2X2X2X2X2X2X2X2X2X2X2X",
"2X2X2X2X2X2X2X2X2X2X2X2X2X2X2X2X2X2X2X2X2X2X2X2X2X2X2XW.U.J.J.P.I.P.].E.`.2X2X2X2X2X2X2X2X2X2X2X2X2X2X2X2X2X2X2X2X2X2X2X2X2X2X2X",
"2X2X2X2X2X2X2X2X2X2X2X2X2X2X2X2X2X2X2X2X2X2X2X2X2X2X2X!.G.J.J.K.q.I.Y.W.2X2X2X2X2X2X2X2X2X2X2X2X2X2X2X2X2X2X2X2X2X2X2X2X2X2X2X2X",
"2X2X2X2X2X2X2X2X2X2X2X2X2X2X2X2X2X2X2X2X2X2X2X2X2X2X2XQ.G.L.J.9.w.U.E.2X2X2X2X2X2X2X2X2X2X2X2X2X2X2X2X2X2X2X2X2X2X2X2X2X2X2X2X2X",
"2X2X2X2X2X2X2X2X2X2X2X2X2X2X2X2X2X2X2X2X2X2X2X2X2X2X2X2XF.J.9.q.e.G.!.2X2X2X2X2X2X2X2X2X2X2X2X2X2X2X2X2X2X2X2X2X2X2X2X2X2X2X2X2X",
"2X2X2X2X2X2X2X2X2X2X2X2X2X2X2X2X2X2X2X2X2X2X2X2X2X2X2X2X2XL.J.L.L.R.2X2X2X2X2X2X2X2X2X2X2X2X2X2X2X2X2X2X2X2X2X2X2X2X2X2X2X2X2X2X",
"2X2X2X2X2X2X2X2X2X2X2X2X2X2X2X2X2X2X2X2X2X2X2X2X2X2X2X2X2X2X2X_.2X2X2X2X2X2X2X2X2X2X2X2X2X2X2X2X2X2X2X2X2X2X2X2X2X2X2X2X2X2X2X2X",
"2X2X2X2X2X2X2X2X2X2X2X2X2X2X2X2X2X2X2X2X2X2X2X2X2X2X2X2X2X2X2X2X2X2X2X2X2X2X2X2X2X2X2X2X2X2X2X2X2X2X2X2X2X2X2X2X2X2X2X2X2X2X2X2X",
"2X2X2X2X2X2X2X2X2X2X2X2X2X2X2X2X2X2X2X2X2X2X2X2X2X2X2X2X2X2X2X2X2X2X2X2X2X2X2X2X2X2X2X2X2X2X2X2X2X2X2X2X2X2X2X2X2X2X2X2X2X2X2X2X",
"2X2X2X2X2X2X2X2X2X2X2X2X2X2X2X2X2X2X2X2X2X2X2X2X2X2X2X2X2X2X2X2X2X2X2X2X2X2X2X2X2X2X2X2X2X2X2X2X2X2X2X2X2X2X2X2X2X2X2X2X2X2X2X2X",
"2X2X2X2X2X2X2X2X2X2X2X2X2X2X2X2X2X2X2X2X2X2X2X2X2X2X2X2X2X2X2X2X2X2X2X2X2X2X2X2X2X2X2X2X2X2X2X2X2X2X2X2X2X2X2X2X2X2X2X2X2X2X2X2X",
"2X2X2X2X2X2X2X2X2X2X2X2X2X2X2X2X2X2X2X2X2X2X2X2X2X2X2X2X2X2X2X2X2X2X2X2X2X2X2X2X2X2X2X2X2X2X2X2X2X2X2X2X2X2X2X2X2X2X2X2X2X2X2X2X",
"2X2X2X2X2X2X2X2X2X2X2X2X2X2X2X2X2X2X2X2X2X2X2X2X2X2X2X2X2X2X2X2X2X2X2X2X2X2X2X2X2X2X2X2X2X2X2X2X2X2X2X2X2X2X2X2X2X2X2X2X2X2X2X2X",
"2X2X2X2X2X2X2X2X2X2X2X2X2X2X2X2X2X2X2X2X2X2X2X2X2X2X2X2X2X2X2X2X2X2X2X2X2X2X2X2X2X2X2X2X2X2X2X2X2X2X2X2X2X2X2X2X2X2X2X2X2X2X2X2X",
"2X2X2X2X2X2X2X2X2X2X2X2X2X2X2X2X2X2X2X2X2X2X2X2X2X2X2X2X2X2X2X2X2X2X2X2X2X2X2X2X2X2X2X2X2X2X2X2X2X2X2X2X2X2X2X2X2X2X2X2X2X2X2X2X",
"2X2X2X2X2X2X2X2X2X2X2X2X2X2X2X2X2X2X2X2X2X2X2X2X2X2X2X2X2X2X2X2X2X2X2X2X2X2X2X2X2X2X2X2X2X2X2X2X2X2X2X2X2X2X2X2X2X2X2X2X2X2X2X2X",
"2X2X2X2X2X2X2X2X2X2X2X2X2X2X2X2X2X2X2X2X2X2X2X2X2X2X2X2X2X2X2X2X2X2X2X2X2X2X2X2X2X2X2X2X2X2X2X2X2X2X2X2X2X2X2X2X2X2X2X2X2X2X2X2X"
};
