/* XPM */
static char *_f50269488bb47ddf697390c5e9bbb553seD7ScpfTTR7yyc[] = {
/* columns rows colors chars-per-pixel */
"64 64 232 2 ",
"   c #040903",
".  c #181606",
"X  c #0B161C",
"o  c #0A161A",
"O  c #161817",
"+  c #110E07",
"@  c #241707",
"#  c #231817",
"$  c #321A00",
"%  c #17201B",
"&  c #1C221B",
"*  c #2B2B0C",
"=  c #2A261A",
"-  c #36281A",
";  c #393711",
":  c #0C1B21",
">  c #131D24",
",  c #152226",
"<  c #162429",
"1  c #1A242B",
"2  c #1D292E",
"3  c #1C2324",
"4  c #1E2C31",
"5  c #142C33",
"6  c #1E3337",
"7  c #232524",
"8  c #242C2D",
"9  c #292B28",
"0  c #332D25",
"q  c #2D3028",
"w  c #34342D",
"e  c #3C332B",
"r  c #3C3E2C",
"t  c #232D33",
"y  c #253136",
"u  c #253439",
"i  c #2A343A",
"p  c #2C393E",
"a  c #283739",
"s  c #3B3A35",
"d  c #343C3C",
"f  c #3A3D3C",
"g  c #353733",
"h  c #473829",
"j  c #443B33",
"k  c #463A32",
"l  c #3C4239",
"z  c #484838",
"x  c #584737",
"c  c #56533E",
"v  c #54472D",
"b  c #6A533B",
"n  c #654D37",
"m  c #2C3D41",
"M  c #273F41",
"N  c #323D43",
"B  c #383F47",
"V  c #463F40",
"C  c #2E4145",
"Z  c #2D484A",
"A  c #334146",
"S  c #3B4343",
"D  c #344549",
"F  c #39454B",
"G  c #35494C",
"H  c #3B4A4E",
"J  c #314A47",
"K  c #374F51",
"L  c #3C4D51",
"P  c #3D5155",
"I  c #395658",
"U  c #434C4D",
"Y  c #474947",
"T  c #424E53",
"R  c #4A4D58",
"E  c #425256",
"W  c #495354",
"Q  c #445559",
"!  c #49565B",
"~  c #455A5D",
"^  c #4A5A5E",
"/  c #485A57",
"(  c #53595B",
")  c #54504A",
"_  c #655645",
"`  c #665E51",
"'  c #4F685F",
"]  c #5B625F",
"[  c #6B604B",
"{  c #61635A",
"}  c #796655",
"|  c #465E61",
" . c #4C5D62",
".. c #435E69",
"X. c #515E62",
"o. c #4D6265",
"O. c #4E6669",
"+. c #4A6769",
"@. c #526266",
"#. c #536569",
"$. c #59666B",
"%. c #556A6D",
"&. c #5A6A6D",
"*. c #566764",
"=. c #58746A",
"-. c #4D6C71",
";. c #556D71",
":. c #5B6D72",
">. c #586B77",
",. c #5D7275",
"<. c #5D757A",
"1. c #5D797B",
"2. c #557379",
"3. c #626968",
"4. c #616E73",
"5. c #616F78",
"6. c #627376",
"7. c #63757A",
"8. c #69767B",
"9. c #647A7D",
"0. c #6A7A7E",
"q. c #697876",
"w. c #737C7D",
"e. c #747A76",
"r. c #6E736A",
"t. c #876E57",
"y. c #867867",
"u. c #807D74",
"i. c #6A817F",
"p. c #75827E",
"a. c #7D8065",
"s. c #988972",
"d. c #8E8871",
"f. c #A08B7A",
"g. c #5C7B84",
"h. c #667E81",
"j. c #6B7D81",
"k. c #6C7C89",
"l. c #727E83",
"z. c #5F8183",
"x. c #6C8285",
"c. c #6E8589",
"v. c #6E898A",
"b. c #688485",
"n. c #728386",
"m. c #73858A",
"M. c #79868B",
"N. c #748A8D",
"B. c #7B8B8E",
"V. c #778587",
"C. c #78918F",
"Z. c #768E90",
"A. c #7B8E92",
"S. c #788994",
"D. c #7C9294",
"F. c #7E9599",
"G. c #7A9699",
"H. c #6F8090",
"J. c #7D9CA7",
"K. c #818E93",
"L. c #818F98",
"P. c #829396",
"I. c #83959A",
"U. c #849A9D",
"Y. c #8A9A9D",
"T. c #89959A",
"R. c #969B97",
"E. c #939188",
"W. c #A99A88",
"Q. c #8BA49E",
"!. c #B7B48F",
"~. c #A8A194",
"^. c #BCB793",
"/. c #869DA1",
"(. c #8B9DA1",
"). c #929EA3",
"_. c #909EA9",
"`. c #949BB5",
"'. c #818EA1",
"]. c #8CA2A4",
"[. c #8BA5A9",
"{. c #92A3A5",
"}. c #93A5A9",
"|. c #99A6AB",
" X c #95AAAC",
".X c #9AABAD",
"XX c #9AA5A7",
"oX c #95AFB0",
"OX c #9CADB2",
"+X c #9CA7B8",
"@X c #9DB2B4",
"#X c #9AB5B6",
"$X c #97B0AB",
"%X c #A2A9AA",
"&X c #B7B2A7",
"*X c #A1AEB3",
"=X c #A4ACB9",
"-X c #A2B2B6",
";X c #ABB4B6",
":X c #A4B5BA",
">X c #AAB6BB",
",X c #A5BABC",
"<X c #ABBBBE",
"1X c #ABBAB5",
"2X c #B2BBBA",
"3X c #A7B0AB",
"4X c #B1C2BD",
"5X c #CFC5AC",
"6X c #ACBDC1",
"7X c #A8B4C4",
"8X c #B2BEC2",
"9X c #B7BECA",
"0X c #A8B3CA",
"qX c #ADC2C4",
"wX c #AFC4C9",
"eX c #B3C2C6",
"rX c #B4C5C9",
"tX c #BBC5CB",
"yX c #B5CACC",
"uX c #BBCBCE",
"iX c #BBC8C5",
"pX c #BCCDD2",
"aX c #B7C8D0",
"sX c #BDD0D3",
"dX c #C1C9CE",
"fX c #C2CDD3",
"gX c #C3D2D4",
"hX c #CAD5DA",
"jX c #CBD9DD",
"kX c #C7D3D9",
"lX c #D3DFE3",
"zX c #D4E3E6",
/* pixels */
").kX9X<XtXrXrX:XrXOX@XoX#X#X X#X#X}.[..X@XoX].(.#X}.(.}.oX XU.A.U.OX}.I.U.{.(.U.(.(.[.].U.(.}.(.I.U.I.(.|.|.(.L.).OXOX].F.#X#X-.",
"-X*X(.|.OX@XOXwX].U.[. X X[.v.b.Z.N.m.N.Z.m.b.j.x.j.9.x.m.N.Z.I.:.m.M.9.j.x.n.j.9.k.n.8.6.x.A.m.7.7.k.x.l.k.8.8.n.M.(.N.N.b.v.~ ",
"}.M.4.A.I.-X XqXF.x.m.x.N.D.v.Z.L P  .,.x.m.A.I.L  .,.x.x.k.j.7.C o.4.:.5.j.7.7.^  .>.X.$.j.V.7.G ^ :.j.l.5.4.5.E K k.,.1.I -.I ",
"rX.X:.j.x.}. X(.P @.I.@X<X X7.O.6 L 6.I.(.P.8.#.G ^ 7.N.M.6.@. .y E $.#.4.:.X. .i F X.X.! 7.j.$.a L :.j.l.5.$.X.H N 7.:.;.' -.' ",
" X(.~ 9.I.:XsX6X X/.{.[.{. X(.{.I.S.j.j.V.S.K.A.j.j.l.S.B.j.0.j.X.5.8.5.0.5.$.X.R X.$.X.X.k.M.j.%.6.V.S.K.l.5.4.! X.n.7.%.9.,.~ ",
"qX,Xv./.,XZ.7.#.@.E ^ P P Q H E B m N D L E F m D m m m B N B D N N i 2 i m y y i t y 4 t N T N D D D F F F N N B T j.5. .b.%.P ",
"oX[.oXv.qXZ.Z G u 5 y 4 4 t > 1 y 4 > X X > > : : : > 2 4 < > < > 2 > : > 1 > 1 8 : > > > 1 t t 4 1 < > 1 t 8 t > t l.4.@.:.~ J ",
",XoXwXI U.].K %. .G F m m m i D 1 t 4 1 1 t t 1 8 2 y i y 4 t t > y t 8 t > > > > > > t i i y t t t t t 8 > > 1 > t XXm.j.#.| G ",
",X#X9.~ #X(.%. .X. . .! L F T B m B y i t 2 N 1 y y i i i t t t t t t t y 1 > t y > > y m t t N m y 2 t t t t > > B (.4.X.m N I ",
",X#X].[.yXZ.| ,.:.6.n.l.5.&.$.! B T F F m u H m D B F F F N m p m N N B B u t i y y i F F N B B B N N N N N i t t N T.l.5.^ P L ",
"qXwX#XsXpXG. .9.<.j.U.(.A.n.0.$.H ! ! ^ B D Q D T E ! ! ! Q T L B H B B T B i m N D T R R L T Q T P H F B B B m B F (.(.j.h.;.K ",
",XwX,XpXqX(.#.;.,.j.I.(.I.A.n.$. .@.#.@.L L ! L Q ^  .o.$.@.X. .! R H H T B m m F T ! T E X.$.$.| R T T R R E H L F )..X7.m.1.P ",
",XwX#XuX6X(. . .j.N.D.I.I.U.D.7.:.;.6.%.|  .^ K ^ ^  .@.#.#.@.@.>.$.Q E Q H D D T ! ^ E ! $.:.@. . . .| X.&.@.! P L XX X#.h.h.~ ",
",XwXqXkXpXB.L %.m.N.U.U.I.[./.c.%.#.,.#. .@.P G |  .o.#.#.#.O.o.7.:. .E Q L D P E | X. .X.%. .E #.#. . .X.$.$.! ^ Q @X[.O.1.b.+.",
">XtX6XeXhXZ.P #.9.B.].[.U.].U.v.Q P ;.o.Q o.P L | | o.o.%.%.%.:.7.7.%. .^ L L ~ !  .#.#.%.#. .Q o.:.&. . .@. .^ @.^ ,X].i.2.b.o.",
"=XpX>X(.fXY.o.^ %.N. X#X[.].U.b.K P ,.O.~ #.^ | Q |  .O.%.<.9.0.k.j.7.:.%. .^ #. .o.%.;.#. ...#.o.>.7.$. .@.#.$.X.Q @XZ.z.i.1.Z ",
"8X<XB.&.iX{.Q *.=.Q..X@XqX4XU.=.J G H P #.,.:. .D o.%. .o.m.I.9.i.N.B.n.x.x.7.o.| ..| o.;.b.v.m.9.7.7.j.7.$.$.&.&.!  XU.6.J ' Z ",
"eXuX-XY.jX-Xo.6.i.}.$X<XyX6XF.~ G P ^  .%.7.:.| P Q O.:.%.7.D.Y.6.m.D.I.I.G.x.%.P o.;.7.m.F.'.F.m.c.k.7.4.4.&.&.&.*.>X XV.*.9.I ",
"eXhXsXfXzX-X@.x.V.}. X:XyX4XZ.P D P  .O.,.0.7.%.o.Q o.<.,.,.m.I.7.n.B.Z.I.U.I.N.1.h.m.G././.U.F.F.F.c.<.>.j.8.4.$.( <X<X$Xi.v.' ",
"eXhXgXlXjX-X@.V.N. X}.-XyXqXU.-.o.o.O.%.1.x.h.:.%.%.7.v.Z.I.U.N.9.x.N.S.P.(.(.(.D.I.U.U.'./.F.Z.'.F.m.7.7.m.l.8.&.T .XeX4XC.v.' ",
"2XkXdXjXjX1X#.n.P.1X@X<XuXwX-XD.F.C.i.2.1.0.1.O.' o.1.Z.F.F.F.D.7.m.I.(.[.].U.D.D.I.(.(.].{.(.U././.G.k.k.F.S.l.0.^ .X:X4X}.Q.=.",
"qXhXuXtXzXeX&.0.Y.qXqXqXyX,X1X{. X/.c.,.,.9.,.o.O.+.h.].D.,.b.F.Z.P.(.}.{.].(.T.D./.).}.@X.X|.(./.[./.G.F.'.S.l.n.9.4X}. X,XqXi.",
"8XjX8X{.lX<X&.0.P.4XeXwXwX1X@XQ.F.F.v.i.1.b.i.2.N.i.G.$X/.b.v.U.D.I.Y.(.{.{..X-X].XX|..X.X.XXXY.oX[.[.J.F.S.m.k.8.7.eX$X$X$X4XC.",
"8XhX*X8.iXXX#.q.B.4XyXsXuX,X@X].C.F.F.C.c.N.v.b.1.1.v.G.U.].U.x.8.m.I.}..XOX@X-XOX*X.XXX{..XXX{.oXoX[._.F.k.j.j.&.! #XqX4XC.[.C.",
"eX9XV.( 8XT.X.M.j.T.8XfXgXqX.XI.C.v.U.U.N.N.N.F.Z.Z.Z.F.[./.I.[.[.M.F.:X|.6X.X.X{.;X-X%X;X%X).3X{.:X<XA.T.M.5.3.&.F :X].=.' B.c.",
"tXlX8X;XjXR.X.l.l.T.-XrXuX<X{.D.G.v.{.oX[. X(.].U.].[. X#X}.(. XI.I.}.6X+XqX*X>X>X2X2X2X2X2X;X2X<X.X.XR.).R.l.4.*.H -X}.0.v.].i.",
"3XkXdXhXhXK.R 5.V.T..X8XiX6X.XY.:X].oX-X6XyX6X6XU.(.(. X,X XT.(./..X+X=X*X-XV.K.w.q.e.e.e.e.w.e.e.p.3X;XR.K.8.X.( W *X.Xv.[.[.-.",
"2XdX;XfXdXT.T 8.V.P..X8XeX-X.X@X@XI.(. X@X6XOX{.Y.D.N.(.:X|.U.P._.:X{.(.*X|.W B Y i B Y f S Y w q ) R.&X%X&XR.e.( / {.}.x.$XG.K ",
"8X9X%XdX9XM.V 4.e.B.|.>X-X).XX>XY.B._.:X:X=XK.j.).A.l.P.:X:X_.}.U.:X}.).;X=XU p f 8 d B s s g = + ) ~.E.r.u.u.u.] W T.].i.G.2.Z ",
"%X9X2XdXdXl.B 4.l.M.).-X%XY.{.<X).P.*X>X>X-XL.M.(.M.8.K.:X;X|.*XL.7X=X+X:X|.W U 8 9 9 s g w 9 O . _ f.[ ` V k s ] W T.Y.i.b.-.I ",
";XhX9X;XhXM.V l.l.j.K.XX*X{.XX>X|.T.).XX|.=XXX).).K.M.{.8X7X*X6X(.7X*X|..XY.T S > 8 8 q s w = = * v [ c ^.y.= + { W ].A.b.2.2.I ",
"9XkX%XV.2X4.B 8.w.3.4.T.*X.X|.@X}.L.XX=X<XtX>X:X%X|.+X9XhXtX8XdXOXOX(.(.}.Y.T l 7 w 0 w k s 0 0 + b d.[ 5Xc   = { ( OXN.b.i.2.K ",
",XeX6.a .X4.A ( &.( ] i.Y.Q.Y.Q.B.}.OX|.*XeX6X(.(.-X6X8XeX6X>XtX6XoX@XoX{.B.W q # - h n h - - - # _ ~.f.!.; * . l / +X'.g.D ;.%.",
"4X4Xv.0.M.$.N ^ ! ^ &.N.P.D.I.].V.K.P.A.T.|.+X).eX=X}.*X9X<XOX:X:XOX@XOX7X].Y = @ h n b t.n - h # V W.s.!.; ; ; 7 K `.`.k.h.i.+.",
"#XQ.P..X#.H i W ^ ^ &.M.Y.].U.I.M.S.S.K.I.{.|..XfX*X(.|.6X*X(.OX(.Y.].[.wX.XY = @ v n $ t.n $ k # Y ~.y.!.; v r 7 R `.0X X,XQ.=.",
"].,.D.].*.p p T *.( 4.D..X-X}.Q.P.P.Y..X*X*XOX:X:XOX|.OXOX{.).=XI.Y.I.F.<XU.l g @ t.y.n f.t.@ k # k ~.d.!.* v r 7 R +X0X+X4X$X=.",
"I.%.6.0.*.F t U T X.0.P.Q.{..X-XOX|.OX6X6XOX.X@X(.:XOX(.I./.{.:X}.OX_.S.(.0.d z - _ y.n y._ # k # V ~.y.W.* v l 3 R 7X+X#X#X X*.",
"N.6.~ ' Q Q X S F W $.j.P.]. X$X6X,X6X6X7X X}. XOX,X}.M.V.(.(.(.).).D.j.x.$.d Y - k f.y.y._ h 0 O Y ~.r.r.* c l 3 R 9X7X7X[.].=.",
"N.9.%.H D H X p H H / 4.C.{.{.Q.6X6X6X6X,XOX}.OX:X,X[.M.A.U.A.j.l.7.<.>.5.X.S ) k k x h - - e s O R E.{ z . z q O B =X7X_.m.x.' ",
"N.1.Z.l T p 8 p d L $.q.V.P.].}.}.oX,X6X6XOX X X:X,XoX(.(.F.j.6.8. .X.%.>.$.S f k k h k k e s g X R e.j &   q & 8 R +XrXI.x.9.=.",
"I.%.P 4 H l 4 2 N T ' &.0.N.D.D./.oX:XOX XOX:X,X XoXOX}.U.Z.j.7.5.@.E  .>.^ N d 0 j j h k w 9 Y o / ] %   O   + 9 R 2X7X).P @.B.",
"I.=.^ J P A 2 y d H E @.,.V.C.P.(. X X}.}.oXOXOX X.XOX|.(.Z.n.j.0.6. .o.>. .F S z g e e s Y R d o S &.l %     o t ( eX<X).7.7.9.",
"C.1.' ^ E S < p A F E / &.v.I.Q.{.[.(.].}..X X[.U.Q.].].U.I.Z.B.8.9.>.>.2.#.U J z 9 w w 9 U ..> 3 F V.K.q.&.B O 8 *.iXiX|.@X X,.",
"B.7.^ @.H J X p d D T o.6.V.P.U./.(.(.(.].[.(.I.D.F.U.U.K.Z.N.N.7.x.h.1.2.o.C 2 % O 7 7 o < 6 : o m V.P.P.XXw.N l &.eXdX.XkXpX7.",
"D.1.^ @.H S X p i A E $.9.x.B.D.C.G.F.Q.].F.G.C.F.U.U.F.C.c.b.0.j.N.b.1.-.I 6 , o % % % % o : 5 5 K n.j.8.L.K.w.=.r.4XgX.XgXaX7.",
"U.0.*.' Q J 3 y d H *.8.n.p.v.B.v.C./.]./.F.D.G.C.G.F.F.Z.v.c.b.c.C.v.i.2...I ~ / / Y Y ~ +...g.b.1.F.S.k.S.l.K.p.r.4XgX;XeX9Xc.",
"I.i.6.~ ! A 1 8 S E &.i.0.9.0.N.v.N.F./.U.F.D.F.c.N.D.G.D.N.x.c.b.v.b.z.g.-.-.b.0.q.q.q.i.N.J.J.J.H.H.S.F.S.5.q.q.] 1XiX<X|.+Xk.",
"C.9.0.~ / p 2 2 N T *.6.:.*.:.x.x.b.N.Z.D.N.N.G.N.D.D.D.N.b.1.,.b.v.b.z.2.I I 2.' ^ p.i.o.1.G.g.b.Z.m.-.<.m.5.8.*.( 1X2X-XN.S.O.",
"U.9.^ < X.F y m B T X.$.5.j.l.5.x.9.c.x.x.Z.b.m.i.x.F.F.h.9.b.;.2.9.1.o.~ O.-.o.%.%.o.~ ~ ;.1.h.j.0.7.,.:.:.:.:.$.$.-X(.Y.| L 7.",
"D.7.%.G 4.T y y N U X.X.4.8.l.8.9.,.1.1.9.c.9.x.b.0.N.N.9.;.%.;.%.,.%.~ I O.O.| %.%.o.I ~ +.,.7.9.7.7.7.,.:.%.$.6.H OX(.q. .7. .",
"D.9.9.,.0.! t y t B R X.$.5.5.5.:.#.>.#.;.0.1.b.b.0.9.b.9.o.~ :.%.;.%.~ ~ %.#.o.%.o.| ^ | o.%.,.:.:.;.%.#.o. . .>.m (.A.#.:.M.P ",
"Y.x.0.n.7.T 4 t t N B R X.X.$.$.o.P o. .#.<.%.9.6.0.6.%.,.~ L O.@.%.o.P ~ o.o.| ~ K P  .o. .@.>.@. .^ L L L ^ | L L (.j.j.j.j.P ",
"U.b.x.m.6.T 1 t t y B T R ! X.X.L D Q | @.:.@.%.@.<.%.^  .Q L Q ~ ~ E H L ^ ^ L G D P ^  . .^  .E L H D D G L Q D G (.8.7.h.0.L ",
"Z.0.m.x.m.! 1 1 t y N H T T H L L K  . .#.:. .X.~ @. .L K L H G P P P H L L L K C D H ~ | ! L L D G D G G G F K L 4 U.m. .#.n.D ",
"Z.c.N.,.D.X.t 1 > t N F E H F L ! E $.#.$.:.!  .Q T E E H F L F F L P L L L H F m D H H L L L D Z D G G H G D C G 4 I.m.@.Q :.D ",
"U.G.D.O.U.*.y 4 > t N T E H G H ^ ! X. .X.X.L L  .D T X.L D L L p D L H D D N m p D D C D L E D H D D C C D D D a C S.h.M. .G L ",
"F.D.o.C n. .4 > t 1 i H L H D m L  . .Q L L L H L F F L L N p A m N p C F m i A p A A m m D D B N C m m m m m m 6 C m.j.7.4 D G ",
"#XF.1.9.I. .m Q R F F E T Q ^ ~ T  .$.$.&.:.$. .X. . .@. .Q E  .E E E E  .Q L Q L T L L L T L F G G L L K L K G D | m.o.@.H o.L ",
"].[.U. X:X:X.X8X7XOX=X>X:X,X6X6XpXfXsXuXtXpX6XOX6X,X6XrXqXOX X@X<X6X:X@X:XOX XOX-X.X X.XOX X{. X(.}.OX.X XOXOX{.}.].|.:.#.| :.D ",
"oX#X XoXZ.I.m.j.0.5.0.K.A.I././. XoX XU.A.D.A.S.j.j.x.Z.M.j.8.m.m.N.j.7.9.7.h.M.x.7.9.0.j.6.6.j.#.7.j.j.6.0.n.n.x.&.%.L ^ ^ #.P ",
"oXG.v.#X].D.8.m.X. .:.j.n.A./.(.o.x.F.F.N.N.B.D. .|  .6.0.0.x.N.Q O.#.%.6.7.9.x. .o.%.9.,.O.O.:.G  .6.>.:.:.8.j.;. .o.L P E ^ M ",
"#XJ.G.$XY.S.7.&.D L &.m.M.x.x.7.C %.I.].D.c.0.6.C K O.n.D.v.,.%.M Q @.%.7.<.:.:.J P %.<.:.o.~ P 6 P :.6.,.7.h.7.4 D Q D G &.:.D ",
"#XoX[.Q.[.U.A.7.Q X.j.F.Z.c.9.;.%.c.U.U.Z.x.<.%.I o.7.F.[.N.%.~ I ,.1.1.9.1.%.%.I O.;.2.;.%.o.P L @.7.6.7.n.j.,. .:.:.Q L o. .C ",
"z.+.=.-.j.Q E X.Q F E ^ L L Q Q I ' ~ K P I I Z | G Z P ~ I K Z C P P J Z G Z K K J C u C Z C 5 C G C p C L G u P C m m 6 u m m "
};
