/* XPM */
static char *e76514830e83415c8792ba91c15a6f8bY6WFuzDQK9t9R2c9[] = {
/* columns rows colors chars-per-pixel */
"64 64 158 2 ",
"   c None",
".  c #E6893B",
"X  c #E88B3B",
"o  c #EA933D",
"O  c #EB9A3F",
"+  c #E78E41",
"@  c #E88E42",
"#  c #E99146",
"$  c #EC9E42",
"%  c #E4934E",
"&  c #E9944C",
"*  c #EB9B49",
"=  c #E99752",
"-  c #E79957",
";  c #EA9953",
":  c #EA9E5C",
">  c #EEA444",
",  c #EEAB42",
"<  c #ECA24A",
"1  c #EFA848",
"2  c #F0AB45",
"3  c #F1AC4B",
"4  c #EFB243",
"5  c #F3B543",
"6  c #F4BC44",
"7  c #F3B44D",
"8  c #F4BC4B",
"9  c #ECA353",
"0  c #EEA855",
"q  c #EBA25A",
"w  c #EDAA5E",
"e  c #F0AE56",
"r  c #F0AF5C",
"t  c #F3B452",
"y  c #F4BB55",
"u  c #F1B35D",
"i  c #F5BE5B",
"p  c #EBA264",
"a  c #EEAE62",
"s  c #EBA66B",
"d  c #ECA96F",
"f  c #EFB465",
"g  c #EEB16A",
"h  c #F0B566",
"j  c #F3BA63",
"k  c #F0B76C",
"l  c #F2BC6C",
"z  c #EDAC75",
"x  c #EDAF7A",
"c  c #EEB174",
"v  c #EEB17D",
"b  c #F2BC73",
"n  c #F1BD78",
"m  c #F6C346",
"M  c #F5C947",
"N  c #F6C44A",
"B  c #F7CB49",
"V  c #F8CF49",
"C  c #F6D34A",
"Z  c #F8D34B",
"A  c #F7DC4B",
"S  c #F9DB4C",
"D  c #F6C051",
"F  c #F7CE51",
"G  c #F5C15D",
"H  c #F9D653",
"J  c #F8D75C",
"K  c #F9DA5A",
"L  c #FAE14E",
"P  c #FAE550",
"I  c #FAE952",
"U  c #F6C563",
"Y  c #F7C966",
"T  c #F8CD62",
"R  c #F4C36B",
"E  c #F7CC6B",
"W  c #F8CF6D",
"Q  c #F8D365",
"!  c #F7D16F",
"~  c #F8D16E",
"^  c #F9DB6C",
"/  c #F3C273",
"(  c #F6CC74",
")  c #F8CF70",
"_  c #F2C47F",
"`  c #F5CC7D",
"'  c #F7D271",
"]  c #F8D473",
"[  c #F9D976",
"{  c #F7D57B",
"}  c #F8D67A",
"|  c #F9DB7B",
" . c #FAE17E",
".. c #EEB482",
"X. c #EFB788",
"o. c #EFB98B",
"O. c #F0BC82",
"+. c #F0B98B",
"@. c #F0BE93",
"#. c #F3C483",
"$. c #F5CD84",
"%. c #F2C48A",
"&. c #F5CB8C",
"*. c #F7D581",
"=. c #F7DB80",
"-. c #F9DD84",
";. c #F7D48C",
":. c #F7D88D",
">. c #F8DD8E",
",. c #F2C494",
"<. c #F4CD94",
"1. c #F1C39B",
"2. c #F4CF9E",
"3. c #F6D394",
"4. c #F8D992",
"5. c #F6D399",
"6. c #F8DB9E",
"7. c #FAE383",
"8. c #FAE887",
"9. c #F9E48A",
"0. c #FAEB8C",
"q. c #F9E393",
"w. c #FAED94",
"e. c #F7E09F",
"r. c #F9E29E",
"t. c #FAEF99",
"y. c #FBF395",
"u. c #FBF49B",
"i. c #F2C7A3",
"p. c #F3C9A5",
"a. c #F2CCAB",
"s. c #F5D3A1",
"d. c #F7DBA5",
"f. c #F8DCA5",
"g. c #F6D5AB",
"h. c #F6DBAD",
"j. c #F8DFAD",
"k. c #F5D3B6",
"l. c #F6DDB5",
"z. c #F9E5A3",
"x. c #F8E3AB",
"c. c #FAEBAC",
"v. c #FAF5A4",
"b. c #FAF5AB",
"n. c #F6E3B7",
"m. c #F8E2B3",
"M. c #FAE8B5",
"N. c #F7E7BA",
"B. c #F9E7B9",
"V. c #FAEABB",
"C. c #F9F5B4",
"Z. c #F9F4BB",
"A. c #F9EBC2",
"S. c #F9F6C5",
"D. c #FAF7CA",
"F. c #FAF8D1",
"G. c #FAF8D9",
"H. c #FCFBEA",
/* pixels */
"                                                                                                                                ",
"                                                                                                                                ",
"                                                                                                                                ",
"                                                                                                                                ",
"                                                                                                                                ",
"                                                    p.a.                                                                        ",
"                                                    d v                                                                         ",
"                                                    ; @                                                                         ",
"                                                    # X :                                                                       ",
"                                                    X X X z                                                                     ",
"                                                    @ X X X X.                                                                  ",
"                                                    & X X X @ p.                                                                ",
"                                                    q X o O X *                                                                 ",
"                                                    O.o O 5 O O %.                                                              ",
"                                                      > $ 2 > $ g                                                               ",
"                                                      %.$ > > > a                                                               ",
"                                              s.        h 1 1 1 u         n l.                                                  ",
"                                              s.#.        t 3 3 j       g.3                                                     ",
"                                                l _       <.t t /       b 7                                                     ",
"                                                &.t 3.      R y $.      j t h.                                                  ",
"                                                ;.y j       ;.i d.      i i 5.                                                  ",
"                                                / U G {     d.Y       m.U U `         l.                                        ",
"                                  h.          j.Y Y Y Y     B.;.      x.Y Y Y         f.                                        ",
"                                  $.          ( E E ) ~ x.            m.W ] E x.    d.f.                                        ",
"                                $.3.        4.~ ~ G ] [ r.            M.[ ] ] *.    :.d.                                        ",
"                              n.G l.      N.] ] U D [ | z.            B.[ | [ [ x.  *.:.                                        ",
"                              ( U         -.[ ' y i  . .c.            c. .| [ | -.B.{ }                                         ",
"                            m.U E       V.[ | Y 7 G 7.8.Z.            t.8.| U |  .-.[ [ B.                                      ",
"                            $.Y (       r.| | G t ! 0.0.      S.    S.y.0.] i Y [ | | [ 4.                                      ",
"                            Y E ]       9.7.| i G | y.u.      C.S.H.v.y.0.Y G i i i W | | V.                                    ",
"                          3.Y E ]       >.7.[ G Y 8.y.b.      b.C.C.u.u.[ Y U i i i i [ | -.                                    ",
"                          E Y W }       7.8.| U ! y.u.Z.    S.v.v.b.v.9.] E G 5 8 G i Y | [ z.                                  ",
"                        f.U E ~ ]       9.8.[ Y | u.u.F.    b.v.v.q.9.[ } Y 8 6 6 i G i W [ [ M.                                ",
"                        $.Y E ~ ]       8.8.| E 8.u.v.    Z.v.v.9.7.-.[ T N 6 6 6 8 G G G ~ [ }             h.                  ",
"            <.          E Y Y W ] x.    9.8.| W 8.u.v.G.D.b.v.t.0.9.^ N m m m m m 6 D G i G ] ] *.          6.l.                ",
"            u           j Y G W ! >.    >.8.7.W | y.u.v.v.v.v.t.t.7.F N M B m m m 6 m D G y G W W ;.          l                 ",
"            3 <.      4.G U y G ~ ]     q.7.7.] } 7.w.w.t.w.w.y.8.J V V B B B M m m m 6 y y y i W U 4.        l &.              ",
"          2.2 u       ` i i 7 y E ^ r.  z. .7.] ] } | -.7.9.9. .J Z Z Z V V B B B M M m m y t t G U U f.      _ e               ",
"          %.2 2 b     R i i 7 7 U E ] V.A.| 7.} ) ] ] ^ ^ ^ J S Z S Z Z Z Z Z V V B M M m 6 8 t 7 i G j       &.2 #.            ",
"          b > 3 3 l 5.j i i 8 7 t Y W { f.| [ } ) ] Q S S S S S S S S S Z Z Z Z V B B N M M 6 7 8 y i y /     #.2 r             ",
"          a > 2 7 3 t t t i 8 8 7 t U E ' ] ] ] Y W Q S S L L L L L S S S S S Z Z Z M M N M m 8 8 8 y y t s.  l 1 >             ",
"          e > 2 N N 8 8 8 8 8 8 8 7 t y U Y Y U U Y H S S P P P L L L L S S S Z Z Z V V M m m 6 8 8 8 t 3 l   e > $ O.          ",
"          * $ 5 V B m m N 8 m 6 6 8 8 7 t t y y G S S L P P P I I L L L L S S Z Z Z Z B B M M m 6 8 8 8 3 e h > > O a           ",
"          $ > 2 V V m 6 6 6 6 m m N N N y N F V S S S L P P I I I I I I L S S S Z Z V V M M m 6 6 N N 8 7 2 1 > > $ 9           ",
"          $ O 5 Z Z 6 5 6 6 6 m m m B V V Z Z S Z S S L L I I I I I L L L L S S Z Z Z B B m M m m m N B m m 6 6 2 o *           ",
"          o # 5 Z V 6 5 5 6 6 m m m m N N N N B Z S S L L L L L I L L L L S S Z Z Z V B V m m m 6 6 6 N M V V Z 2 o *           ",
"          o o 6 Z V 6 5 5 6 6 6 m m N 8 N 8 8 7 8 8 Z S S L L L L L L S S S S Z Z V V V B m m 6 6 6 6 5 6 m Z C , O *           ",
"          X X 6 S Z 6 5 5 5 6 6 m N N N 7 7 7 7 8 8 8 Z S S S S S S S S S Z Z Z Z V B m m m m m 6 6 6 5 5 M C C > X ;           ",
"          X X 6 A C m 5 5 5 6 6 m B N 7 2 2 3 3 7 8 N N Z Z S S S S S Z V Z Z C V V M m m m m 6 6 6 5 5 5 C A M O . p           ",
"          X X 2 A A m 5 5 6 6 m C B m > < n k 1 3 8 N N V Z Z Z V Z V V Z C B B M M m m m m 6 6 6 5 5 5 m C A 6 . . ,.          ",
"          # . 2 A A M M C C C C Z B 5 O <   <.> 1 8 N B V V V Z V V V V B M M M m m m m 6 6 6 6 5 5 5 5 C A A $ . &             ",
"          & X O A A A A C m 6 6 B V > O w   g.$ $ 8 B B B M B V V B M B B M M m m m m m 6 6 5 5 5 5 5 B A A 5 . . +.            ",
"          s . O C L A C , o . . O m O X c     * O 2 C B B m m m m M M m m m m m m m m 6 6 6 5 5 5 5 V A A 6 o . p               ",
"          +.. X m A L 6 . . - @ . O o X +.    q o O B Z Z m m m m m m 6 m M V V Z Z V m 6 5 5 5 m Z A S 6 o . q                 ",
"            X . , A C > X &   : X X . X @.    ..X O m C C m 6 6 6 6 6 m V A A V M M A S C m 6 C S A C , . . p                   ",
"            p . o C M o . ..  o.X X X . +.      X X 5 A A C C V m 6 m Z A C 4 o X o , C A A A A Z 6 O . o ..                    ",
"              X . 4 6 . .       @ X X X z       # . > A C C C A S V C L C , . . . X X 6 L A C 6 O . X s                         ",
"              p . o O . &       c . X X :       s . o > o o $ m S S L V , . X w % X # m M , o . X s                             ",
"                # . o . &         & . . @         X . . # # X O C A m O . # o.v X X o O . . & v                                 ",
"                  @ . . #         i.@ . X ..      s @ p   z . o 6 , X . q   ,.+ . . X & d                                       ",
"                    # . X           1.@ = 1.              q X X X . & @.  @.. @ - v                                             ",
"                      p . d             p a.            @.. . X ; +.    @.z @.                                                  ",
"                        1.p                           +.# = z                                                                   ",
"                                                      1.k.                                                                      "
};
