/* XPM */
static char *_2530b3c4f59458ef00ead87bd4e6558QlPeVNMbHBc0RE1b[] = {
/* columns rows colors chars-per-pixel */
"64 64 155 2 ",
"   c None",
".  c #E78837",
"X  c #E78B3E",
"o  c #E88B3B",
"O  c #EA933C",
"+  c #EB9A3E",
"@  c #E88E41",
"#  c #E99044",
"$  c #EC9D41",
"%  c #E9934B",
"&  c #E99751",
"*  c #EA9A55",
"=  c #EA9D5C",
"-  c #EEA343",
";  c #EEAB42",
":  c #EDA149",
">  c #EFA849",
",  c #F0AD46",
"<  c #F1AC4B",
"1  c #EFB343",
"2  c #F3B543",
"3  c #F4BB44",
"4  c #F3B44D",
"5  c #F5BC4B",
"6  c #EDA456",
"7  c #E7AC54",
"8  c #EFAC53",
"9  c #ECA35B",
"0  c #EEAA5A",
"q  c #ECB152",
"w  c #F3B552",
"e  c #F4BB55",
"r  c #F2B75B",
"t  c #F5BD5B",
"y  c #EBA263",
"u  c #EBA66B",
"i  c #EDA86C",
"p  c #EFB86E",
"a  c #F0B464",
"s  c #F4BE64",
"d  c #F2B969",
"f  c #ECAB73",
"g  c #EDAF7A",
"h  c #EFB376",
"j  c #F3BD73",
"k  c #F0BB7A",
"l  c #F6C346",
"z  c #F5CA47",
"x  c #F6C34A",
"c  c #F7CB49",
"v  c #F8CF49",
"b  c #F6D44A",
"n  c #F8D34B",
"m  c #F7DC4B",
"M  c #F9DB4C",
"N  c #F5C156",
"B  c #F7CA54",
"V  c #F8CE50",
"C  c #F5C15D",
"Z  c #F8CE58",
"A  c #FAE04E",
"S  c #F6C563",
"D  c #F7C966",
"F  c #F8CE67",
"G  c #F5C36B",
"H  c #F7CB6A",
"J  c #F8CE6D",
"K  c #F8D06E",
"L  c #F4C573",
"P  c #F6CC77",
"I  c #F8CF70",
"U  c #F4C57D",
"Y  c #F5CB7D",
"T  c #F7D073",
"R  c #F8D473",
"E  c #F9D876",
"W  c #F7D47C",
"Q  c #F9D679",
"!  c #F7DA78",
"~  c #F9DC7C",
"^  c #FAE27F",
"/  c #EFB482",
"(  c #EFBB87",
")  c #EFB98B",
"_  c #F0BB8B",
"`  c #EFBE94",
"'  c #F0BE93",
"]  c #F2C587",
"[  c #F5CC82",
"{  c #F1C28F",
"}  c #F6CC88",
"|  c #EEDB87",
" . c #F6D684",
".. c #F7DA85",
"X. c #F9DD82",
"o. c #F7D78B",
"O. c #F5D88F",
"+. c #F8DA89",
"@. c #F1C095",
"#. c #F4CE95",
"$. c #F1C39B",
"%. c #F3CC9B",
"&. c #F5D396",
"*. c #F7DA95",
"=. c #F8DF93",
"-. c #F5D79C",
";. c #F7DA9B",
":. c #F9E283",
">. c #FAE887",
",. c #F9E58B",
"<. c #FAEB8B",
"1. c #FBF08F",
"2. c #F9E490",
"3. c #FAED92",
"4. c #F7E799",
"5. c #F9ED9A",
"6. c #FBF294",
"7. c #FCF59C",
"8. c #F2C7A2",
"9. c #F3CCAB",
"0. c #F5D5A6",
"q. c #F7DCA1",
"w. c #F4D5AE",
"e. c #F8DEA9",
"r. c #F5D7B6",
"t. c #F6DBB1",
"y. c #F8E5A2",
"u. c #F9ECA6",
"i. c #F7E5AF",
"p. c #F8E6AB",
"a. c #FAF5A3",
"s. c #F9F5AC",
"d. c #F7E2B5",
"f. c #F9E3B3",
"g. c #F9EAB2",
"h. c #F9E4BA",
"j. c #FAEAB9",
"k. c #F9F3B3",
"l. c #F7F0BC",
"z. c #F9F4BB",
"x. c #F7E6C0",
"c. c #F9E4C2",
"v. c #FAEDC4",
"b. c #FAEBC9",
"n. c #FAF4C5",
"m. c #FCF8C0",
"M. c #FAF4CB",
"N. c #FAF7D5",
"B. c #FBF8D0",
"V. c #F9F7DC",
"C. c #FAF9D9",
"Z. c #FBFAE3",
"A. c #FCFBEE",
"S. c #FBFAF1",
"D. c #FFFEFE",
/* pixels */
"                                                                                                                                ",
"                                                                                                                                ",
"                                                                                                                                ",
"                                                                                                                                ",
"                                                                                                                                ",
"                                                                                                                                ",
"                                                                                                                                ",
"                                                                                                                                ",
"                                                                                                                                ",
"                                                                                                                                ",
"                                                                                                                                ",
"                                                                            `                                                   ",
"                                                                            f                                                   ",
"                                                                          _ u                                                   ",
"                                                                          % f                                                   ",
"                                                                        g . '                                                   ",
"                                                                        @ O                                                     ",
"                                                                      9 O 9                                                     ",
"                                                                    %.+ + _                                                     ",
"                                                                    0 - :     @.      r.                                        ",
"                                                                    < - a     j     k t.                                        ",
"                                                                  #.< < %.  #.d     8 t.                                        ",
"                                                                  } w r     L r   c.< w.                                        ",
"                                                                  } e G     s t r.t.4 #.                                        ",
"                                                                  &.C &.    S t [ &.e Y                                         ",
"                                                              d.  e.D h.  c.D S S G C L     t.                                  ",
"                                                              O.  v.I     h.J H H D D S b.  &.                                  ",
"                                                            b.~     ..    j.R R D S H H q.  [                                   ",
"                                                            i.! M.  y.    j.! E H t J T W h.P                                   ",
"                                                            ,.:.v.  M.    j.^ ^ I S H R R o.J h.                                ",
"                                            *.            n.>.>.z.        n.>.>.R H D R W R K *.      &.                        ",
"                                            W i.          5.<.6.z.        M.6.<.~ J J H K R R W       d.[                       ",
"                                          j.K =.        k.1.6.6.m.        B.6.6.X.Q J H D H E R f.      G &.                    ",
"                                          ..E X.      n.6.7.7.7.n.    S.D.M.7.7.X.Q J H D D R R  .      Y t                     ",
"                                        f.R E ^ M.    3.6.7.a.a.B.  S.C.D.z.a.7.X.E F t D S D E K +.    } e L                   ",
"                                        Q R E ! j.M.3.1.3.3.a.a.C.  A.z.V.k.a.6.~ E S 3 C D t D K J ;.  [ t e                   ",
"                                      o.K K E ! ,.<.<.<.~ ,.a.s.Z.  A.s.s.s.a.,.Q Q N 3 3 N t t D J J -.G t e U                 ",
"                                    ;.H J S D Q ! :.X.R R 3.7.s.  D.V.s.a.a.5.~ Q J x 3 3 3 t e t D D D t t e a                 ",
"                                  t.S H C e e C S D D H E 6.7.z.  D.n.7.7.,.Q T J B l l l 3 5 e 4 e C C t e e w                 ",
"                                  S t S w 4 4 e e t S S ! <.6.M.    s.7.3.Q J F v c c x l l 3 3 4 4 4 5 5 5 w < 0.              ",
"                                G e t e 5 4 5 3 x e t S ~ >.5.l.  C.3.6.^ H S Z n v v c l l l l 5 2 2 5 5 5 w < ]               ",
"                              U w e 5 5 5 3 l l x w e H ~ ^ | 4.  u.>.:.H S C M n n v c v l l 3 3 2 3 5 x x 4 < a               ",
"                            -.< 8 e x x 5 l l l x 4 w S E E E y.v.:.^ R t t B M M n n v c l l l 3 3 3 3 x x 5 > <               ",
"                            8 < 4 x x 5 3 3 l l x 4 4 4 D R E i.2.E R t e e M M M n n v c c l 3 3 3 3 3 x c 5 - :               ",
"                          k - > x x x 3 3 l l l x 5 4 5 C J I O.R T C w 4 c A M M n n v c l l l l 3 3 3 x v 3 - - 8.            ",
"                          : $ 2 v c l 3 3 l l 5 5 5 e N C S H H H S e 4 e M A M M n n v c c l l 3 3 3 3 c v x - + {             ",
"                        @.O $ l n c 2 3 3 l x x 5 e t t t C N N N 5 5 5 n M M M n n n c c l l l 3 3 2 2 v n c + O (             ",
"                        i O $ v n c 2 3 3 3 c c e w w q e e x 5 5 x c n M M M n n n c c l l l 3 3 2 2 3 v n l + O (             ",
"                        * o - n m z 1 2 2 z b c 4 < q 7 4 w x x x n n n n n n n v c z z l l l 3 3 2 2 2 b b z O O `             ",
"                        * o - m m z 1 2 2 v z z > - p a < 4 x c c v n n v v c c z z l l l 3 3 3 2 2 2 3 b m 3 X o               ",
"                        * . + n m z 1 1 l m b 3 : - %.a - < v v c v v v v c z l l l l 3 3 3 2 2 2 2 2 l m m ; o @               ",
"                        i . O b A b 3 1 z m b ; + 9   8 $ , 3 , , 2 z v v c l z l l z l z z z l 2 2 3 n m b + o =               ",
"                        @.X X l m m l 1 m m z + O h   6 + $ + $ $ $ - c b b b v n n m m n M m M n l z m m 2 X o @.              ",
"                          % . $ m m b l m m l O o @.  y o + O 6 @.$ + ; c b b m M z 2 ; ; - ; z m m m m z + o *                 ",
"                          ' X o 1 m m b m m 1 X o     h o o O *   u o O O $ z v ; O . . X X X + n m A b ; . O                   ",
"                            y . O z m m m m 1 X X     8.o o o %   ) . y * . O O . % i % ) u . X z A b - . . @.                  ",
"                              % o + l M A m 3 X .       * . X X     &     @ . X u         u . $ b x $ X @ @.                    ",
"                                & o O 2 b A z O X f     ' X . y           y . g           % . $ ; O . *                         ",
"                                  f o o + 3 z ; o X $.    u . i           _ y           _ . X . o # /                           ",
"                                      y O . O O X o @ $.    y &                         % . . % g                               ",
"                                          _ i * % @ o X 8.    '                       = . * _                                   ",
"                                                      8.$.                          / f 9.                                      ",
"                                                                                                                                ",
"                                                                                                                                "
};
