/* XPM */
static char *d9c94f342a774862df1fca8a0b273023dHe2nf7syFBFz0zp[] = {
/* columns rows colors chars-per-pixel */
"64 64 172 2 ",
"   c None",
".  c #E78939",
"X  c #E88B3B",
"o  c #EA923D",
"O  c #EB9A3F",
"+  c #E88E41",
"@  c #E99346",
"#  c #EC9D42",
"$  c #E9944C",
"%  c #EB9B4C",
"&  c #E99650",
"*  c #EA9954",
"=  c #EA9E5D",
"-  c #EEA343",
";  c #EEAC42",
":  c #EEA54A",
">  c #EFA94B",
",  c #F0AA46",
"<  c #F1AB4A",
"1  c #EFB343",
"2  c #F3B544",
"3  c #F5BC45",
"4  c #F3B34D",
"5  c #F5BC4B",
"6  c #EDA353",
"7  c #EEAA52",
"8  c #EAA35E",
"9  c #EEAB5B",
"0  c #F0AF5C",
"q  c #EBB454",
"w  c #F3B552",
"e  c #F4BB55",
"r  c #F0B158",
"t  c #F5BD5B",
"y  c #EBA464",
"u  c #EDAE64",
"i  c #ECA66A",
"p  c #EDA96C",
"a  c #EFB064",
"s  c #E6B76B",
"d  c #EFB46B",
"f  c #F1B563",
"g  c #F3BA64",
"h  c #F2BB6B",
"j  c #EDAB73",
"k  c #EFB475",
"l  c #EEB17C",
"z  c #F2BD74",
"x  c #F6C346",
"c  c #F4C947",
"v  c #F6C44A",
"b  c #F7CB49",
"n  c #F8CF49",
"m  c #F6D34A",
"M  c #F8D34B",
"N  c #F7DC4B",
"B  c #F9DB4C",
"V  c #F6C553",
"C  c #F7CB54",
"Z  c #F8CE52",
"A  c #F5C15D",
"S  c #F7CA5B",
"D  c #F7D156",
"F  c #F8D554",
"G  c #F9DB52",
"H  c #F8D259",
"J  c #FAE24F",
"K  c #FAE550",
"L  c #EFC76D",
"P  c #F6C463",
"I  c #F7C966",
"U  c #F4C66E",
"Y  c #F7CB6A",
"T  c #F8CD6C",
"R  c #F8D465",
"E  c #F7D16F",
"W  c #F8D16E",
"Q  c #F9DA6B",
"!  c #F4C474",
"~  c #F5CB73",
"^  c #F8CF70",
"/  c #F3C37C",
"(  c #F6CC7C",
")  c #F8D473",
"_  c #F9D876",
"`  c #F7D27B",
"'  c #F9D779",
"]  c #F9DB7C",
"[  c #FAE17F",
"{  c #EFB683",
"}  c #EEBA8C",
"|  c #F0BA8B",
" . c #EEBB90",
".. c #F0BD92",
"X. c #F2C787",
"o. c #F5CC81",
"O. c #F3C48A",
"+. c #F5CC8C",
"@. c #F7D181",
"#. c #F9DE83",
"$. c #F4D28F",
"%. c #F8DB8D",
"&. c #EEC099",
"*. c #F1C195",
"=. c #F4CE96",
"-. c #F2C49B",
";. c #F3CB9B",
":. c #F5D494",
">. c #F8DC95",
",. c #F6D49A",
"<. c #F8DF9E",
"1. c #FAE384",
"2. c #FAE887",
"3. c #FAE58C",
"4. c #FAEA8C",
"5. c #F9E494",
"6. c #FAEA92",
"7. c #F9E69C",
"8. c #FAEC9B",
"9. c #FBF294",
"0. c #FBF39D",
"q. c #F0C6A2",
"w. c #F4CDA3",
"e. c #F3CDAB",
"r. c #F5D3A4",
"t. c #F7DAA3",
"y. c #F8DDA0",
"u. c #F5D4AC",
"i. c #F7DBAD",
"p. c #F8DCAB",
"a. c #F5D3B3",
"s. c #F5DDBB",
"d. c #F6DEB9",
"f. c #F7E1A7",
"g. c #F7E2A6",
"h. c #F7EDA2",
"j. c #F9E9A2",
"k. c #F9EAA3",
"l. c #F9E4A8",
"z. c #F9E3AE",
"x. c #FAF5A2",
"c. c #FAF2A5",
"v. c #FAF5A4",
"b. c #FAF5A9",
"n. c #F7E0B4",
"m. c #F8E1B0",
"M. c #F9E9B3",
"N. c #F9E9B6",
"B. c #F9E6BB",
"V. c #F9E8BA",
"C. c #FAEBBF",
"Z. c #FAECBE",
"A. c #F9F4B2",
"S. c #F6DFC4",
"D. c #FAEBC2",
"F. c #FAECC5",
"G. c #F9E8C6",
"H. c #F7E1CE",
"J. c #FAE9CA",
"K. c #FAEFCE",
"L. c #F9F6C1",
"P. c #F9F6C2",
"I. c #FAF7CA",
"U. c #FCF9CE",
"Y. c #FAEBD0",
"T. c #FAF3D3",
"R. c #F9F5D3",
"E. c #FBF9D9",
"W. c #FBF9DC",
"Q. c #FBFAE9",
"!. c #FDFCF4",
"~. c #FEFEFF",
/* pixels */
"                                                                                                                                ",
"                                                                                                                                ",
"                                                                                                                                ",
"                                                                                                                                ",
"                                                                                                                                ",
"                                  ..                                                                                            ",
"                                  | j                                                                                           ",
"                                  { +                                                                                           ",
"                                  = X {                                                                                         ",
"                                  + X *                         H.                                                              ",
"                                p X X @                         }                                                               ",
"                                + X X X e.                      i                                                               ",
"                              ..X X X X u.    q.              | i                                                               ",
"                              j X o o @       *.              % {                                                               ",
"                              8 o o O p     ;.*.            k # a.                                                              ",
"                              6 O O O w.    a u.          a.- u                                                                 ",
"                              9 # # f     r.>             f : r.                                                                ",
"                              d - <       f r           r.< g     d.                                                            ",
"                              / , z       4 h           h w u.  d.X.                                                            ",
"                              ,.7       / w !           e t   d.s /                                                             ",
"                              i./       t t (         p.t U J.! q !                                                             ",
"                                p.    t.A P (         ,.P ~ :.P A P                                                             ",
"                                      o.I I `         >.Y L U Y I P t.                                                          ",
"                                      T T T `         f.W W W W T T `                                                           ",
"                                    z.W _ _ ) I.  f.  C._ _ T A t ) ) <.                                                        ",
"                                    %._ _ _ _ N.  7.    1.[ W w w I _ ) V.                                                      ",
"                                    ] ] _ _ 1.7.T.6.    h.2.[ P e t ) _ ] F.                                                    ",
"                                  M.] 1.Y _ 4.6.h.4.R.    4.4._ A t A ) ' ] D.                                                  ",
"                                  5.1.[ I T 4.9.9.9.U.    c.9.4.I P A P ) ' ] N.        n.                                      ",
"                                  1.2.' Y Y ) 1.0.0.I.    L.9.9.) Y P P I ) ' ' l.        o.                                    ",
"                  :.m.          k.1.4.) T ^ ` ] 0.x.L.    E.0.0.#.T Y I P P W _ _ <.      t.U                                   ",
"                  @.@.          1.4.[ W ^ ' ' #.0.v.A.!.  E.v.x.1.` T e A P A Y ) _ >.      A $.                                ",
"                  ~ Y B.      7.2.2.) ) ^ T ] #.8.v.v.Q.~.P.x.x.#.) T 5 2 A P t I ) ^ y.    P t                                 ",
"                  I Y ]     C.1.1.] ^ ) S V ] 1.6.c.v.L.Q.A.v.8.#.' T 2 2 2 t t t I ^ T B.J.P e o.                              ",
"                ,.I Y T %.C.#.[ ] ) ) T v 5 W 3.4.0.v.b.A.b.x.6.] ' V 3 3 2 3 t e e T T ( $.t t t                               ",
"                ( P I T ) _ ] ] T Y T V x x Z ] 3.6.0.v.x.x.8.#.] ) v 3 3 3 2 5 e w t I I P t t w ,.                            ",
"                P I A e P T I I P Y S x x b b H #.3.3.3.6.3.#.] ) Z x x x 3 3 3 w w 4 e A A e e w X.                            ",
"              t.t A e 4 w w e t A V v x b b n n F Q ] ] ] ' _ R n b b x x x x 3 3 4 w 5 5 5 5 e w h                             ",
"              ! t A 4 4 4 5 5 v v x n n M M M M M B B F F G G M n n n b b x x x 3 3 2 5 5 5 3 e < g                             ",
"              t e e 5 4 5 x x x b b n n M M M M B B B B B N M M M M n b b x x x 3 3 3 2 5 3 v w < h                             ",
"            ,.4 e 5 5 5 3 x x x b b n n C H H H F G J J B J B B B M M n b b x x x 3 3 3 5 v 5 4 < /                             ",
"            h < w 5 5 5 3 x x b b b v t t t A g P P F K K J K B B M M M n b x x x x 3 3 5 v 5 < < u.                            ",
"            < < 5 v v 5 x x x v 5 4 4 e t P T I A t t D K K B B B M M M n n b x v x 3 3 5 v < < 0                               ",
"          O.: < 5 v v 3 3 x x v 5 5 w t I I T T Y t e e K K K B B B M M n b b x 3 3 3 v v 5 < - =.                              ",
"          r - < v v v 3 3 x v 5 5 e t t U :.U P I e 4 w G K K B B M M n n b b x x 3 v v v < , 0                                 ",
"          % # 2 n b v 3 x v 5 3 w e e o.Y.,.t t e w 4 b J B B B B M M n b b x x 3 x x b v 2 # :                                 ",
"        -.o # 3 n n 3 3 v v v 5 < w +.    g e e 5 5 v M n b b v b n n n b x x x x 3 3 b n 3 # O w.                              ",
"        k o # v M n 2 x b n 5 < < /     +.< w 5 5 v v v v 5 3 5 v v v b v x x x 3 3 3 n M v O o |                               ",
"        y X O c m c 3 c m c - - r       d < 4 x v v v v 5 2 4 4 5 x x c x x x 3 3 2 3 b m c O X {                               ",
"        * . - N N c x m m 3 # # ;.      7 , 4 b v b v 2 : , : : , 3 n n x 3 3 3 2 2 3 m N 3 o X *.                              ",
"        * . - N N c c m m - o 7         : # 2 b b b 5 - # d u - - 3 n n x 3 3 2 2 2 c N N ; X +                                 ",
"        = . O m J m N N b O o j         * O , n m x - # u S.9 o , n m n 3 3 2 2 2 x N N c X . i                                 ",
"        j X o n J N N N c o . }         u o O b m , o #     % O - m m c 1 1 1 2 3 m J m - X +                                   ",
"          X X 1 N N N N c . X *.        *.X o 3 b O o p     y X O m N m 3 1 2 x m J m ; X X -.                                  ",
"          * X # m J N J c o . }           $ X O x o . {     -.X . 3 J N c 3 c N J c O . + ..                                    ",
"            X X ; N N N c o . l           *.X X O X . }       y . o c N N N J N 1 O . @                                         ",
"            j X . 3 N J m O . 8             j X X X X {       a.X X ; N N m 3 O X X i                                           ",
"              y . o 1 m N ; X X               i X X X p         * X O x 1 O . X y                                               ",
"                j X X - c c o . j               l X X &         $ . . X X $ j                                                   ",
"                  *.$ . X ; # X +                 e.= X         8 = y {                                                         ",
"                      { $ X X X X $                                                                                             ",
"                          &.i $ X X &                                                                                           ",
"                                  *.j i -.                                                                                      ",
"                                                                                                                                "
};
