/* XPM */
static char *result[] = {
/* columns rows colors chars-per-pixel */
"64 64 150 2 ",
"   c #E78836",
".  c #E88837",
"X  c #E7893A",
"o  c #E88B3B",
"O  c #EA943D",
"+  c #EC9B3E",
"@  c #EDA13F",
"#  c #E88E42",
"$  c #EA9243",
"%  c #EC9C41",
"&  c #E9944B",
"*  c #EB9A4A",
"=  c #EA9752",
"-  c #EA9B55",
";  c #EA9C5B",
":  c #EEA343",
">  c #EEA943",
",  c #EEA649",
"<  c #EFA94C",
"1  c #F0A947",
"2  c #F1AD4B",
"3  c #EFB243",
"4  c #F3B544",
"5  c #F4BC45",
"6  c #F3B54D",
"7  c #F4BC4B",
"8  c #EEA954",
"9  c #ECA15B",
"0  c #EEAC5F",
"q  c #F0AE52",
"w  c #F3B552",
"e  c #F4BB54",
"r  c #F1B45A",
"t  c #F5BD5B",
"y  c #ECA463",
"u  c #EEAE65",
"i  c #ECA66A",
"p  c #EDAA6C",
"a  c #EFB26D",
"s  c #F1B662",
"d  c #F2B963",
"f  c #F0B569",
"g  c #F2BD6E",
"h  c #EEAC74",
"j  c #EFB471",
"k  c #EEB27B",
"l  c #F1BA75",
"z  c #F5C346",
"x  c #F5C947",
"c  c #F6C34A",
"v  c #F7CB49",
"b  c #F8CF49",
"n  c #F6D34A",
"m  c #F8D44B",
"M  c #F7DB4B",
"N  c #F9DB4C",
"B  c #F5C353",
"V  c #F6CB53",
"C  c #F8CE50",
"Z  c #F5C35D",
"A  c #F7CB5B",
"S  c #F8D255",
"D  c #F9DC50",
"F  c #FAE14E",
"G  c #FAE552",
"H  c #FAE953",
"J  c #F6C563",
"K  c #F7CA65",
"L  c #F8CE64",
"P  c #F7CD6C",
"I  c #F8CF6C",
"U  c #F9D963",
"Y  c #F8D16C",
"T  c #F3C272",
"R  c #F6CC74",
"E  c #F2C27A",
"W  c #F5CB7B",
"Q  c #F8D472",
"!  c #F9D975",
"~  c #F7D27E",
"^  c #F8D77F",
"/  c #F7D87B",
"(  c #F9DC7C",
")  c #FAE668",
"_  c #FAE574",
"`  c #FAE07E",
"'  c #EEB584",
"]  c #EFB98A",
"[  c #F0BB84",
"{  c #F0BA8D",
"}  c #EFBD93",
"|  c #F1BE93",
" . c #F6CE84",
".. c #F2C489",
"X. c #F3C989",
"o. c #F9DD83",
"O. c #F6DB8C",
"+. c #F8DA89",
"@. c #F2C494",
"#. c #F3CB95",
"$. c #F1C39C",
"%. c #F4CF9B",
"&. c #F6D493",
"*. c #F7D890",
"=. c #F8DE96",
"-. c #F5D29E",
";. c #F7DC9C",
":. c #F9E483",
">. c #FAE887",
",. c #F7E08F",
"<. c #FAE68C",
"1. c #FAEC8C",
"2. c #F9E493",
"3. c #FAED94",
"4. c #F8E09B",
"5. c #FAEC9C",
"6. c #FBF294",
"7. c #FBF49C",
"8. c #F3C9A6",
"9. c #F3CCAA",
"0. c #F6D4A3",
"q. c #F7DAA1",
"w. c #F8DEA2",
"e. c #F5D3AD",
"r. c #F7DAAB",
"t. c #F5D4B2",
"y. c #F6DBB5",
"u. c #F5D7B8",
"i. c #F6DABA",
"p. c #F9E6A5",
"a. c #FAEFA3",
"s. c #FAF5A6",
"d. c #FAF5AB",
"f. c #F7E1B3",
"g. c #F8E3B5",
"h. c #F9E5BC",
"j. c #F9EBBC",
"k. c #F9F5B4",
"l. c #FAF4BA",
"z. c #FCF8BC",
"x. c #FAEAC5",
"c. c #FAEAC8",
"v. c #FBF4C2",
"b. c #FAF5C9",
"n. c #FAEFD1",
"m. c #FBF1D5",
"M. c #FAF8D4",
"N. c #FBF9DD",
"B. c #FCFAE6",
"V. c None",
/* pixels */
"V.V.V.V.V.V.V.V.V.V.V.V.V.V.V.V.V.V.V.V.V.V.V.V.V.V.V.V.V.V.V.V.V.V.V.V.V.V.V.V.V.V.V.V.V.V.V.V.V.V.V.V.V.V.V.V.V.V.V.V.V.V.V.V.",
"V.V.V.V.V.V.V.V.V.V.V.V.V.V.V.V.V.V.V.V.V.V.V.V.V.V.V.V.V.V.V.V.V.V.V.V.V.V.V.V.V.V.V.V.V.V.V.V.V.V.V.V.V.V.V.V.V.V.V.V.V.V.V.V.",
"V.V.V.V.V.V.V.V.V.V.V.V.V.V.V.V.V.V.V.V.V.V.V.V.V.V.V.V.V.V.V.V.V.V.V.V.V.V.V.V.V.V.V.V.V.V.V.V.V.V.V.V.V.V.V.V.V.V.V.V.V.V.V.V.",
"V.V.V.V.V.V.V.V.V.V.V.V.V.V.V.V.V.V.V.V.V.V.V.V.V.V.V.V.V.V.V.V.V.V.V.V.V.V.V.V.V.V.V.V.V.V.V.V.V.V.V.V.V.V.V.V.V.V.V.V.V.V.V.V.",
"V.V.V.V.V.V.V.V.V.V.V.V.V.V.V.V.V.V.V.V.V.V.V.V.V.V.V.V.V.V.V.V.V.V.V.V.V.V.V.V.V.V.V.V.V.V.V.V.V.V.V.V.V.V.V.V.V.V.V.V.V.V.V.V.",
"V.V.V.V.V.V.V.V.V.V.V.V.V.V.V.V.V.V.V.V.V.V.V.V.V.V.V.V.V.V.V.V.V.V.V.V.V.V.V.V.V.V.V.V.V.V.V.V.V.V.V.V.V.V.V.V.V.V.V.V.V.V.V.V.",
"V.V.V.V.V.V.V.V.V.V.V.V.V.V.V.V.V.V.V.V.V.V.V.V.V.V.V.V.V.V.V.V.V.V.V.V.V.V.V.V.V.V.V.V.V.V.V.V.V.V.V.V.V.V.V.V.V.V.V.V.V.V.V.V.",
"V.V.V.V.V.V.V.V.V.V.V.V.V.V.V.V.V.V.V.V.V.V.V.V.V.V.V.V.V.[ } V.V.V.V.V.V.V.V.V.V.V.V.V.V.V.V.V.V.V.V.V.V.V.V.V.V.V.V.V.V.V.V.V.",
"V.V.V.V.V.V.V.V.V.V.V.V.V.V.V.V.V.V.V.V.V.V.V.V.V.V.V.V.V.# $.V.V.V.V.V.V.V.V.V.V.V.V.V.V.V.V.V.V.V.V.V.V.V.V.V.V.V.V.V.V.V.V.V.",
"V.V.V.V.V.V.V.V.V.V.V.V.V.V.V.V.V.V.V.V.V.V.V.V.V.V.V.V.k   } V.V.V.V.V.V.V.V.V.V.V.V.V.V.V.V.V.V.V.V.V.V.V.V.V.V.V.V.V.V.V.V.V.",
"V.V.V.V.V.V.V.V.V.V.V.V.V.V.V.V.V.V.V.V.V.V.V.V.V.V.V.V.- . ' V.V.V.V.V.V.V.V.V.V.V.V.V.V.V.V.V.V.V.V.V.V.V.V.V.V.V.V.V.V.V.V.V.",
"V.V.V.V.V.V.V.V.V.V.V.V.V.V.V.V.V.V.V.V.V.V.V.V.V.V.V.V.& . p V.V.V.V.V.V.V.V.V.V.V.V.V.V.V.V.V.V.V.V.V.V.V.V.V.V.V.V.V.V.V.V.V.",
"V.V.V.V.V.V.V.V.V.V.V.V.V.V.V.V.V.V.V.V.V.V.V.V.V.V.V.V.o X - V.V.V.V.9.V.V.V.V.V.V.V.V.V.V.V.V.V.V.V.V.V.V.V.V.V.V.V.V.V.V.V.V.",
"V.V.V.V.V.V.V.V.V.V.V.V.V.V.V.V.V.V.V.V.V.V.V.V.V.V.V.t.O O $ V.V.V.V.[ V.V.V.V.V.V.V.V.V.V.V.V.V.V.V.V.V.V.V.V.V.V.V.V.V.V.V.V.",
"V.V.V.V.V.V.V.V.V.V.V.V.V.V.V.V.V.V.V.V.V.V.V.V.V.V.V.e.O + + [ V.V.u.k V.V.V.V.V.V.V.V.V.V.V.V.V.V.V.V.V.V.V.V.V.V.V.V.V.V.V.V.",
"V.V.V.V.V.V.V.V.V.V.V.V.V.V.V.V.V.V.V.V.V.V.V.V.V.V.V.t.: : % 8 V.V.@.a V.V.V.V.V.V.V.V.V.V.V.V.V.V.V.V.V.V.V.V.V.V.V.V.V.V.V.V.",
"V.V.V.V.V.V.V.V.V.V.V.V.V.V.V.V.V.V.V.V.V.V.V.V.V.V.V.V., , , , #.V.l 0 V.V.V.V.V.V.V.V.V.V.V.V.V.V.V.V.V.V.V.V.V.V.V.V.V.V.V.V.",
"V.V.V.V.V.V.V.V.V.V.V.V.V.V.V.V.V.V.V.V.V.V.V.V.V.V.V.V.8 6 6 < r i.s q V.V.V.V.V.V.V.V.V.V.V.V.V.V.V.V.V.V.V.V.V.V.V.V.V.V.V.V.",
"V.V.V.V.V.V.V.V.V.V.V.V.V.V.V.V.V.V.V.V.V.V.V.V.V.V.V.V.t w w w w d r 2 0.V.V.V.V.V.V.V.V.V.V.V.V.V.V.V.V.V.V.V.V.V.V.V.V.V.V.V.",
"V.V.V.V.V.V.V.V.V.V.V.V.V.V.V.V.V.V.V.V.V.V.r.V.V.V.V.V.J t B C t t t e T V.V.V.V.V.V.V.V.V.V.V.V.V.V.V.V.V.V.V.V.V.V.V.V.V.V.V.",
"V.V.V.V.V.V.V.V.V.V.V.V.V.V.V.V.V.V.V.V.V.V. .V.V.V.V.V.T J A M n C B t t i.V.V.V.V.V.V.V.V.V.V.V.V.V.V.V.V.V.V.V.V.V.V.V.V.V.V.",
"V.V.V.V.V.V.V.V.V.V.V.V.V.V.V.V.V.V.V.V.V.V.R h.V.V.V.V.~ P L n n n m K t W V.V.V.V.V.V.V.V.V.V.V.V.V.V.V.V.V.V.V.V.V.V.V.V.V.V.",
"V.V.V.V.V.V.V.V.V.V.V.V.V.V.V.V.V.V.V.V.V.V.R ;.V.V.V.V.+.Q Y n n v n A K J q.V.V.V.V.V.V.V.V.V.V.V.V.V.V.V.V.V.V.V.V.V.V.V.V.V.",
"V.V.V.V.V.V.V.V.V.V.V.V.V.V.V.V.V.V.f.V.V.h.Y o.V.V.V.V.2.! Q C v v v v L I P x.V.V.V.V.V.V.V.V.V.V.V.V.V.V.V.V.V.V.V.V.V.V.V.V.",
"V.V.V.V.V.V.V.V.V.V.V.V.V.V.V.V.V.V.;.V.V.2.! o.V.V.V.V.5.` ! c c 7 c c C I I ~ V.V.V.V.V.V.V.V.V.V.V.V.V.V.V.V.V.V.V.V.V.V.V.V.",
"V.V.V.V.V.V.V.V.V.V.V.V.V.V.V.V.V.V.O.m.m.( ( :.b.V.V.V.s.1.` B 7 7 5 c c A Y I *.V.V.V.V.V.0.V.V.V.V.V.V.V.V.V.V.V.V.V.V.V.V.V.",
"V.V.V.V.V.V.V.V.V.V.V.V.V.V.V.V.V.V.o.h.p.` >.1.l.V.V.V.s.6.:.e 7 7 4 5 7 B A Q I w.V.V.V.V.V.E V.V.V.V.V.V.V.V.V.V.V.V.V.V.V.V.",
"V.V.V.V.V.V.V.V.V.V.V.V.V.V.V.V.V.c.! O.:.>.>.1.l.V.V.V.d.7.<.e 6 6 5 5 7 7 7 L Q Y g.V.V.V.V.g -.V.V.V.V.V.V.V.V.V.V.V.V.V.V.V.",
"V.V.V.V.V.V.V.V.V.V.V.V.V.V.V.V.V.4./ ( :.:.1.6.l.V.V.V.d.s.,.t t 7 z z z 7 6 7 L I R c.V.V.V.X.r V.V.V.V.V.V.V.V.V.V.V.V.V.V.V.",
"V.V.V.V.V.V.V.V.V.V.V.V.V.V.V.V.n./ / ! Z K 1.6.z.V.V.N.s.s.+.J Z B v z z c 6 7 B P P W V.V.V.0.2 -.V.V.V.V.V.V.V.V.V.V.V.V.V.V.",
"V.V.V.V.V.V.V.V.V.V.V.V.V.V.V.V.=.Q ! t w K 3.7.v.V.V.b.s.s.o.P I b b b v v c 6 7 Z P K &.V.V.q.2 s V.V.V.V.V.V.V.V.V.V.V.V.V.V.",
"V.V.V.V.V.V.V.V.V.V.V.V.V.V.V.g.Q ! K w e I 1.6.b.V.V.k.s.s.( ! Y m m m m b v 7 6 7 J J J h.V.#.2 2 y.V.V.V.V.V.V.V.V.V.V.V.V.V.",
"V.V.V.V.V.V.V.V.V.V.V.V.V.V.V.W Y P w e Z ! 3.6.N.V.M.s.s.3.:.( U N N N m m m c 7 7 7 J t W V.E 2 1 ..V.V.V.V.V.V.V.V.V.V.V.V.V.",
"V.V.V.V.V.V.V.V.V.0.V.V.V.V. .K P t w e J ` >.5.V.B.s.6.7.3.<.` G F F N N m m m 7 6 7 Z Z d -.s 2 1 f V.V.V.V.V.V.V.V.V.V.V.V.V.",
"V.V.V.V.V.V.V.V.V...V.V.V.&.Z K t 6 w t I o.:.v.B.s.6.6.3.3.1.) G G G F N N m m v 7 7 B t e w 6 2 1 q V.V.V.V.V.V.V.V.V.V.V.V.V.",
"V.V.V.V.V.V.V.V.l %.V.V.r.t Z t 6 6 w J Q ! O.j.2.:.<.<.1.2._ H H H G F N N m m b 7 7 7 e e q 2 2 : , V.V.V.V.V.V.V.V.V.V.V.V.V.",
"V.V.V.V.V.V.V.V., V.V.V.d e e 7 7 6 6 J Q Q ^ ( ( ( ( o.o.! G F F H F F N N m m b z c c c c c x 6 : % i.V.V.V.V.V.V.V.V.V.V.V.V.",
"V.V.V.V.V.V.V...+ V.V.E < w 7 c 7 6 6 w J I I Q Y Q Q Q U D F F F F F N N N m b b v z z c v b n 5 % % u.V.V.V.V.V.V.V.V.V.V.V.V.",
"V.V.V.V.V.V.V.0 + #.V.< < 7 c c 7 7 6 6 w e t Z J K L S m m N N N N N m m m m v x z z z 5 c n n 4 + % i.V.V.V.V.V.V.V.V.V.V.V.V.",
"V.V.V.V.V.V.V.* O a j : > c c c 7 7 7 6 6 6 e e B B v b m m m m m N m m m b v v z z z 5 5 c n n 1 + * V.V.V.V.V.V.V.V.V.V.V.V.V.",
"V.V.V.V.V.V.V.O O $ % % > 5 < 2 6 7 c 7 4 5 5 5 z z v v v b c B B 7 7 B x x v z z z 5 5 5 x n n @ O 9 V.V.V.V.V.V.V.V.V.V.V.V.V.",
"V.V.V.V.V.V.$.X O O @ > : : : , 1 2 7 7 7 5 5 5 5 z z z z 7 6 6 6 6 6 7 7 c z 5 z 5 5 4 5 n M z O o ' V.V.V.V.V.V.V.V.V.V.V.V.V.",
"V.V.V.V.V.V.| X o 5 n 5 % % j u : 1 z c 5 4 4 4 5 5 5 5 7 7 7 6 w 6 6 6 7 c z 5 z z 4 @ x n n > o $ V.V.V.V.V.V.V.V.V.V.V.V.V.V.",
"V.V.V.V.V.V.$.X X z M > O * V.u @ , c v c 5 5 4 4 5 5 7 7 7 6 2 2 2 1 1 c c z 5 @ @ 5 b M M 5 O o k V.V.V.V.V.V.V.V.V.V.V.V.V.V.",
"V.V.V.V.V.V.V.# o 4 n + o i V.0 O : v b v v c c 5 c c c 5 6 , , f l : : 7 b x 5 z 5 x F M z O X ; V.V.V.V.V.V.V.V.V.V.V.V.V.V.V.",
"V.V.V.V.V.V.V.& o @ b O o i V.i o + @ @ > 4 v b n v z 4 > % : l V.@.+ % z m b 5 z m F F z O X = V.V.V.V.V.V.V.V.V.V.V.V.V.V.V.V.",
"V.V.V.V.V.V.V.h o O z @ o - V.{ o o o - $ O > v z 1 + O * j i.V.V.[ O + z m n n m F n @     9 V.V.V.V.V.V.V.V.V.V.V.V.V.V.V.V.V.",
"V.V.V.V.V.V.V.V.# o @ @ o # V.V.* o { V.| o o @ O o * [ V.V.V.V.V.p o + b M M F m z +   o a V.V.V.V.V.V.V.V.V.V.V.V.V.V.V.V.V.V.",
"V.V.V.V.V.V.V.V.' X o o o = V.V.$.y V.V.V.y o o # h V.V.V.V.V.V.V.& X : M M n 5 @ X o ; 9.V.V.V.V.V.V.V.V.V.V.V.V.V.V.V.V.V.V.V.",
"V.V.V.V.V.V.V.V.V.i X X o 8.V.V.V.V.V.V.V.8.o # | V.V.V.V.V.V.V.' o o 5 x 4 + o o ; $.V.V.V.V.V.V.V.V.V.V.V.V.V.V.V.V.V.V.V.V.V.",
"V.V.V.V.V.V.V.V.V.V.h X X ' V.V.V.V.V.V.V.V.& ] V.V.V.V.V.V.V.9.# X O + O X # i 9.V.V.V.V.V.V.V.V.V.V.V.V.V.V.V.V.V.V.V.V.V.V.V.",
"V.V.V.V.V.V.V.V.V.V.V.$.& = V.V.V.V.V.V.V.V.} V.V.V.V.V.V.V.V.& X X X # ; } V.V.V.V.V.V.V.V.V.V.V.V.V.V.V.V.V.V.V.V.V.V.V.V.V.V.",
"V.V.V.V.V.V.V.V.V.V.V.V.V.$.V.V.V.V.V.V.V.V.V.V.V.V.V.V.V.t.& X & y | V.V.V.V.V.V.V.V.V.V.V.V.V.V.V.V.V.V.V.V.V.V.V.V.V.V.V.V.V.",
"V.V.V.V.V.V.V.V.V.V.V.V.V.V.V.V.V.V.V.V.V.V.V.V.V.V.V.V.9.y h 9.V.V.V.V.V.V.V.V.V.V.V.V.V.V.V.V.V.V.V.V.V.V.V.V.V.V.V.V.V.V.V.V.",
"V.V.V.V.V.V.V.V.V.V.V.V.V.V.V.V.V.V.V.V.V.V.V.V.V.V.V.V.V.V.V.V.V.V.V.V.V.V.V.V.V.V.V.V.V.V.V.V.V.V.V.V.V.V.V.V.V.V.V.V.V.V.V.V.",
"V.V.V.V.V.V.V.V.V.V.V.V.V.V.V.V.V.V.V.V.V.V.V.V.V.V.V.V.V.V.V.V.V.V.V.V.V.V.V.V.V.V.V.V.V.V.V.V.V.V.V.V.V.V.V.V.V.V.V.V.V.V.V.V.",
"V.V.V.V.V.V.V.V.V.V.V.V.V.V.V.V.V.V.V.V.V.V.V.V.V.V.V.V.V.V.V.V.V.V.V.V.V.V.V.V.V.V.V.V.V.V.V.V.V.V.V.V.V.V.V.V.V.V.V.V.V.V.V.V.",
"V.V.V.V.V.V.V.V.V.V.V.V.V.V.V.V.V.V.V.V.V.V.V.V.V.V.V.V.V.V.V.V.V.V.V.V.V.V.V.V.V.V.V.V.V.V.V.V.V.V.V.V.V.V.V.V.V.V.V.V.V.V.V.V.",
"V.V.V.V.V.V.V.V.V.V.V.V.V.V.V.V.V.V.V.V.V.V.V.V.V.V.V.V.V.V.V.V.V.V.V.V.V.V.V.V.V.V.V.V.V.V.V.V.V.V.V.V.V.V.V.V.V.V.V.V.V.V.V.V.",
"V.V.V.V.V.V.V.V.V.V.V.V.V.V.V.V.V.V.V.V.V.V.V.V.V.V.V.V.V.V.V.V.V.V.V.V.V.V.V.V.V.V.V.V.V.V.V.V.V.V.V.V.V.V.V.V.V.V.V.V.V.V.V.V.",
"V.V.V.V.V.V.V.V.V.V.V.V.V.V.V.V.V.V.V.V.V.V.V.V.V.V.V.V.V.V.V.V.V.V.V.V.V.V.V.V.V.V.V.V.V.V.V.V.V.V.V.V.V.V.V.V.V.V.V.V.V.V.V.V.",
"V.V.V.V.V.V.V.V.V.V.V.V.V.V.V.V.V.V.V.V.V.V.V.V.V.V.V.V.V.V.V.V.V.V.V.V.V.V.V.V.V.V.V.V.V.V.V.V.V.V.V.V.V.V.V.V.V.V.V.V.V.V.V.V.",
"V.V.V.V.V.V.V.V.V.V.V.V.V.V.V.V.V.V.V.V.V.V.V.V.V.V.V.V.V.V.V.V.V.V.V.V.V.V.V.V.V.V.V.V.V.V.V.V.V.V.V.V.V.V.V.V.V.V.V.V.V.V.V.V.",
"V.V.V.V.V.V.V.V.V.V.V.V.V.V.V.V.V.V.V.V.V.V.V.V.V.V.V.V.V.V.V.V.V.V.V.V.V.V.V.V.V.V.V.V.V.V.V.V.V.V.V.V.V.V.V.V.V.V.V.V.V.V.V.V."
};
