/* XPM */
static char *result[] = {
/* columns rows colors chars-per-pixel */
"64 64 157 2 ",
"   c #DC853C",
".  c #E78837",
"X  c #E7893A",
"o  c #E88B3B",
"O  c #EA933D",
"+  c #EB9A3E",
"@  c #E88F43",
"#  c #E99144",
"$  c #ED9D41",
"%  c #E5914A",
"&  c #E9944B",
"*  c #EB9C4C",
"=  c #EB9C54",
"-  c #E79C5C",
";  c #EA9D5C",
":  c #EEA344",
">  c #EEAB42",
",  c #EEA64B",
"<  c #EFA848",
"1  c #F0AB45",
"2  c #F1AD4B",
"3  c #EFB143",
"4  c #F3B543",
"5  c #F4BC45",
"6  c #F3B44D",
"7  c #F5BC4B",
"8  c #EFA953",
"9  c #ECA35D",
"0  c #EEAA5B",
"q  c #F3B452",
"w  c #F4BA55",
"e  c #F1B35C",
"r  c #F5BD5A",
"t  c #EBA263",
"y  c #EEAE64",
"u  c #ECA66A",
"i  c #EEAB6B",
"p  c #EFB267",
"a  c #EFB46D",
"s  c #F3BD63",
"d  c #F4BE6B",
"f  c #EDAB73",
"g  c #EFB072",
"h  c #EEB37C",
"j  c #F0B271",
"k  c #F2BD73",
"l  c #F0BA78",
"z  c #F5C346",
"x  c #F6C847",
"c  c #F6C44A",
"v  c #F7CC4A",
"b  c #F8CE4A",
"n  c #F7D34A",
"m  c #F8D44B",
"M  c #F7DA4A",
"N  c #F9DC4D",
"B  c #F6C453",
"V  c #F7CB54",
"C  c #F8CF57",
"Z  c #F5C25D",
"A  c #F7C95F",
"S  c #F8CD5B",
"D  c #F7D154",
"F  c #F8D452",
"G  c #F9DA50",
"H  c #F8D55B",
"J  c #FAE24F",
"K  c #FAE550",
"L  c #FAE952",
"P  c #F6C462",
"I  c #F7CA66",
"U  c #F5C76B",
"Y  c #F7CC6B",
"T  c #F8CE6C",
"R  c #F8D466",
"E  c #F8D26C",
"W  c #F8D96E",
"Q  c #F5C776",
"!  c #F5C975",
"~  c #F2C079",
"^  c #F6CC7C",
"/  c #F7D475",
"(  c #F8D573",
")  c #F9DA75",
"_  c #F6D37A",
"`  c #F9DC7B",
"'  c #F8E267",
"]  c #F9E36D",
"[  c #FAE17E",
"{  c #F9E87C",
"}  c #EFB584",
"|  c #EFBA86",
" . c #EFB788",
".. c #EFB98A",
"X. c #F0BC81",
"o. c #F0BD88",
"O. c #EFBC90",
"+. c #F1BF94",
"@. c #F3C382",
"#. c #F5CD84",
"$. c #F1C18E",
"%. c #F5CC8C",
"&. c #F6D281",
"*. c #F6DB82",
"=. c #F8D985",
"-. c #F7D48D",
";. c #F7DC8C",
":. c #F8DD89",
">. c #F1C192",
",. c #F4CD92",
"<. c #F1C49D",
"1. c #F3CB9D",
"2. c #F6D490",
"3. c #F7DB96",
"4. c #F8DE93",
"5. c #F6D49F",
"6. c #F7D99F",
"7. c #F8DE99",
"8. c #FAE483",
"9. c #FAE985",
"0. c #FAE389",
"q. c #FAEB8C",
"w. c #F9EB93",
"e. c #F7E29E",
"r. c #FAEE9B",
"t. c #FBF293",
"y. c #FCF59A",
"u. c #F2C6A0",
"i. c #F3C8A3",
"p. c #F4CBAA",
"a. c #F5D3A3",
"s. c #F7DBA2",
"d. c #F8DCA3",
"f. c #F5D4AC",
"g. c #F7DBAB",
"h. c #F9DCAA",
"j. c #F4D1B3",
"k. c #F6DBB0",
"l. c #F5D4B8",
"z. c #F7E5A7",
"x. c #F9E4A4",
"c. c #F9E9A1",
"v. c #F8E0AB",
"b. c #F9EBA8",
"n. c #FAF5A4",
"m. c #F9F1AC",
"M. c #F8E4B3",
"N. c #FAEAB5",
"B. c #F8E4BA",
"V. c #FAEBBA",
"C. c #FAF4B4",
"Z. c #FAE9C6",
"A. c #F8ECCC",
"S. c #FAF6CA",
"D. c #FBF8CE",
"F. c #FBF9DE",
"G. c None",
/* pixels */
"G.G.G.G.G.G.G.G.G.G.G.G.G.G.G.G.G.G.G.G.G.G.G.G.G.G.G.G.G.G.G.G.G.G.G.G.G.G.G.G.G.G.G.G.G.G.G.G.G.G.G.G.G.G.G.G.G.G.G.G.G.G.G.G.",
"G.G.G.G.G.G.G.G.G.G.G.G.G.G.G.G.G.G.G.G.G.G.G.G.G.G.G.G.G.G.G.G.G.G.G.G.G.G.G.G.G.G.G.G.G.G.G.G.G.G.G.G.G.G.G.G.G.G.G.G.G.G.G.G.",
"G.G.G.G.G.G.G.G.G.G.G.G.G.G.G.G.G.G.G.G.G.G.G.G.G.G.G.G.G.G.G.G.G.G.G.G.G.G.G.G.G.G.G.G.G.G.G.G.G.G.G.G.G.G.G.G.G.G.G.G.G.G.G.G.",
"G.G.G.G.G.G.G.G.G.G.G.G.G.G.G.G.G.G.G.G.G.G.G.G.G.G.G.G.G.G.G.G.G.G.G.G.G.G.G.G.G.G.G.G.G.G.G.G.G.G.G.G.G.G.G.G.G.G.G.G.G.G.G.G.",
"G.G.G.G.G.G.G.G.G.G.G.G.G.G.G.G.G.G.G.G.G.G.G.G.G.G.G.G.G.G.G.G.G.G.G.G.G.G.G.G.G.G.G.G.G.G.G.G.G.G.G.G.G.G.G.G.G.G.G.G.G.G.G.G.",
"G.G.G.G.G.G.G.G.G.G.G.G.G.G.G.G.G.G.G.G.G.G.G.G.G.G.G.G.G.G.G.G.G.G.G.G.G.G.G.G.G.G.G.G.G.G.G.G.G.G.G.G.G.G.G.G.G.G.G.G.G.G.G.G.",
"G.G.G.G.G.G.G.G.G.G.G.G.G.G.G.G.G.G.G.G.G.G.G.G.G.G.G.G.G.G.G.G.G.G.G.G.G.<.G.G.G.G.G.G.G.G.G.G.G.G.G.G.G.G.G.G.G.G.G.G.G.G.G.G.",
"G.G.G.G.G.G.G.G.G.G.G.G.G.G.G.G.G.G.G.G.G.G.G.G.G.G.G.G.G.G.G.G.G.G.G.G.G. .G.G.G.G.G.G.G.G.G.G.G.G.G.G.G.G.G.G.G.G.G.G.G.G.G.G.",
"G.G.G.G.G.G.G.G.G.G.G.G.G.G.G.G.G.G.G.G.G.G.G.G.G.G.G.G.G.G.G.G.G.G.G.G.G.h O.G.G.G.G.G.G.G.G.G.G.G.G.G.G.G.G.G.G.G.G.G.G.G.G.G.",
"G.G.G.G.G.G.G.G.G.G.G.G.G.G.G.G.G.G.G.G.G.G.G.G.G.G.G.G.G.G.G.G.G.G.G.G.G.t f G.G.G.G.G.G.G.G.G.G.G.G.G.G.G.G.G.G.G.G.G.G.G.G.G.",
"G.G.G.G.G.G.G.G.G.G.G.G.G.G.G.G.G.G.G.G.G.G.G.G.G.G.G.G.G.G.G.G.G.G.G.G.G.@ u G.G.G.G.G.G.G.G.G.G.G.G.G.G.G.G.G.G.G.G.G.G.G.G.G.",
"G.G.G.G.G.G.G.G.G.G.G.G.G.G.G.G.G.G.G.G.G.G.G.G.G.G.G.G.G.G.G.G.G.G.G.G.i . t G.G.G.G.G.G.G.G.G.G.G.G.G.G.G.G.G.G.G.G.G.G.G.G.G.",
"G.G.G.G.G.G.G.G.G.G.G.G.G.G.G.G.G.G.G.G.G.G.G.G.G.G.G.G.G.G.G.G.G.G.G.u.O o u G.G.G.G.G.G.G.G.G.G.G.G.G.G.G.G.G.G.G.G.G.G.G.G.G.",
"G.G.G.G.G.G.G.G.G.G.G.G.G.G.G.G.G.G.G.G.G.G.G.G.G.G.G.G.G.G.G.G.G.G.G.* O O h G.G.G.G.G.G.G.G.G.G.G.G.G.G.G.G.G.G.G.G.G.G.G.G.G.",
"G.G.G.G.G.G.G.G.G.G.G.G.G.G.G.G.G.G.G.G.G.G.G.G.G.G.G.G.G.G.G.G.G.G.0 $ $ O 1.G.G.G.G.G.G.G.G.G.G.G.G.G.G.G.G.G.G.G.G.G.G.G.G.G.",
"G.G.G.G.G.G.G.G.G.G.G.G.G.G.G.G.G.G.G. .G.G.G.G.G.G.G.G.G.G.G.G.G.l : $ $ , G.G.G.G.G.G.G.G.G.G.G.G.G.G.G.G.G.G.G.G.G.G.G.G.G.G.",
"G.G.G.G.G.G.G.G.G.G.G.G.G.G.G.G.G.G.8  .G.G.G.G.G.G.G.G.G.G.G.G.i.< : < : @.G.G.G.G.G.G.G.G.G.G.G.G.G.G.G.G.G.G.G.G.G.G.G.G.G.G.",
"G.G.G.G.G.G.G.G.G.G.G.G.G.G.G.G.G.o.O i G.G.G.G.G.G.G.G.G.G.G.G.e 2 2 , q G.G.G.G.G.G.G.G.G.G.G.G.G.G.G.G.G.G.G.G.G.G.G.G.G.G.G.",
"G.G.G.G.G.G.G.G.G.G.G.G.G.G.G.G.G., + $ f.G.G.G.G.G.G.G.G.G.G.,.6 q q q a.G.G.G.G.G.G.G.G.G.G.G.G.G.G.G.G.G.G.G.G.G.G.G.G.G.G.G.",
"G.G.G.G.G.G.G.G.G.G.G.G.G.G.G.G.X.+ $ : 0 G.G.G.G.G.G.G.G.G.G.s q q w %.G.G.h.G.G.G.G.G.G.G.G.G.G.G.G.G.G.G.G.G.G.G.G.G.G.G.G.G.",
"G.G.G.G.G.G.G.G.G.G.G.G.G.G.G.G.0 : < < 1 ~ G.G.G.G.G.G.G.G.h.r r r %.G.G.G.Q G.G.G.G.G.G.G.G.G.G.G.G.G.G.G.G.G.G.G.G.G.G.G.G.G.",
"G.G.G.G.G.G.G.G.G.G.G.G.G.G.G.G., < 2 q 2 q G.G.G.G.G.G.G.G.#.P P -.G.G.G.#.! G.G.G.G.G.G.k.G.G.G.G.G.G.G.G.G.G.G.G.G.G.G.G.G.G.",
"G.G.G.G.G.G.G.G.G.G.G.G.G.G.G.G.e < q w q q h.G.G.G.G.G.G.G.Y I 2.G.G.G.M.U ^ G.G.G.G.G.G.2.G.G.G.G.G.G.G.G.G.G.G.G.G.G.G.G.G.G.",
"G.G.G.G.G.G.G.G.G.G.G.G.G.G.G.G.$.2 6 q w r h.G.G.G.G.G.G.B.E 2.G.G.G.G._ E _ G.G.G.G.G.G.Q G.G.G.G.G.G.G.G.G.G.G.G.G.G.G.G.G.G.",
"G.G.G.G.G.G.G.G.G.G.G.G.G.G.G.G.G.d q w r s G.G.G.h.G.G.G.e.=.G.G.G.G.4.( ( ` G.G.G.G.G.G.U B.G.G.G.G.G.G.G.G.G.G.G.G.G.G.G.G.G.",
"G.G.G.G.G.G.G.G.G.G.G.G.G.G.G.G.G.G.d r r Q G.G.G.=.G.G.G.;.G.G.G.G.N.` ` ` ` G.G.G.G.G.G.I 2.G.G.G.G.G.G.G.G.G.G.G.G.G.G.G.G.G.",
"G.G.G.G.G.G.G.G.G.G.G.G.G.G.G.G.G.G.G.P P s.G.G.M./ G.G.G.z.G.G.G.G.0.8.[ 8.` N.G.G.G.G.G.T Y G.G.G.G.G.G.G.G.G.G.G.G.G.G.G.G.G.",
"G.G.G.G.G.G.G.G.G.G.G.G.G.G.G.G.G.G.G.s.I G.G.G.:.) G.G.G.G.G.G.G.r.q.9.' 8.9.c.G.G.G.G.G.( Y 2.G.G.G.G.G.G.G.G.G.G.G.G.G.G.G.G.",
"G.G.G.G.G.G.G.G.G.G.G.G.G.G.G.G.G.G.G.G.&.G.G.G.` ` V.G.G.G.G.G.C.t.t.] N { q.w.G.G.G.G.G.( ( T B.G.G.G.G.G.G.G.G.G.G.G.G.G.G.G.",
"G.G.G.G.G.G.G.G.G.G.G.G.G.G.G.G.G.G.G.G.G.G.G.x.` ` c.G.G.G.G.D.y.y.{ F m ] t.q.S.G.G.G.G._ ( E _ G.G.G.G.G.G.G.G.G.G.G.G.G.G.G.",
"G.G.G.G.G.G.G.G.G.G.G.G.G.G.G.G.G.G.G.G.G.G.G.;.` 8.q.G.G.G.G.n.y.t.H b b H t.t.m.G.G.G.G.` / ( T 2.G.G.G.G.G.G.G.G.G.G.G.G.G.G.",
"G.G.G.G.G.G.G.G.G.G.G.G.G.G.G.G.G.G.G.G.G.G.G.` 8.9.q.C.G.G.C.n.n.) c c v v 9.y.y.G.G.G.G.` ) ( E Y d.G.G.G.G.G.G.G.G.G.G.G.G.G.",
"G.G.G.G.G.G.G.G.G.G.G.G.G.G.%.G.G.G.G.G.G.G.V.` 8.9.q.t.F.D.n.n.8.c c 7 z z R y.t.C.G.G.G.[ ` R R T Y B.G.G.G.G.G.G.G.G.G.G.G.G.",
"G.G.G.G.G.G.G.G.G.G.G.G.G.G.s G.G.G.G.G.G.G.x.8.{ ) q.t.n.n.n.w.Z 7 7 c c 7 B 0.y.t.G.G.G.*.` R F I I U G.G.G.G.G.G.G.G.G.G.G.G.",
"G.G.G.G.G.G.G.G.G.G.G.G.G.s.q G.G.G.G.G.G.G.0.*.[ V ` t.y.n.r.Y 6 6 c v z 6 7 I t.t.m.G.G.:.` E m D I Z Q G.G.G.G.G.G.G.G.G.G.G.",
"G.G.G.G.G.G.G.G.G.G.G.G.G.k q f.G.G.G.G.G.G.:.` ` c 7 I ( ( A q 6 7 b m b 7 6 w 8.t.w.G.G.0.) E v b V P r #.G.G.G.G.G.G.G.G.G.G.",
"G.G.G.G.G.G.G.G.G.G.G.G.G.q q #.G.G.#.G.G.G.*.` ( 7 6 6 q q q w B b N m m V q 6 I 9.9.b.G.:.( E V b v S r w s.G.G.G.G.G.G.G.G.G.",
"G.G.G.G.G.G.G.G.G.G.G.G.@.6 q s G.G.U 3.G.G._ ) E 6 6 w c B V m N N N N N m B r r ` 0.0.A.4.( T v v b v Z q e G.G.G.G.G.G.G.G.G.",
"G.G.G.G.G.G.G.G.G.G.G.G.e 2 q q ^ g.P U Z.G._ ) Y q q B m N N N N N N N N N D P r I ` ` x.4.E T B v b m v w 6 k G.G.G.G.G.G.G.G.",
"G.G.G.G.G.G.G.G.G.G.G.a.< < 6 q w s Z Z ^ A.&.( Y w r B m N N N J J K J K N G I P P ( ` / / T Y B c v b v w 2 2 G.G.G.G.G.G.G.G.",
"G.G.G.G.G.G.G.G.G.G.G.l < 1 v 7 q w r P P #.! E E r r A m N J J K L L K K J N H I Z I ( ( T Y I c c v b n v 2 < k G.G.G.G.G.G.G.",
"G.G.G.G.G.G.G.G.G.G.G.p : 1 n n v c c Z Z P U Y P r P A N N J J K L L L K J J G I U Z Z P P r 7 7 x 7 x b M 6 : , G.G.G.G.G.G.G.",
"G.G.G.G.G.G.G.G.G.G.G.y $ 1 n n v v c c w Z Z Z r r r C m N N G K K L L K J N N F A Z r q 6 7 7 c 7 5 5 b n z : $ i.G.G.G.G.G.G.",
"G.G.G.G.G.G.G.G.G.G.G.a + 1 v n v x c c z 7 6 6 q r V m N N N K J K J K K J N N m m V B 7 6 7 5 5 5 4 5 n n v : + X.G.G.G.G.G.G.",
"G.G.G.G.G.G.G.G.G.G.G.$.+ $ z n b z 5 5 z 7 7 6 7 c b m m N N N N J N J N N N m m m m x x c z z 5 5 4 4 b n x : + j G.G.G.G.G.G.",
"G.G.G.G.G.G.G.G.G.G.G.G.$ + > b m c 5 4 4 z z z z b b m m m m m N N N N N N m m m b x x c z z 5 5 4 4 5 v M v + + g G.G.G.G.G.G.",
"G.G.G.G.G.G.G.G.G.G.G.G.h O $ 5 b b x 5 5 5 5 z x x x b b m m m m m m m m F S A Z B w 7 z z 5 5 5 4 4 5 n M x O O } G.G.G.G.G.G.",
"G.G.G.G.G.G.G.G.G.G.G.G.G.9 O + 5 b x x 5 5 5 z 5 z z x b b b b m b m m V A P r r q q q 7 7 5 5 4 4 4 z M M 3 O O G.G.G.G.G.G.G.",
"G.G.G.G.G.G.G.G.G.G.G.G.G.G.= O + 4 v b v 5 5 5 z z z x x x x x v b b V Z r w q 6 2 2 6 7 7 5 4 4 4 4 b n n : o % G.G.G.G.G.G.G.",
"G.G.G.G.G.G.G.G.G.G.G.G.G.G.G.t O O : z v v 5 5 5 5 z 5 z z x x x c x w w w 2 2 2 , 1 2 7 c 7 4 4 4 z m M z O . g G.G.G.G.G.G.G.",
"G.G.G.G.G.G.G.G.G.G.G.G.G.G.G.G.h # O > v v 7 4 4 5 5 5 5 z z z z 5 6 6 q 2 < : a 8 : : 7 v x 4 4 5 n M n + o # G.G.G.G.G.G.G.G.",
"G.G.G.G.G.G.G.G.G.G.G.G.G.G.G.G.G.9 o O x b v 4 4 4 5 5 5 5 5 5 5 7 6 7 2 $ $ p G.0 + $ z v x 4 5 n M n < o o ..G.G.G.G.G.G.G.G.",
"G.G.G.G.G.G.G.G.G.G.G.G.G.G.G.G.G.+.o o > n n z 4 4 4 4 4 4 5 5 7 c 7 1 $ $ 0 G.G.* O : v v v z n M M > o o u G.G.G.G.G.G.G.G.G.",
"G.G.G.G.G.G.G.G.G.G.G.G.G.G.G.G.G.G.; o O 5 n n x 5 5 4 5 x c x c 7 : O O 0 G.G.>.O o 4 b n n n M b : o o u G.G.G.G.G.G.G.G.G.G.",
"G.G.G.G.G.G.G.G.G.G.G.G.G.G.G.G.G.G.G.@ X + z n m m n b b b v z 1 O O O f G.G.G.= o O v M n M M z + X o h G.G.G.G.G.G.G.G.G.G.G.",
"G.G.G.G.G.G.G.G.G.G.G.G.G.G.G.G.G.G.G.u.# X O : 4 5 z z 4 4 $ O o o = u.G.G.G.t o o 4 M M M n 3 O . # >.G.G.G.G.G.G.G.G.G.G.G.G.",
"G.G.G.G.G.G.G.G.G.G.G.G.G.G.G.G.G.G.G.G.G.u @ o o o o o . o X @ t <.G.G.G.G.t o o > M M n 5 + X o t G.G.G.G.G.G.G.G.G.G.G.G.G.G.",
"G.G.G.G.G.G.G.G.G.G.G.G.G.G.G.G.G.G.G.G.G.G.G.<.h i t u i  .u.G.G.G.G.G.G.= o o 3 M M 5 : o o & +.G.G.G.G.G.G.G.G.G.G.G.G.G.G.G.",
"G.G.G.G.G.G.G.G.G.G.G.G.G.G.G.G.G.G.G.G.G.G.G.G.G.G.G.G.G.G.G.G.G.G.G.f @ o o O 5 3 $ X   & } G.G.G.G.G.G.G.G.G.G.G.G.G.G.G.G.G.",
"G.G.G.G.G.G.G.G.G.G.G.G.G.G.G.G.G.G.G.G.G.G.G.G.G.G.G.G.G.G.G.G.G.f @ o o o o o o X X = | G.G.G.G.G.G.G.G.G.G.G.G.G.G.G.G.G.G.G.",
"G.G.G.G.G.G.G.G.G.G.G.G.G.G.G.G.G.G.G.G.G.G.G.G.G.G.G.G.G.G.+.; o X X @ &   X X # t G.G.G.G.G.G.G.G.G.G.G.G.G.G.G.G.G.G.G.G.G.G.",
"G.G.G.G.G.G.G.G.G.G.G.G.G.G.G.G.G.G.G.G.G.G.G.G.G.G.G...t & @ & t f } f - % t +.G.G.G.G.G.G.G.G.G.G.G.G.G.G.G.G.G.G.G.G.G.G.G.G.",
"G.G.G.G.G.G.G.G.G.G.G.G.G.G.G.G.G.G.G.G.G.G.G.G.G.G.l.j.l.G.G.G.G.<. . .p.G.G.G.G.G.G.G.G.G.G.G.G.G.G.G.G.G.G.G.G.G.G.G.G.G.G.G.",
"G.G.G.G.G.G.G.G.G.G.G.G.G.G.G.G.G.G.G.G.G.G.G.G.G.G.G.G.G.G.G.G.G.G.G.G.G.G.G.G.G.G.G.G.G.G.G.G.G.G.G.G.G.G.G.G.G.G.G.G.G.G.G.G."
};
