/* XPM */
static char *fa931ec26b9a4847b0c1aa3929046871xDbLng5NPUC4w1wE[] = {
/* columns rows colors chars-per-pixel */
"64 64 185 2 ",
"   c None",
".  c #E78A3C",
"X  c #E88B3B",
"o  c #EA933D",
"O  c #EB9B3F",
"+  c #EDA03F",
"@  c #E88E42",
"#  c #E79243",
"$  c #E99245",
"%  c #EC9D41",
"&  c #E9944D",
"*  c #EB9B4B",
"=  c #E99751",
"-  c #E69855",
";  c #EA9954",
":  c #EB9E5C",
">  c #EEA443",
",  c #EEAB42",
"<  c #EDA44D",
"1  c #EFA848",
"2  c #F0A947",
"3  c #F1AD4B",
"4  c #EFB443",
"5  c #F3B543",
"6  c #F5BC45",
"7  c #F3B34D",
"8  c #F4BB4B",
"9  c #ECA552",
"0  c #EEA953",
"q  c #EDA859",
"w  c #F3B452",
"e  c #F4BA54",
"r  c #F1B45C",
"t  c #F5BD5A",
"y  c #EBA265",
"u  c #EEAD62",
"i  c #ECA66A",
"p  c #EDA96F",
"a  c #EFB162",
"s  c #EEB06D",
"d  c #F1B666",
"f  c #F3BD63",
"g  c #F1B868",
"h  c #EDAC74",
"j  c #EEB17D",
"k  c #F0B773",
"l  c #F1BB71",
"z  c #F1BB7C",
"x  c #F6C346",
"c  c #F5C947",
"v  c #F6C449",
"b  c #F7CB49",
"n  c #F8CE49",
"m  c #F6D34A",
"M  c #F9D44B",
"N  c #F7DB4B",
"B  c #F9DB4C",
"V  c #F6C454",
"C  c #F8CF55",
"Z  c #F5C15D",
"A  c #F7C95C",
"S  c #F8D353",
"D  c #F9DC52",
"F  c #F8D259",
"G  c #F9DE5D",
"H  c #FAE14F",
"J  c #FAE551",
"K  c #FAEA52",
"L  c #F6C563",
"P  c #F7C966",
"I  c #F8CE61",
"U  c #F4C36B",
"Y  c #F7CB6A",
"T  c #F8CE6D",
"R  c #F8D466",
"E  c #F9D962",
"W  c #F7D06E",
"Q  c #F8D26E",
"!  c #F9D86E",
"~  c #F3C276",
"^  c #F6CD74",
"/  c #F8CF71",
"(  c #F3C57C",
")  c #F6CD7A",
"_  c #F7D476",
"`  c #F8D574",
"'  c #F9DA75",
"]  c #F7D57C",
"[  c #F9D678",
"{  c #F9DB7B",
"}  c #FAE07D",
"|  c #EFB583",
" . c #EFBB86",
".. c #EFB889",
"X. c #F0BD84",
"o. c #F0BA8B",
"O. c #EFBF96",
"+. c #F0BF95",
"@. c #F3C484",
"#. c #F5CD85",
"$. c #F0C08E",
"%. c #F3C889",
"&. c #F7D481",
"*. c #F9DD82",
"=. c #F6D08B",
"-. c #F7D88F",
";. c #F8DC8E",
":. c #F1C394",
">. c #F4CC95",
",. c #F1C49C",
"<. c #F3CC9D",
"1. c #F5D496",
"2. c #F7DA92",
"3. c #F8DA91",
"4. c #F5D49D",
"5. c #F7DC9E",
"6. c #F8DD99",
"7. c #FAE484",
"8. c #FAE58B",
"9. c #FAEB8C",
"0. c #F9E592",
"q. c #F6EA95",
"w. c #FAEC93",
"e. c #FAEF9A",
"r. c #FBF294",
"t. c #FBF59B",
"y. c #F2C6A1",
"u. c #F3CBA4",
"i. c #F3CCAC",
"p. c #F6D4A3",
"a. c #F7DAA2",
"s. c #F8DDA4",
"d. c #F4D3AC",
"f. c #F6DAAC",
"g. c #F8DEAA",
"h. c #F6D7B0",
"j. c #F6DDB5",
"k. c #F6DFBB",
"l. c #F9EBA3",
"z. c #F7E5AC",
"x. c #F8E3AC",
"c. c #F6EFAC",
"v. c #F9EBAA",
"b. c #FAF4A4",
"n. c #FAF5AD",
"m. c #F7E0B7",
"M. c #F8E3B2",
"N. c #F9EAB7",
"B. c #F8E0B9",
"V. c #F9E3BE",
"C. c #F8E1B9",
"Z. c #F7EBBF",
"A. c #F9EFB8",
"S. c #F9F1B0",
"D. c #F9F5B3",
"F. c #FBF7BA",
"G. c #F6DBC4",
"H. c #FAEDC2",
"J. c #F8E7C8",
"K. c #F7EECB",
"L. c #F7ECCC",
"P. c #F8ECCF",
"I. c #F9F2C7",
"U. c #F7F1CF",
"Y. c #FBF8CC",
"T. c #F8ECD3",
"R. c #FAEED4",
"E. c #FBF2D7",
"W. c #FAF6D7",
"Q. c #FAF8D2",
"!. c #F7F4DB",
"~. c #F9F4DA",
"^. c #FDF7DD",
"/. c #FEF9DF",
"(. c #FDFBDB",
"). c #FCF6E1",
"_. c #FEFBE1",
"`. c #FDFBE4",
"'. c #FCFAE4",
"]. c #FCFBE9",
"[. c #FBFAF2",
"{. c #FCFCF3",
"}. c white",
"|. c #FEFEFF",
" X c #FFFFFF",
/* pixels */
"                                                                                                                                ",
"                                                                                                                                ",
"                                                                                                                                ",
"                                                                                                                                ",
"                                                                                                                                ",
"                                                                                                                                ",
"                                                                                                                                ",
"                                                                      i.                                                        ",
"                                                                      :.G.                                                      ",
"                                                                      | i.                                                      ",
"                                                                      = i.                                                      ",
"                                                                    ..@                                                         ",
"                                                                    $ &                                                         ",
"                                                                  i X i                                                         ",
"                                                                <.o o y.                                                        ",
"                                                                q O *     d.                                                    ",
"                                                              <.> % k   :.p.                                                    ",
"                                        <.                    l 2 2 d.  0 d.                                                    ",
"                  :.                    @.@.                  f 3 r   @.2 p.                                                    ",
"                u z                     f.7 p.                r 3 @.  r 3 %.                                                    ",
"              :.% u                     j.e f         j.V.    f e f.f.w 7 f                                                     ",
"              < > > >.                    Z t m.      M.^     U L J.#.t r e f.                                                  ",
"            @.% 1 1 3                     L L a.      5.L m.  _ ) T.^ t t t U                                                   ",
"            d > 3 3 3 f                 x.P Y s.      ] Q 3.  -.-.R.^ Y L L L =.                                                ",
"            d 1 7 8 w w                 5.Q ` M.    x.' ' *.  M.5.P._ Y L t P L a.                                              ",
"            >.3 3 w e e                 ;.` {       { { { *.).E.x.L.` ` L e L P L g.                                            ",
"              ~ w e t t       s.        *.{ 8.    w.7.7.7.8.^.{.Z.K.{ { P t t L Y Y g.          j.                              ",
"                ~ r t )       &.      H.{ 7.v.  l.7.9.9.9.9._.}.~.K.7.{ / Z t t L P Y g.        j.>.                            ",
"                  ~ t g.    6.]       l.7.9.I.n.9.r.7.8.t.r._.}.[.U.9.7.` L L t t L P L a.        l p.                          ",
"                    Y       [ [       8.9.q.c.t.t.9.*.w.t.t.`.}.}.!.w.7.{ P L t t t L P L 1.      f.w                           ",
"                    1.    g.` ' N.  F.9.9.r.r.t.r.8.8.e.b.b.].}.[.'.t.9.*.Y L t e e e Z L L 1.      3 d                         ",
"                          *.` { 0.~.0.9.9.r.t.w.8.9.0.t.b.D.{.}.'.~.b.9.7.P Y V 8 e e w t L L 4.    w 3 p.                      ",
"          d.              ` [ ' } 0.9.9.7.*.7.7.8.w.w.b.b.D.{.}.(.D.b.9.7.T P Z 6 6 e w 7 t t t V.  w 2 r                       ",
"        p.f.            x.Q [ [ } 7.7.*.[ [ { ! { 8.w.b.b.n.{.}.(.t.r.r.9.T P Z x 6 6 7 7 e t t f @.7 3 2 h.                    ",
"        d g.            3.` ` L P Y Y ` ` Q S M E 7.8.e.b.n.Q.}.Y.t.r.9.] Y L V x 6 6 6 7 7 e t w w 7 1 2 X.                    ",
"        3 p.            ] ` ` t L P P I F M M M D { *.7.t.b.b.F.n.r.9.' T P V c x x 6 6 8 7 8 8 e e 7 3 > d                     ",
"      l 2 (     1.      ^ / Y t Z V n M M B B B B G [ { *.0.r.r.r.9.{ T P A b v v x x 6 6 5 6 x 6 v v 7 > 0                     ",
"      1 2 r     f s.    / T P e t V M M M M B B B J G ` _ _ [ [ ] / Y L A n b b v x x 6 6 6 6 x 8 v v 5 > <                     ",
"    z > 3 3 X.k.t t     U Y L w e V M M B B B H H J H K J Q R P L I A F M M b b b x x x 6 6 + x 6 v v 3 > 9                     ",
"    < > 2 2 3 r w t ( k.L P t 7 w v M M B B B H J J K K K K J H D B B M M M b b v x x 6 6 6 x x v v b 3 % u                     ",
"  <.O > 6 8 3 3 7 w e t t f e e 7 v M M M B B B H H K K K H H H H B B B M M n b b x x x x x + + v v v > + X.                    ",
"  X.o % x n v v v 6 e e e e 8 8 8 b M M B B B H H H H K K H H H B B B M n n n b x x x x n + x x b b 5 % %                       ",
"  X.o % v b n b n b b x v 8 v 8 b n n M M M B B B H H H H H B B B B M M n n n b b x x 6 b 6 6 b n v > O s                       ",
"  u.. O 6 M n 6 b + x x v 6 v x v b n n M M B M B B B B B B B B M M M M n b b x x b n + + 6 b n b 2 % *                         ",
"    * o > m m v + x x x x n x x x b b n m m M M M M B M B M M M M M n n b b b x x x n x x x M n 3 O O ,.                        ",
"    o.X o 4 m m M + + x + + x b x x x n b n n n n m M m M M M M n n n b b x x x n + + x n n M + O o X.                          ",
"      p X o 4 m M n n + x x + n x x x x b b b b n n n n n n n b b b v v x x 6 6 x + n n n M + O o |                             ",
"        h . o , n N N n x + x n + 6 6 x x v x v v b b v b c v b c c x x x x x 6 x x M M x + + + o.                              ",
"          o.& . O x N m x 6 5 6 6 6 6 6 6 x x x x x x b c x x x x x x x 6 6 6 6 b M M x + o $ <.                                ",
"              & . % m N c 4 5 5 5 5 6 6 6 6 x 6 6 x x b b b b n c c 6 6 6 5 c m M M 5 o X :                                     ",
"              ..X X x N m x 5 5 5 5 5 4 + + n 6 x c n n m c x c m m n 6 6 c m m c > o X h                                       ",
"                & X O b N N x 5 6 6 6 6 m b M m m m M x , O # % + n m n n N N x O X & ,.                                        ",
"                  @ . + m J H H m N N N N N m m x + O o o $ o o O c H N N m , X X :                                             ",
"                    $ X o + + c c c x 6 4 , O o o o & y h - . X + H H N 6 O . @ |                                               ",
"                      p & X o o X . X X X @ & y z y.i.| & . o 4 N N + + X . y                                                   ",
"                            <.:.+.:.,.i.          z & . o , c b + + o o :                                                       ",
"                                            ..: o X o , 6 6 , o o o i                                                           ",
"                                    ,.y & . X X O + , > o X . ; |                                                               ",
"                                    ,.; X X . . X X X @ : j                                                                     ",
"                                y. .h p y y = = y j y.                                                                          ",
"                                                                                                                                ",
"                                                                                                                                ",
"                                                                                                                                ",
"                                                                                                                                "
};
