/* XPM */
static char *result[] = {
/* columns rows colors chars-per-pixel */
"64 64 28 1 ",
"  c black",
". c gray11",
"X c #231C0A",
"o c #312611",
"O c #382A15",
"+ c #3F3115",
"@ c gray15",
"# c #313131",
"$ c #3F3F3F",
"% c #493418",
"& c #50381C",
"* c #5E3F1F",
"= c #654223",
"- c #704626",
"; c #774D2A",
": c #7E502D",
"> c #494949",
", c gray34",
"< c #626262",
"1 c #6C6C6C",
"2 c gray48",
"3 c #885431",
"4 c #8C5734",
"5 c #935B38",
"6 c #9D623B",
"7 c #A4693F",
"8 c gray52",
"9 c None",
/* pixels */
"9999999999999999999999999999999999999999999999999999999999999999",
"9999999999999999999999999999999999999999999999999999999999999999",
"9999999999999999999999999999999999999999999999999999999999999999",
"9999999999999999999999999999999999999999999999999999999999999999",
"9999999999999999999999999999999999999999999999999999999999999999",
"9999999999999999999999999999999999999999999999999999999999999999",
"9999999999999999999999999999999999999999999999999999999999999999",
"9999999999999999999999999999999999999999999999999999999999999999",
"9999999999999999999999999999999999999999999999999999999999999999",
"9999999999999999999999999999999999999999999999999999999999999999",
"9999999999999999999999999999999999999999999999999999999999999999",
"9999999999999999999999999999999999999999999999999999999999999999",
"9999999999999999999999999999999999999999999999999999999999999999",
"9999999999999999999999999999999999999999999999999999999999999999",
"9999999999999999999999999999999999999999999999999999999999999999",
"9999999999999999999999999999999999999999999999999999999999999999",
"9999999999999999999999999999999999999999999999999999999999999999",
"9999999999999999999999999999999999999999999999999999999999999999",
"9999999999999999999999999999999999999999999999999999999999999999",
"9999999999999999999999999999999999999999999999999999999999999999",
"9999999999999999999999999999999999999999999999999999999999999999",
"9999999999999999999999999999999999999999999999999999999999999999",
"9999999999999999999999999999999999999999999999999999999999999999",
"9999999999999999999999999999999999999999999999999999999999999999",
"9999999999999999999999999999999999999999999999999999999999999999",
"9999999999999999999999999999999999999999999999999999999999999999",
"9999999999999999999999999999999999999999999999999999999999999999",
"9999999999999999999999999999999999999999999999999999999999999999",
"9999999999999999999999999999999999999999999999999999999999999999",
"9999999999999999999999999999999999999999999999999999999999999999",
"9999999999999999999999999999999999999999999999999999999999999999",
"9999999999999999999999999<<<<<<<11111122229999999999999999999999",
"9999999999999999999999<>>>>>>>>>>>,,,,,<<<21 9999999999999999999",
"9999999999999999999992>#....@@@@@@@##$$$$><>< 999999999999999999",
"99999999999999999999112882211111<<<<,,,,>>$## 999999999999999999",
"999999999999999999933112211<<<,,,,>>>$$$####++ 99999999999999999",
"9999999999999999999;4:33;---====***&&&++++++&+ 99999999999999999",
"9999999999999999993;446737664:5543:=*-==%=*++&+ 9999999999999999",
"999999999999999999;4;6745766:;5543:=*--=*&=*+&+ 9999999999999999",
"999999999999999999;4;6737666::5543:-&---=%=*+&$ 9999999999999999",
"999999999999999999,12<737665:5543:;-&---=%$$$$# 9999999999999999",
"999999999999999999<1122821111<<<<<,,,,,>>>>####+ 999999999999999",
"999999999999999999111112<<<<,,,,>>>>>>$$$$#####+ 999999999999999",
"999999999999999999=>,<11<<<<,,,,>>>>>>$$$$$###&+ 999999999999999",
"99999999999999999;4;644&3:;-+===****X&++++%&&+&+ 999999999999999",
"99999999999999999;4;67747666:5433:;-&---=*%&&+&+ 999999999999999",
"99999999999999999;4;67747666:5433:;-&---=*%&&+&+ 999999999999999",
"99999999999999999;4;67747666;5433:;-&---=*%&&+&+ 999999999999999",
"99999999999999999;4;67747666;5433:;-&---=*%&&+&+ 999999999999999",
"99999999999999999;4;67747666;5433:;-&---=*%&&+&+ 999999999999999",
"9999999999999999994;67747666;5433:;-&---=*%&&+&+ 999999999999999",
"9999999999999999994;67737666-5433:;-&---=*%&&+$$ 999999999999999",
"9999999999999999992221737666-5433:;-&---=*%$$$$# 999999999999999",
"99999999999999999911128211111<<<<<,,,,,>>>>$### 9999999999999999",
"999999999999999999,<1121<<<<,,,,>>>>>>$$$$$####O9999999999999999",
"999999999999999999=>,,,<<<<<,,,,>>>>>>$$$$$OOO%& 999999999999999",
"999999999999999999;;------**o**&&&&&X&&&&OO&+&+& 999999999999999",
"999999999999999999;4;5737553=3::::;-&--=*+&&+&+ 9999999999999999",
"9999999999999999999;446;5553=;::::;*&--=*+&&+&+ 9999999999999999",
"9999999999999999999<4;44;553=-:::;-&&--=&+&+&+ 99999999999999999",
"999999999999999999992824;333-=;;;;-&*-=*+&+++#999999999999999999",
"999999999999999999991112222111<<,,,>>>$$$##@. 999999999999999999",
"9999999999999999999991<11<<<,,,,>>>>$$$###@@ 9999999999999999999",
"9999999999999999999999 >>>>>$$$$$####@@@@@  99999999999999999999"
};
