/* XPM */
static char *_3275c61e38b4e4af16813f1fbb874b496eCECRw2WpjyQ6Y[] = {
/* columns rows colors chars-per-pixel */
"64 64 256 2 ",
"   c black",
".  c #0000A8",
"X  c #00A800",
"o  c #00A8A8",
"O  c #A80000",
"+  c #A800A8",
"@  c #A85400",
"#  c gray66",
"$  c gray33",
"%  c #5454FC",
"&  c #54FC54",
"*  c #54FCFC",
"=  c #FC5454",
"-  c #FC54FC",
";  c #FCFC54",
":  c gray99",
">  c #ECECEC",
",  c gainsboro",
"<  c #D0D0D0",
"1  c #C0C0C0",
"2  c #B4B4B4",
"3  c gray66",
"4  c #989898",
"5  c gray55",
"6  c #7C7C7C",
"7  c gray44",
"8  c #646464",
"9  c gray33",
"0  c #484848",
"q  c gray22",
"w  c #2C2C2C",
"e  c #202020",
"r  c #FC0000",
"t  c #EC0000",
"y  c #E00000",
"u  c #D40000",
"i  c #C80000",
"p  c #BC0000",
"a  c #B00000",
"s  c #A40000",
"d  c #980000",
"f  c #880000",
"g  c #7C0000",
"h  c #700000",
"j  c #640000",
"k  c #580000",
"l  c #4C0000",
"z  c #400000",
"x  c #FCD8D8",
"c  c #FCB8B8",
"v  c #FC9C9C",
"b  c #FC7C7C",
"n  c #FC5C5C",
"m  c #FC4040",
"M  c #FC2020",
"N  c #FC0000",
"B  c #FCA85C",
"V  c #FC9840",
"C  c #FC8820",
"Z  c #FC7800",
"A  c #E46C00",
"S  c #CC6000",
"D  c #B45400",
"F  c #9C4C00",
"G  c #FCFCD8",
"H  c #FCFCB8",
"J  c #FCFC9C",
"K  c #FCFC7C",
"L  c #FCF85C",
"P  c #FCF440",
"I  c #FCF420",
"U  c #FCF400",
"Y  c #E4D800",
"T  c #CCC400",
"R  c #B4AC00",
"E  c #9C9C00",
"W  c #848400",
"Q  c #706C00",
"!  c #585400",
"~  c #404000",
"^  c #D0FC5C",
"/  c #C4FC40",
"(  c #B4FC20",
")  c #A0FC00",
"_  c #90E400",
"`  c #80CC00",
"'  c #74B400",
"]  c #609C00",
"[  c #D8FCD8",
"{  c #BCFCB8",
"}  c #9CFC9C",
"|  c #80FC7C",
" . c #60FC5C",
".. c #40FC40",
"X. c #20FC20",
"o. c #00FC00",
"O. c #00FC00",
"+. c #00EC00",
"@. c #00E000",
"#. c #00D400",
"$. c #04C800",
"%. c #04BC00",
"&. c #04B000",
"*. c #04A400",
"=. c #049800",
"-. c #048800",
";. c #047C00",
":. c #047000",
">. c #046400",
",. c #045800",
"<. c #044C00",
"1. c #044000",
"2. c #D8FCFC",
"3. c #B8FCFC",
"4. c #9CFCFC",
"5. c #7CFCF8",
"6. c #5CFCFC",
"7. c #40FCFC",
"8. c #20FCFC",
"9. c #00FCFC",
"0. c #00E4E4",
"q. c #00CCCC",
"w. c #00B4B4",
"e. c #009C9C",
"r. c #008484",
"t. c #007070",
"y. c #005858",
"u. c #004040",
"i. c #5CBCFC",
"p. c #40B0FC",
"a. c #20A8FC",
"s. c #009CFC",
"d. c #008CE4",
"f. c #007CCC",
"g. c #006CB4",
"h. c #005C9C",
"j. c #D8D8FC",
"k. c #B8BCFC",
"l. c #9C9CFC",
"z. c #7C80FC",
"x. c #5C60FC",
"c. c #4040FC",
"v. c #2024FC",
"b. c #0004FC",
"n. c #0000FC",
"m. c #0000EC",
"M. c #0000E0",
"N. c #0000D4",
"B. c #0000C8",
"V. c #0000BC",
"C. c #0000B0",
"Z. c #0000A4",
"A. c #000098",
"S. c #000088",
"D. c #00007C",
"F. c #000070",
"G. c #000064",
"H. c #000058",
"J. c #00004C",
"K. c #000040",
"L. c #282828",
"P. c #FCE034",
"I. c #FCD424",
"U. c #FCCC18",
"Y. c #FCC008",
"T. c #FCB400",
"R. c #B420FC",
"E. c #A800FC",
"W. c #9800E4",
"Q. c #8000CC",
"!. c #7400B4",
"~. c #60009C",
"^. c #500084",
"/. c #440070",
"(. c #340058",
"). c #280040",
"_. c #FCD8FC",
"`. c #FCB8FC",
"'. c #FC9CFC",
"]. c #FC7CFC",
"[. c #FC5CFC",
"{. c #FC40FC",
"}. c #FC20FC",
"|. c #FC00FC",
" X c #E000E4",
".X c #C800CC",
"XX c #B400B4",
"oX c #9C009C",
"OX c #840084",
"+X c #6C0070",
"@X c #580058",
"#X c #400040",
"$X c #FCE8DC",
"%X c #FCE0D0",
"&X c #FCD8C4",
"*X c #FCD4BC",
"=X c #FCCCB0",
"-X c #FCC4A4",
";X c #FCBC9C",
":X c #FCB890",
">X c #FCB080",
",X c #FCA470",
"<X c #FC9C60",
"1X c #F0945C",
"2X c #E88C58",
"3X c #DC8854",
"4X c #D08050",
"5X c #C87C4C",
"6X c #BC7848",
"7X c #B47044",
"8X c #A86840",
"9X c #A0643C",
"0X c #9C6038",
"qX c #905C34",
"wX c #885830",
"eX c #80502C",
"rX c #744C28",
"tX c #6C4824",
"yX c #5C4020",
"uX c #543C1C",
"iX c #483818",
"pX c #403018",
"aX c #382C14",
"sX c #28200C",
"dX c #600064",
"fX c #006464",
"gX c #006060",
"hX c #00001C",
"jX c #00002C",
"kX c #302410",
"lX c #480048",
"zX c #500050",
"xX c #000034",
"cX c gray11",
"vX c #4C4C4C",
"bX c gray36",
"nX c gray25",
"mX c gray19",
"MX c #343434",
"NX c #D8F4F4",
"BX c #B8E8E8",
"VX c #9CDCDC",
"CX c #74C8C8",
"ZX c #48C0C0",
"AX c #20B4B4",
"SX c #20B0B0",
"DX c #00A4A4",
"FX c #009898",
"GX c #008C8C",
"HX c #008484",
"JX c #007C7C",
"KX c #007878",
"LX c #007474",
"PX c #007070",
"IX c #006C6C",
"UX c #980088",
/* pixels */
"y.y.y.y.y.y.y.y.y.y.y.y.y.y.y.y.y.q.y.e.GXr.e.r.r.t.t.r.w.GXr.r.fXy.u.y.y.y.y.y.y.y.y.y.y.y.y.y.y.y.y.y.y.y.y.y.y.y.y.y.y.y.y.y.",
"y.8.8.8.8.8.8.8.8.8.8.8.8.8.e.u.y.q.fXo o GXr.t.r.y.fXt.y.t.t.t.r.y.u.y.q.q.q.q.q.e.u.y.e.e.e.e.e.e.e.e.e.e.fXu.y.8.8.8.8.8.e.u.",
"y.8.w.w.0.q.w.w.w.o q.8.8.0.t.u.y.q.y.y.fXt.fXfXfXy.t.fXy.fXfXfXy.y.u.y.q.q.0.w.w.t.u.y.e.y.t.t.y.fXy.u.y.y.y.u.y.8.8.q.q.w.t.u.",
"y.8.e.w.q.w.w.q.w.q.w.8.0.0.t.u.y.w.y.t.r.r.t.y.y.fXt.y.y.fXfXfXy.y.u.y.q.0.0.w.GXt.u.y.e.y.y.y.u.y.u.u.y.fXy.u.y.8.0.0.0.q.t.u.",
"y.8.q.w.0.w.w.0.0.w.w.0.q.q.t.u.y.w.fXy.r.t.fXy.y.fXt.r.t.t.y.y.y.y.u.y.q.0.w.GXt.t.u.y.e.u.y.y.u.u.y.u.u.y.y.u.y.8.0.0.8.8.t.u.",
"y.8.0.w.8.q.w.0.q.0.8.0.w.e.t.u.y.w.fXt.t.fXt.fXy.y.y.t.t.fXy.fXy.y.u.y.q.w.o e.GXt.u.y.e.y.y.y.y.y.y.u.y.y.y.u.y.8.q.q.0.0.t.u.",
"y.8.8.0.8.8.8.0.0.0.0.w.GXGXt.u.y.w.fXy.t.t.r.t.fXy.y.y.y.y.GXr.fXy.u.y.q.e.o r.t.t.u.y.e.y.y.y.y.fXy.y.fXfXy.u.y.8.0.0.0.0.t.u.",
"y.8.w.q.8.8.8.0.8.0.w.o r.w.t.u.y.w.fXy.r.t.r.t.r.y.fXt.t.fXe.fXt.y.u.y.q.e.w.e.GXt.u.y.fXy.y.y.y.y.y.y.y.y.y.u.y.8.0.0.q.q.t.u.",
"y.8.0.q.0.0.q.0.8.o e.o r.w.t.u.y.w.t.t.o GXr.r.r.fXt.fXt.fXt.t.w.y.u.y.q.r.o e.r.t.u.y.u.u.u.u.u.u.u.u.u.u.u.u.y.8.8.0.w.0.t.u.",
"y.8.0.w.q.q.q.0.0.t.GXo r.o t.u.y.r.y.y.y.y.y.y.y.y.y.y.y.y.y.y.y.y.u.y.q.t.GXt.y.t.u.y.y.y.y.y.y.y.y.y.y.y.y.y.y.8.8.q.q.8.t.u.",
"y.8.e.o w.w.w.0.q.GXw.0.e.w.t.u.y.u.u.u.u.u.u.u.u.u.u.u.u.u.u.u.u.u.u.y.q.t.t.y.y.t.u.y.8.8.8.8.8.8.8.8.8.8.w.u.y.8.8.8.7.* t.u.",
"y.8.w.0.w.w.w.0.q.e.w.w.o q.t.u.y.y.y.y.y.y.y.y.y.y.y.y.y.y.y.y.y.y.y.y.q.e.y.fXr.t.u.y.8.e.e.w.q.e.e.w.q.q.e.u.y.8.8.q.0.q.t.u.",
"y.8.q.0.w.q.o w.o e.q.w.w.w.t.u.y.w.w.w.w.w.w.w.r.u.y.w.w.w.w.w.w.r.u.y.q.t.y.fXt.t.u.y.8.e.o w.e.GXGXw.q.0.e.u.y.8.0.0.8.0.t.u.",
"y.8.w.w.w.w.o w.e.r.o e.GXe.t.u.y.w.fXfXr.r.y.t.y.u.y.w.e.r.GXe.y.y.u.y.q.GXt.GXr.t.u.y.8.e.e.q.o o e.q.q.0.e.u.y.8.0.8.8.q.t.u.",
"y.8.r.GXw.w.w.w.e.o o e.GXe.t.u.y.w.fXfXfXt.t.r.y.u.y.w.r.t.t.GXfXy.u.y.q.GXt.GXGXt.u.y.8.e.o e.e.e.e.w.o o e.u.y.8.8.8.0.GXt.u.",
"y.8.w.r.r.w.w.GXGXGXGXo o o t.u.y.w.y.y.fXy.y.fXy.u.y.w.fXfXy.r.fXy.u.y.q.GXe.GXGXt.u.y.8.q.w.w.w.w.w.e.GXe.e.u.y.8.8.8.q.e.t.u.",
"y.8.w.fXt.o e.t.GXGXGXo o o t.u.y.w.y.y.y.y.y.fXy.u.y.w.r.r.fXt.fXy.u.y.q.o o GXGXt.u.y.8.w.o 0.q.q.e.r.t.o e.u.y.8.8.0.q.e.t.u.",
"y.8.t.y.GXo e.GXGXt.GXo o GXt.u.y.w.fXy.fXfXfXr.y.u.y.w.t.r.t.fXy.y.u.y.q.GXGXr.GXt.u.y.8.q.o 0.q.w.q.q.w.w.e.u.y.8.7.w.w.GXt.u.",
"y.e.t.t.t.t.t.t.t.t.t.t.t.t.t.u.y.w.GXfXe.t.y.t.y.u.y.w.fXt.fXy.y.y.u.y.q.r.t.fXGXt.u.y.w.e.e.e.e.e.e.e.e.e.e.u.y.e.t.t.t.t.t.u.",
"y.u.u.u.u.u.u.u.u.u.u.u.u.u.u.u.y.w.e.GXo t.fXr.y.u.y.w.y.fXt.y.fXy.u.y.q.t.fXy.e.t.u.y.u.u.u.u.u.u.u.u.u.u.u.u.y.u.u.u.u.u.u.u.",
"y.y.y.y.y.y.y.y.y.y.y.y.y.y.y.y.y.w.e.w.o r.r.r.y.u.y.r.y.y.y.y.y.y.u.y.e.t.t.t.t.t.u.y.y.y.y.y.y.y.y.y.y.y.y.y.y.y.y.y.y.y.y.y.",
"w.w.w.w.w.w.w.w.w.w.w.w.w.w.r.u.y.w.GXe.r.fXy.y.y.u.y.u.u.u.u.u.u.u.u.y.u.u.u.u.u.u.u.y.w.w.w.w.w.w.w.w.w.w.w.w.w.GXu.y.w.w.w.w.",
"fXr.GXGXr.y.u.u.u.y.u.u.u.u.y.u.y.w.t.GXt.y.u.fXy.u.y.y.y.y.y.y.y.y.y.y.y.y.y.y.y.y.y.y.w.u.u.u.y.w.t.t.y.r.w.o fXt.u.y.w.y.GXt.",
"u.fXt.y.y.y.u.u.u.y.u.u.u.y.y.u.y.w.t.r.fXt.y.t.y.u.y.q.q.q.q.q.q.q.q.q.q.q.q.q.q.GXu.y.w.y.y.y.fXo GXr.y.t.fXt.y.t.u.y.w.t.fXu.",
"t.t.t.y.t.t.fXu.u.u.y.y.y.y.y.u.y.w.t.GXt.GXt.r.y.u.y.q.e.o e.o o GXr.GXGXo o o o t.u.y.w.y.y.r.e.w.o t.r.r.u.y.y.t.u.y.w.y.u.u.",
"fXt.t.y.y.y.u.u.y.y.t.u.y.r.y.u.y.w.GXw.GXr.t.fXy.u.y.q.e.o o w.o GXe.e.GXGXe.GXGXt.u.y.w.t.fXt.fXy.t.t.t.fXu.fXr.t.u.y.w.y.u.u.",
"y.y.y.y.y.y.y.y.y.y.y.y.y.y.y.u.y.r.y.y.y.y.y.y.y.u.y.q.r.GXGXe.o r.GXe.o r.t.r.t.t.u.y.w.t.fXt.y.y.y.t.fXt.u.y.y.t.u.y.r.y.y.y.",
"u.u.u.u.u.u.u.u.u.u.u.u.u.u.u.u.y.u.u.u.u.u.u.u.u.u.y.q.t.GXt.r.r.t.r.GXo e.GXt.GXt.u.y.w.t.y.u.u.y.r.t.fXfXfXt.t.t.u.y.u.u.u.u.",
"y.y.y.y.y.y.y.y.y.y.y.y.y.y.y.y.y.y.y.y.y.y.y.y.y.y.y.q.GXGXt.r.GXGXGXGXe.GXy.t.e.t.u.y.w.y.u.y.t.r.r.t.t.r.t.fXt.t.u.y.y.y.y.y.",
"8.8.8.8.8.8.8.8.8.8.8.8.8.8.8.8.8.8.8.8.8.8.8.8.w.u.y.e.t.t.t.t.t.t.t.t.t.t.t.t.t.t.u.y.w.y.y.t.r.r.r.r.r.r.r.t.r.t.u.y.8.8.8.8.",
"GXq.w.o 0.e.e.e.q.w.0.8.0.w.8.8.8.8.8.8.8.q.o e.e.u.y.u.u.u.u.u.u.u.u.u.u.u.u.u.u.u.u.y.w.r.fXfXr.e.GXGXr.r.GXr.r.t.u.y.8.o q.w.",
"o 0.w.e.w.GXo q.q.o w.q.q.0.8.8.8.8.8.0.0.w.e.GXe.u.y.y.y.y.y.y.y.y.y.y.y.y.y.y.y.y.y.y.w.e.r.e.r.r.GXGXr.t.r.t.t.t.u.y.8.w.w.w.",
"8.8.q.w.w.o 0.q.w.o w.q.q.o 0.8.8.8.8.0.0.q.o w.e.u.y.q.q.q.q.q.q.GXu.y.e.e.e.e.e.fXu.y.w.o GXr.t.r.GXGXr.r.GXr.t.t.u.y.8.o q.q.",
"0.w.w.w.o o w.w.8.q.w.w.e.e.8.8.8.8.8.0.0.0.w.0.e.u.y.q.y.y.t.r.o t.u.y.e.fXy.y.y.y.u.y.GXt.t.t.t.t.t.t.t.t.t.t.t.t.u.y.8.e.w.w.",
"8.w.0.0.q.q.o q.0.w.w.e.e.w.0.8.0.w.w.0.8.0.w.8.e.u.y.q.t.e.w.w.w.t.u.y.e.y.y.u.y.y.u.y.u.u.u.u.u.u.u.u.u.u.u.u.u.u.u.y.8.w.0.q.",
"w.o w.q.w.w.o w.0.8.w.e.e.8.0.8.0.w.o 8.8.w.0.8.e.u.y.q.q.q.q.0.q.t.u.y.e.u.u.u.y.y.u.y.y.y.y.y.y.y.y.y.y.y.y.y.y.y.y.y.8.o q.q.",
"e.w.q.q.w.o q.0.0.0.0.q.w.0.0.8.8.q.w.0.8.8.8.8.e.u.y.q.0.o w.w.e.t.u.y.e.y.u.y.y.y.u.y.8.8.8.8.8.8.8.8.8.8.8.8.8.e.u.y.8.0.0.q.",
"e.e.e.e.e.e.e.e.e.e.e.e.e.e.e.e.e.e.e.e.e.e.e.e.e.u.y.q.q.o w.w.r.t.u.y.e.y.y.y.y.y.u.y.8.0.8.q.0.0.w.0.0.o 0.q.0.o u.y.w.e.e.e.",
"u.u.u.u.u.u.u.u.u.u.u.u.u.u.u.u.u.u.u.u.u.u.u.u.u.u.y.q.0.w.q.q.o t.u.y.e.y.y.y.y.y.u.y.8.o w.e.q.0.w.0.0.q.7.q.q.GXu.y.u.u.u.u.",
"y.y.y.y.y.y.y.y.y.y.y.y.y.y.y.y.y.y.y.y.y.y.y.y.y.y.y.q.0.0.q.w.t.t.u.y.fXy.fXy.y.y.u.y.8.e.q.8.0.0.0.q.q.0.0.q.o r.u.y.y.y.y.y.",
"e.e.e.fXu.y.0.0.0.0.0.0.0.0.e.u.y.r.q.q.q.q.q.q.e.u.y.q.o o w.t.y.t.u.y.u.u.u.u.u.u.u.y.u.u.u.u.u.u.u.u.u.u.u.u.u.u.u.y.y.e.e.e.",
"y.u.u.y.u.y.0.o q.w.r.w.q.o t.u.y.q.w.q.q.w.w.w.t.u.y.q.e.r.r.t.y.t.u.y.y.y.y.y.y.y.y.y.y.y.y.y.y.y.y.y.y.y.y.y.y.y.y.y.y.e.y.u.",
"u.y.u.y.u.y.0.q.0.w.q.0.0.w.t.u.y.q.o o GXGXo w.t.u.y.GXt.t.t.t.t.t.u.y.q.q.q.q.q.q.q.q.q.q.q.q.q.q.e.u.y.w.8.8.8.q.w.u.y.e.y.u.",
"y.y.u.y.u.y.0.q.q.w.w.w.0.q.t.u.y.q.w.o w.GXw.w.t.u.y.u.u.u.u.u.u.u.u.y.q.o e.t.GXe.e.r.o w.q.o r.o t.u.y.w.0.0.0.8.e.u.y.e.y.y.",
"fXy.y.y.u.y.0.0.w.w.q.0.0.q.t.u.y.q.e.e.r.GXe.t.t.u.y.y.y.y.y.y.y.y.y.y.q.w.GXt.e.o e.o w.o w.GXGXw.t.u.y.w.8.0.q.8.e.u.y.e.y.y.",
"t.y.u.y.u.y.0.0.w.GXq.w.o w.t.u.y.q.e.w.e.w.e.y.t.u.y.8.8.8.8.8.8.w.u.y.q.q.e.t.e.GXGXo GXw.w.w.w.w.t.u.y.w.0.0.0.8.e.u.y.e.y.fX",
"t.u.y.y.u.y.0.w.GXt.GXe.e.w.t.u.y.q.r.e.fXo r.fXt.u.y.8.q.0.8.8.8.e.u.y.q.w.e.r.t.r.GXo w.0.o GXw.w.t.u.y.q.8.8.8.0.e.u.y.e.fXe.",
"u.u.y.y.u.y.0.o e.GXGXw.q.0.t.u.y.q.GXfXfXw.GXGXt.u.y.8.q.o 0.8.8.e.u.y.q.w.e.e.r.e.o o q.o r.r.o e.t.u.y.q.8.8.8.0.e.u.y.e.y.y.",
"u.u.y.y.u.y.0.o r.t.r.r.o w.t.u.y.q.r.r.e.w.r.e.t.u.y.8.e.e.8.8.8.e.u.y.q.r.e.GXr.e.e.r.q.e.o q.w.o t.u.y.0.0.8.8.8.e.u.y.e.y.u.",
"u.y.t.y.u.y.0.w.e.GXfXt.o w.t.u.y.q.GXe.GXt.GXe.t.u.y.8.e.w.0.8.0.e.u.y.q.o q.e.r.r.t.fXGXr.fXt.t.e.t.u.y.q.0.8.8.8.e.u.y.e.u.y.",
"y.t.t.y.u.y.0.o e.r.r.r.o 0.t.u.y.q.GXr.t.r.GXe.t.u.y.8.e.8.0.8.0.e.u.y.q.w.e.t.r.r.t.e.GXr.fXt.t.t.t.u.y.q.8.8.8.8.e.u.y.e.fXt.",
"y.y.y.y.u.y.0.GXt.y.fXt.w.0.t.u.y.e.t.t.t.t.t.t.t.u.y.w.e.e.e.e.e.e.u.y.q.GXt.fXr.r.t.w.r.fXfXfXy.fXt.u.y.0.8.8.8.8.e.u.y.fXy.y.",
"u.u.u.u.u.y.0.t.y.y.r.r.o w.t.u.y.u.u.u.u.u.u.u.u.u.y.u.u.u.u.u.u.u.u.y.GXt.t.t.t.t.t.t.t.t.t.t.t.t.t.u.y.w.e.e.e.e.e.u.y.u.u.u.",
"y.y.y.y.y.y.0.y.fXr.r.e.0.q.t.u.y.y.y.y.y.y.y.y.y.y.y.y.y.y.y.y.y.y.y.y.u.u.u.u.u.u.u.u.u.u.u.u.u.u.u.u.y.u.u.u.u.u.u.u.y.y.y.y.",
"8.8.8.w.u.y.0.y.fXt.GXw.w.w.t.u.y.q.q.q.q.q.q.q.q.q.q.q.q.q.q.q.q.e.u.y.y.y.y.y.y.y.y.y.y.y.y.y.y.y.y.y.y.y.y.y.y.y.y.y.y.8.8.8.",
"e.w.o e.u.y.0.t.GXr.o q.w.e.t.u.y.q.t.GXt.o w.w.e.w.e.GXfXt.y.fXy.y.u.y.q.q.q.q.q.q.q.q.q.q.q.q.q.q.q.q.q.q.q.q.q.q.e.u.y.8.e.o ",
"w.q.q.e.u.y.0.t.GXGXo w.o r.t.u.y.q.r.t.r.e.w.q.r.o e.r.r.r.y.y.y.y.u.y.q.w.e.o o e.o o o GXe.GXr.GXGXt.r.r.r.GXw.q.t.u.y.8.o o ",
"w.w.q.e.u.y.0.e.GXGXe.o GXr.t.u.y.q.r.y.y.r.e.w.o t.r.r.u.y.y.fXfXy.u.y.q.o e.w.w.o w.w.w.GXe.t.r.GXe.o e.o o o q.q.t.u.y.8.e.e.",
"0.q.0.e.u.y.0.o GXGXw.q.r.GXt.u.y.q.GXt.fXt.fXy.t.t.t.fXu.fXfXe.t.y.u.y.q.w.w.e.e.o w.w.o GXGXt.r.GXGXo e.o t.e.q.q.t.u.y.8.e.e.",
"8.0.0.e.u.y.0.GXr.GXGXr.fXe.t.u.y.q.t.t.fXt.fXfXy.t.t.fXu.y.GXo t.y.u.y.q.o e.e.GXo o w.o GXGXGXGXGXGXe.e.e.r.e.e.r.t.u.y.8.o w.",
"0.0.w.e.u.y.0.t.fXGXGXr.r.e.t.u.y.q.fXt.y.y.t.y.y.fXfXt.u.y.w.o r.y.u.y.q.o w.o e.w.w.o w.GXe.e.e.GXr.GXo o o w.o e.t.u.y.8.w.0.",
"w.w.o e.u.y.0.fXy.e.r.GXt.t.t.u.y.q.fXy.u.y.u.u.y.r.t.t.r.t.e.r.fXy.u.y.q.o o w.w.w.o w.o GXGXe.GXGXGXr.GXt.t.GXe.GXt.u.y.8.0.0.",
"e.e.e.e.u.y.e.t.t.t.t.t.t.t.t.u.y.q.t.y.y.y.y.t.r.r.r.r.r.r.r.t.y.y.u.y.e.t.t.t.t.t.t.t.t.t.t.t.t.t.t.t.t.t.t.t.t.t.t.u.y.w.e.e.",
"u.u.u.u.u.u.u.u.u.u.u.u.u.u.u.u.y.q.fXr.t.y.t.r.GXr.r.t.GXr.r.t.y.y.u.y.u.u.u.u.u.u.u.u.u.u.u.u.u.u.u.u.u.u.u.u.u.u.u.u.u.u.u.u."
};
