/* XPM */
static char *_9bec22dbfbf464f98c9e1d8be041605z2y9I6dirdDKmqFP[] = {
/* columns rows colors chars-per-pixel */
"64 64 163 2 ",
"   c #350300",
".  c #3C0603",
"X  c #350A02",
"o  c #3D0A05",
"O  c #3F0708",
"+  c #3E0D09",
"@  c #3E120A",
"#  c #3E180D",
"$  c #410605",
"%  c #420A06",
"&  c #4A0E07",
"*  c #430708",
"=  c #440D0A",
"-  c #4B0E0C",
";  c #510E0D",
":  c #451206",
">  c #4A1107",
",  c #45120B",
"<  c #4B130C",
"1  c #45180C",
"2  c #4B190C",
"3  c #52150C",
"4  c #58150D",
"5  c #52180D",
"6  c #54180E",
"7  c #52190D",
"8  c #460E11",
"9  c #4C0E12",
"0  c #520F11",
"q  c #471410",
"w  c #451610",
"e  c #461211",
"r  c #491612",
"t  c #4C1510",
"y  c #4C1711",
"u  c #4C1111",
"i  c #451C14",
"p  c #4A1C15",
"a  c #4C1E18",
"s  c #521112",
"d  c #581214",
"f  c #541B12",
"g  c #581910",
"h  c #501F1A",
"j  c #462017",
"k  c #47251B",
"l  c #462118",
"z  c #4E211B",
"x  c #4C241C",
"c  c #4F271F",
"v  c #4D231C",
"b  c #4A281E",
"n  c #4B291F",
"m  c #4E281E",
"M  c #51241D",
"N  c #50281E",
"B  c #4B2B20",
"V  c #4C2A20",
"C  c #4D2B21",
"Z  c #4F2A21",
"A  c #4B2D22",
"S  c #4C2C21",
"D  c #4D2D22",
"F  c #4E2C22",
"G  c #4F2D23",
"H  c #4F2F24",
"J  c #4E2C22",
"K  c #532620",
"L  c #522C23",
"P  c #522D24",
"I  c #502E24",
"U  c #532E25",
"Y  c #572F25",
"T  c #522C24",
"R  c #592C26",
"E  c #4F3126",
"W  c #4F3327",
"Q  c #503025",
"!  c #513126",
"~  c #523227",
"^  c #533127",
"/  c #553027",
"(  c #563027",
")  c #523126",
"_  c #513328",
"`  c #533328",
"'  c #523429",
"]  c #53352A",
"[  c #513529",
"{  c #543429",
"}  c #55352A",
"|  c #57352B",
" . c #56342A",
".. c #54362B",
"X. c #56362B",
"o. c #56352C",
"O. c #55372C",
"+. c #57372C",
"@. c #55342A",
"#. c #59342B",
"$. c #59352C",
"%. c #54382C",
"&. c #56382D",
"*. c #55392E",
"=. c #563A2E",
"-. c #56392E",
";. c #58382D",
":. c #583A2F",
">. c #5A3A2F",
",. c #59392E",
"<. c #563B32",
"1. c #573B30",
"2. c #593B30",
"3. c #5E3930",
"4. c #5D3B31",
"5. c #5A3C31",
"6. c #5B3D32",
"7. c #5C3C31",
"8. c #5B3D32",
"9. c #633630",
"0. c #623D34",
"q. c #544334",
"w. c #5B4132",
"e. c #5E4133",
"r. c #5B4134",
"t. c #5C4235",
"y. c #574738",
"u. c #5E4639",
"i. c #574A39",
"p. c #5D4B3C",
"a. c #5D503F",
"s. c #604035",
"d. c #604237",
"f. c #614236",
"g. c #614539",
"h. c #604639",
"j. c #63473B",
"k. c #624539",
"l. c #6A443B",
"z. c #624C3E",
"x. c #684C3E",
"c. c #5E5241",
"v. c #654E40",
"b. c #6A4E42",
"n. c #635343",
"m. c #655243",
"M. c #6A5445",
"N. c #615946",
"B. c #625845",
"V. c #695846",
"C. c #6D5649",
"Z. c #665B49",
"A. c #655B48",
"S. c #6B5B4B",
"D. c #715649",
"F. c #735E4D",
"G. c #6B614E",
"H. c #70614E",
"J. c #6D6452",
"K. c #726453",
"L. c #736A56",
"P. c #736B58",
"I. c #796858",
/* pixels */
"n.L ` H N v z x B C b b C P | | [ | ~ F b B F H o.#.o.2.6.=.k B.y.n 8.>.;.%.%.1.X.=.X.{ ! A n L B E [ [ { { | >.e.X.W X.%...~ A.",
"C . o o * * * : o % $ % % $ * % % = % % o % % * o o o * = *   d.#.$ : o * = o o o o = % & % % & = = % = % % % = % = = & o o . | ",
"/ * , = < , & , , , = , , , , : , = , < , , , , , = , , q = o h.~ $ < < < : , 1 < < 2 > < < < & < < > < > < 2 3 2 > > > , 1 % ..",
"B o , , = = , = = & & , , & , = , & & & < & , & & < , - = , o 6.| o < : 3 > 2 < 3 3 3 2 2 < < 2 2 < < < > 2 3 > > > < < , : = >.",
"C $ , , - 3 3 3 & - ; 3 3 - & ; 3 & ; 3 3 3 ; 3 3 - & & & q % d.3.% < > 3 3 3 3 3 3 3 3 4 3 4 4 4 4 7 4 3 3 3 3 > 3 3 4 < < % 4.",
"Y = , = - ; ; ; & - < < 3 - & < - > < - - - < < 3 < < < - = o h.! $ < < 3 2 3 3 3 3 3 3 2 5 < 3 3 < 3 5 3 3 3 3 7 3 > > y < o o.",
"` % = = & , 3 , - & < 3 - < & < < - - - - & - & & & < - , - o h.#.% < < 3 3 3 3 5 3 3 4 3 3 3 3 3 7 7 3 3 3 3 3 > 7 5 3 < < * d.",
"T $ , , & & & - < < < & & < = & & : & & & < , = & , = & = , o 8.( % , : & < > 2 < > > > > 2 < < 2 < 3 > 3 2 > 2 < 4 3 > < : % >.",
"Y X 1 = = , , < , , = = : , = , @ = % q q = , = = : o = = @ o | ! X 1 , 1 r : , , < , u q , - , , < + 1 , & , 1 , < < , = r X P ",
"9.o o = % . . = . % = % + * $ + o & = , , = + = * = @ = * + @ / #.  $ = % * o $ o o = % X , & o o = = o $ & = = & o = = % o o $.",
"I.u.u.u.z.z.m.m.m.m.h.w.p.M.z.c.c.z.M.B.M.v.n.v.n.v.y.m.V.C.c.G.G.y.z.j.z.M.M.z.u.h.x.C.M.C.b.M.K.x.v.c.p.v.u.y.m.p.p.p.m.M.n.J.",
"j j c M K N x p z z M z l p i j.b.i p # @ , i i p p i z z z i j c M K h M K M M N x M z x c p h.h.i i x z M v c z M c v c K c V ",
"o = o % = X o = o + * % o : X | 0.  * = - = = % * = * = * $ = = = = = = = $ $ = $ % * $ * =   #./ . o + o * X o * : = o + $ = = ",
", , , , < , : , < , , , , , X =.d.o & = u 9 = 9 q - - - - u s - 9 - = - = - - - 3 - 0 - = , o o.` . = 1 - < < < < : + = , , , , ",
"< 3 < & - < < < < < 3 & = < = X.8.% u - 9 s - ; - ; 0 s - 0 ; ; - ; s s - 0 d - 0 - - 9 , - + 6.>.o - , , < < 3 > 2 3 < < 3 < < ",
"& < 3 3 > < < < 3 < < 3 , < o { k.o - - = - s ; s 0 s ; 0 s 0 0 0 0 - 0 0 0 ; 0 0 0 - - - - o k.| o & , < < < > < < < - < < < < ",
"< < < , < < < < < < < < < , o %.y.= & 8 0 - - 0 u 0 ; ; 3 0 - - d < t ; 0 3 u 0 - 0 ; < - - o 1./ . , < , < < & 2 > 3 & < < - < ",
"- < & & 3 - & < > , < < = & = A 6.* 9 = ; - s 0 ; 9 9 - s u ; ; ; - u 9 0 9 - 0 9 0 - 9 9 - * z.~ o & < < < & 3 > & & & t < < < ",
"< , , 1 < , , < < = = , : , o H 6.$ , , u = u - - - = q , - 9 0 - 9 * - ; - - 0 - - - - , - . 6.` o r , , - , , < : & 1 , , < & ",
"+ + o : + o = * = = u o o =   T 8.  $ O $ $ * = = = * = = = = = + * = = = = o o = = $ * = , o 6.| . = o % * = + % = o o * + * o ",
"r p , e z i w i i i M v k j p j.D.N K K M c M a p a i i a N p j v p a q w i p p y p z M i i i v.z.i i j p p i l c N K n n i v j ",
"I.M.z.v.S.V.n.M.n.S.C.M.p.z.D.B.B.u.a.m.z.m.m.v.v.z.c.v.x.m.a.L.J.z.C.C.M.v.z.v.v.v.v.z.V.V.j.c.A.h.u.p.C.C.M.F.M.M.V.M.M.n.n.K.",
"4.@ + 1 @ , , 1 q , = , : o > o : % = o X o & + , + = , & = + 0.6.X = : @ @ + : % , , $ o : & = o < = @ < & = , = o $ * + + + Y ",
"{ o : < + 1 , & e = , , 1 1 2 2 1 < < : 2 = < 1 : : 1 , = < X { 8.o u = : u < & , , o f , , = < < 3 , : , < t , , 1 , < = q X L ",
"{ : : 1 7 < > 2 < > 2 > : > 2 : < 2 2 2 : 2 7 : 2 > : > 2 : o ,.>.X < < > < 3 < 2 2 3 > < > 2 > 3 < & 3 < & 3 > < < < 3 < < = A ",
"{ : < , 2 5 2 2 5 2 7 2 3 3 3 7 3 5 3 > 2 7 7 7 3 3 2 3 y < = >.l.$ < 3 3 > 3 6 3 5 3 3 3 g 5 4 3 4 3 3 7 5 4 3 6 5 4 & < - > L ",
",.o < p 2 7 2 < 5 5 7 7 5 2 2 2 3 2 3 3 3 7 5 2 7 7 2 2 2 1 o =.h.o : < 3 2 4 f 3 5 5 3 3 7 7 2 2 3 5 2 7 6 3 5 3 5 g 3 7 < : n ",
"s.% > 2 3 7 2 6 7 3 2 7 3 3 2 5 3 3 2 7 5 3 5 5 7 7 2 3 < < o >.0.% < 3 3 3 4 7 4 g 7 6 4 7 4 4 3 3 4 3 3 4 3 g 4 3 4 3 3 < * c ",
",.: 1 : < 2 : 7 2 2 2 > 2 > < 2 : 2 2 > 2 2 2 7 : 2 2 2 < 1 o 6.>.% 2 < 3 3 3 2 3 < < 3 3 < 3 < 3 6 g 3 3 7 < < 3 3 3 < < < : B ",
"w.o : , 2 < : : < 2 < : 1 1 1 1 2 > 2 : 1 2 1 < 2 : : > , 1 % =.o.o 1 > > 2 3 > < > < < < < < < 2 > < < < < < < , f < < , , + Z ",
">.X % = o o % % o o % o % % % & : % o o o % % % % o % % o = . ~ ... % o % % % % * % . % = = o . % % o % % o % % = = = % o * o K ",
"Z.h.f.w.t.4.=.>.X.X.,.X.{ | { N ! [ { { { >.>.w.,.) { ) [ { ! B.J.o.>.+.3.w.s.>.h.t.>.8.8.w.:...| d.8.=.X.>.d.h.u.6.8.8.z.j.t.S.",
"H ` ` P ` o.2.2.w.>.| ;.t.r.=.J.J.2.8.o.8.<.%.2.8.8.k.x.j.t.6.=.| =.2.8.0.2.| ..| { %.! E { / A.G.3.8.8.#...| ~ ..F B H o.o.` H ",
"% $ + o o $ o o % $ X o X . . 8.=.. * o * * o $ * . . o o . . $ $ o + $ $ * $ $ * * o $ . % . P o.o o o $ o % o o . . o o $ . o ",
"= : : , , , , @ & = : , = : o t.8.o = e 9 = , q u , , 9 = - u u q - 9 - 9 < q u 9 - = - , = * >.6.o + = = , = , : , , : , = = , ",
"e , = , , = = : < = , , , q   :.2.o - q 9 - 9 s 9 9 9 - 9 u 0 9 - 9 9 u u 9 9 - - 9 q 9 s - % =.r.. e , - , , , = , , , < , , , ",
"< < & - & & < < < & & & = , . 8.$.$ - - 0 0 0 0 0 d 0 0 0 0 d 0 ; 9 0 ; ; 0 ; 0 0 0 0 9 u - * >.8.o = , - q < & - - & & , - & < ",
"= < < < < < < < , < < , = 1 . w.2.* q - 0 9 9 9 0 u u 0 s 9 9 9 s s 9 u 9 u 9 9 0 0 u 9 - 8 * 2.<.. = , - , < , < < < < < < < < ",
"& < & - < - < = - - = & , = o 8.>.$ 9 9 - - - - - 9 0 0 0 0 9 - - 0 s s 0 s 0 u 0 9 9 9 - = = 2.` o , q , = < = < < , - - , < < ",
", , , = = , , , , , , = = + O 8.8.o = e - 9 u - 9 9 - - 0 9 - 8 9 9 9 - 9 u - u - - < 9 - 8 * =.<.* + : - & : & , = = < , , - = ",
"= - + + = q = , + + e = @ , X %.3.. 8 * - q = = e = = 8 = 9 8 = , = - 9 9 = e q = e = - - , X o.>.X @ = @ + = = & , , + , e = , ",
"@ = , # + o = 1 = o * @ * = = 0.8.+ * 8 = O * = = 8 9 = @ * * = % = % * - = + = = * * = = & o k.l.+ = = + @ q = , = , = o = , o ",
"G.D.F.B.x.D.M.m.M.v.p.z.V.M.z.G.G.c.v.M.v.c.v.v.v.M.C.z.y.n.p.c.c.z.m.n.m.x.V.C.v.q.c.n.z.x.V.L.G.p.n.v.p.c.A.C.M.a.V.V.p.c.A.K.",
"h.1 i i v p w p i z c a q i + @ i a e i 8 p a a i i r p i z p u.M.v M c j i i i p v x i i j i # # # q e i i i i p i i i i 1 # 0.",
"I O = O o - * = * * o * = = - - - = = = O = = * - * * - + + . o.t.  = : X : o : % = = o : : = = , = o , & o : o % , : % , = X c ",
"/ = u 8 - 9 9 9 u q 8 q 8 = - 9 9 - - u u 8 - 9 9 u u , 8 u o #.w.o < , 1 < = 1 2 : 1 2 , : 1 < , 1 < 1 1 : 1 1 , < 1 : , < X L ",
"*.O - q 0 - 9 9 < s s d s u u 0 9 s 9 9 9 0 0 s 0 9 - d 9 8 o / u.= < : < 7 : < : 2 < > < 2 1 2 < 2 < : 2 2 : < < : 2 < , , @ #.",
"o.+ - - s 0 s ; s s ; ; d u - 0 s s - d s s s 9 0 u 0 0 9 - O Z v.o & 1 : : 2 2 2 : 2 < < 1 < 2 2 2 : 2 > 2 > 2 2 2 1 < < 1 @ K ",
"o.= 0 8 u s d d 9 s 0 0 - d 9 s 0 s 9 9 s 0 d s d s u ; u 9 $ T t.= = 1 > : 2 > 2 1 2 5 > 2 2 2 < 2 1 2 3 2 : < 2 2 : < < & o ( ",
"<.$ - 9 - 9 9 - s s 0 9 0 9 s 0 0 d 0 - - ; ; ; 9 9 s 9 - 0 o ;.h.X , 1 1 : 1 < 2 < 1 < > 2 2 < 7 < : 5 < > 2 2 2 2 2 , < 1 o n ",
"8.. = q - u t - - - = u u - 9 u - - - - u 9 - u - , - - q u   ;.h.o < : 2 2 , , : : 1 y < 1 1 , < < : 2 1 1 1 < > > < 1 < < + { ",
"/ . = = $ $ O o = = * = * = $ = = = = = = * = * o * $ % O -   C 8.  = : = o   O % : o X = : o , o 1 + o o o o = o X o + o X X ( ",
"z.M a z K R c z M z Y c T R p v i p M a a i K a z K a K v K R j.C.j 2 k a R / V M x N j i z z i L K M V c K c c K T T Y ( k k f.",
"i.z.v.V.M.b.y.b.u.q.p.p.z.m.y.Z.P.n.v.M.v.u.p.6.p.p.k.z.q.<.y.p.q.m.z.u.C.C.v.v.u.u.m.S.v.n.V.L.P.p.z.v.p.p.v.p.z.z.p.j.z.u.u.m.",
"o % o o = * + - = . o * . * X 0.0.o   O = O . O O . * * o = * O + O + o + o o + $ = $ . = *   j.| . % = o * = . o . + o o + o o ",
", u * , - = , = = , = , - = X ~ 8.X = 8 + e 8 8 e = q = @ 8 8 = @ = = + 8 = 8 8 = q 8 , 8 8 X <...X < = = = = , q * - - = , - - ",
"= - - & - < ; = & - - 9 - * o =.6.O = u 9 e 8 8 9 9 9 9 9 8 8 8 8 8 8 9 9 8 8 8 8 9 8 8 8 8 . 6.`   , - & - ; = < & > & < < - - ",
"; 3 0 ; - ; ; 3 ; - & 0 - - . 1.o.. 8 8 9 9 9 9 9 9 9 9 9 9 9 9 9 9 9 9 9 9 9 9 8 9 8 9 8 * O 8.3.o 9 - ; ; ; ; ; - - ; ; ; ; 3 ",
"; 3 < - ; ; ; 0 < ; < s - , o u.<.o e e 8 8 8 8 8 9 9 s 9 9 9 9 9 8 9 9 9 9 9 9 9 9 9 9 8 8 . 8.2.* , - ; - - ; ; ; - ; ; ; - - ",
"; ; ; ; 0 3 ; ; ; ; ; ; ; - % l.8.O 8 8 9 9 0 9 9 9 9 9 9 s 9 9 9 9 9 9 9 9 9 9 9 9 9 9 8 8 $ $.2.o = & ; ; - 3 0 ; ; ; ; ; ; ; ",
"= - - - - - - & s - - - , q o 0.o.. 8 = u 8 8 8 8 8 8 8 8 9 8 8 8 8 8 8 8 8 8 8 8 9 8 8 @ 8 O %.0.. = , - - ; - - - & & & - , < ",
"- - 9 & - = - q - , , - = = . t.>.o e 8 8 = 9 8 8 8 8 8 8 e r 8 8 8 8 8 8 8 8 8 8 8 e = + + . o.t.. = , = , - & , = 9 - - , = - ",
"$ % = = = = % % $ % + * o o . o./ . + O O + O O O O O 8 * O O O 8 O O O 8 O O O * O 8 * 8 O . / 6.. = = * = * o = * * * * * = $ ",
"#.#./ 2.8.8.2...2.>._ o.o.2.#.S.V.V P _ #.8.<.o.U I J J I Z I _ / I U U J J U ^ K V Z T o._ V c.A.x / P #./ K T P K C C H ` / / "
};
